<svg width="92" height="36" viewBox="0 0 92 36" fill="none" xmlns="http://www.w3.org/2000/svg">
  <g clip-path="url(#clip0_282_573)">
    <circle cx="16" cy="18" r="15.5" fill="#FDC7EA" stroke="#F66000" />
    <path fill-rule="evenodd" clip-rule="evenodd"
      d="M16.109 13.7982C17.6153 11.1449 20.6221 11.1449 22.1284 12.4715C23.6346 13.7982 23.6346 16.4458 22.1284 19.0992C21.074 21.0863 18.3685 23.0734 16.109 24.4001C13.8496 23.0734 11.1441 21.0863 10.0897 19.0992C8.58345 16.4458 8.58345 13.7982 10.0897 12.4715C11.596 11.1449 14.6028 11.1449 16.109 13.7982Z"
      fill="#F66000" />
  </g>
  <path
    d="M38.9309 23.792V20.912H35.8109V17.456H38.9309V14.552H42.4109V17.456H45.5309V20.912H42.4109V23.792H38.9309ZM54.2227 26V14.72L51.6547 15.104V11.336L58.7347 10.304V26H54.2227ZM67.8123 26.24C66.0363 26.24 64.6043 25.936 63.5163 25.328C62.4443 24.704 61.6603 23.8 61.1643 22.616C60.6683 21.432 60.4203 19.984 60.4203 18.272C60.4203 16.56 60.6683 15.112 61.1643 13.928C61.6603 12.744 62.4443 11.848 63.5163 11.24C64.6043 10.616 66.0363 10.304 67.8123 10.304C70.4683 10.304 72.3643 10.992 73.5003 12.368C74.6363 13.728 75.2043 15.696 75.2043 18.272C75.2043 20.832 74.6363 22.8 73.5003 24.176C72.3643 25.552 70.4683 26.24 67.8123 26.24ZM67.8123 22.4C68.8523 22.4 69.5723 22.056 69.9723 21.368C70.3883 20.664 70.5963 19.632 70.5963 18.272C70.5963 16.896 70.3883 15.864 69.9723 15.176C69.5723 14.488 68.8523 14.144 67.8123 14.144C66.7723 14.144 66.0443 14.488 65.6283 15.176C65.2283 15.864 65.0283 16.896 65.0283 18.272C65.0283 19.632 65.2283 20.664 65.6283 21.368C66.0443 22.056 66.7723 22.4 67.8123 22.4ZM83.7967 26.24C82.0207 26.24 80.5887 25.936 79.5007 25.328C78.4287 24.704 77.6447 23.8 77.1487 22.616C76.6527 21.432 76.4047 19.984 76.4047 18.272C76.4047 16.56 76.6527 15.112 77.1487 13.928C77.6447 12.744 78.4287 11.848 79.5007 11.24C80.5887 10.616 82.0207 10.304 83.7967 10.304C86.4527 10.304 88.3487 10.992 89.4847 12.368C90.6207 13.728 91.1887 15.696 91.1887 18.272C91.1887 20.832 90.6207 22.8 89.4847 24.176C88.3487 25.552 86.4527 26.24 83.7967 26.24ZM83.7967 22.4C84.8367 22.4 85.5567 22.056 85.9567 21.368C86.3727 20.664 86.5807 19.632 86.5807 18.272C86.5807 16.896 86.3727 15.864 85.9567 15.176C85.5567 14.488 84.8367 14.144 83.7967 14.144C82.7567 14.144 82.0287 14.488 81.6127 15.176C81.2127 15.864 81.0127 16.896 81.0127 18.272C81.0127 19.632 81.2127 20.664 81.6127 21.368C82.0287 22.056 82.7567 22.4 83.7967 22.4Z"
    fill="#4D4D4D" />
  <defs>
    <clipPath id="clip0_282_573">
      <rect width="32" height="32" fill="white" transform="translate(0 2)" />
    </clipPath>
  </defs>
</svg>