<svg width="80" height="36" viewBox="0 0 80 36" fill="none" xmlns="http://www.w3.org/2000/svg">
<g clip-path="url(#clip0_41_86)">
<circle cx="16" cy="18" r="15.5" fill="#FDC7EA" stroke="#F66000"/>
<path fill-rule="evenodd" clip-rule="evenodd" d="M16.109 13.7982C17.6153 11.1449 20.622 11.1449 22.1283 12.4715C23.6346 13.7982 23.6346 16.4458 22.1283 19.0992C21.0739 21.0863 18.3684 23.0734 16.109 24.4001C13.8496 23.0734 11.1441 21.0863 10.0897 19.0992C8.58339 16.4458 8.58339 13.7982 10.0897 12.4715C11.5959 11.1449 14.6027 11.1449 16.109 13.7982Z" fill="#F66000"/>
</g>
<path d="M39.013 23.792V20.912H35.893V17.456H39.013V14.552H42.493V17.456H45.613V20.912H42.493V23.792H39.013ZM56.6807 26.24C56.2327 26.24 55.7047 26.208 55.0967 26.144C54.5047 26.096 53.9127 26.016 53.3207 25.904C52.7447 25.776 52.2407 25.616 51.8087 25.424V21.8C52.1927 21.976 52.6327 22.128 53.1287 22.256C53.6407 22.384 54.1527 22.48 54.6647 22.544C55.1767 22.608 55.6087 22.64 55.9607 22.64C56.8407 22.64 57.4807 22.504 57.8807 22.232C58.2967 21.96 58.5047 21.528 58.5047 20.936C58.5047 20.376 58.3607 19.976 58.0727 19.736C57.7847 19.48 57.2407 19.352 56.4407 19.352H51.7367V17.288L52.1447 10.544H62.1527L61.8407 14H56.0087L55.8647 16.208H57.6167C59.4887 16.208 60.8727 16.624 61.7687 17.456C62.6647 18.288 63.1127 19.504 63.1127 21.104C63.1127 22.64 62.5767 23.88 61.5047 24.824C60.4487 25.768 58.8407 26.24 56.6807 26.24ZM71.7147 26.24C69.9387 26.24 68.5067 25.936 67.4187 25.328C66.3467 24.704 65.5627 23.8 65.0667 22.616C64.5707 21.432 64.3227 19.984 64.3227 18.272C64.3227 16.56 64.5707 15.112 65.0667 13.928C65.5627 12.744 66.3467 11.848 67.4187 11.24C68.5067 10.616 69.9387 10.304 71.7147 10.304C74.3707 10.304 76.2667 10.992 77.4027 12.368C78.5387 13.728 79.1067 15.696 79.1067 18.272C79.1067 20.832 78.5387 22.8 77.4027 24.176C76.2667 25.552 74.3707 26.24 71.7147 26.24ZM71.7147 22.4C72.7547 22.4 73.4747 22.056 73.8747 21.368C74.2907 20.664 74.4987 19.632 74.4987 18.272C74.4987 16.896 74.2907 15.864 73.8747 15.176C73.4747 14.488 72.7547 14.144 71.7147 14.144C70.6747 14.144 69.9467 14.488 69.5307 15.176C69.1307 15.864 68.9307 16.896 68.9307 18.272C68.9307 19.632 69.1307 20.664 69.5307 21.368C69.9467 22.056 70.6747 22.4 71.7147 22.4Z" fill="#4D4D4D"/>
<defs>
<clipPath id="clip0_41_86">
<rect width="32" height="32" fill="white" transform="translate(0 2)"/>
</clipPath>
</defs>
</svg>
