<svg width="255" height="300" viewBox="0 0 255 300" fill="none" xmlns="http://www.w3.org/2000/svg">
<g clip-path="url(#clip0_15_6156)">
<path d="M160.588 202.456C158.956 202.464 157.277 202.333 155.79 201.658C154.304 200.984 153.03 199.665 152.791 198.058C152.923 198.944 168.546 195.572 169.926 195.19C172.755 194.41 175.541 193.477 178.272 192.404C180.82 191.403 183.644 189.482 186.222 188.964C186.388 190.691 183.15 193.146 181.944 194.215C180.002 195.937 177.85 197.421 175.554 198.639C170.966 201.073 165.794 202.439 160.588 202.46V202.456Z" fill="#DAAF67"/>
<path d="M125.346 120.757C121.989 118.687 118.304 117.283 114.423 116.575C113.852 116.469 113.537 115.786 113.677 115.269C113.839 114.683 114.423 114.425 114.985 114.531C119.033 115.269 122.926 116.77 126.42 118.924C127.583 119.645 126.514 121.478 125.346 120.757Z" fill="#231F20"/>
<path d="M161.474 53.6135C161.512 54.5974 161.354 55.5814 160.945 56.4848C159.22 57.965 156.77 57.2864 154.76 56.8834C152.016 56.3363 149.272 55.7935 146.49 55.4669C140.999 54.8222 135.358 55.1276 129.867 55.6068C118.935 56.5569 108.246 58.9489 97.8974 62.5455C96.8706 62.9018 95.7672 63.2835 94.6766 62.9781C93.8458 62.7406 93.1301 62.1723 92.6274 61.481C91.3791 59.7717 91.541 57.6045 92.5337 55.8189C93.6541 53.8001 95.5542 52.4598 97.5992 51.4801C99.9253 50.3647 102.447 49.6182 104.91 48.876C115.258 45.7417 126.037 44.1597 136.841 43.8628C139.55 43.7907 142.26 43.795 144.969 43.8756C147.662 43.9561 150.371 44.1173 152.979 44.8383C157.103 45.9835 161.299 48.9735 161.474 53.6135Z" fill="#9FAAB5"/>
<path d="M167.783 108.928C164.256 110.76 161.154 113.262 158.611 116.312C158.24 116.753 157.482 116.689 157.103 116.312C156.672 115.879 156.736 115.251 157.103 114.81C159.748 111.638 163.037 109.004 166.71 107.095C167.924 106.464 169.002 108.296 167.783 108.928Z" fill="#231F20"/>
<path d="M153.886 138.523C153.75 137.446 153.584 136.377 153.149 135.376C152.297 133.404 150.435 132.28 148.288 132.297C146.84 132.306 145.455 132.776 144.066 133.128C142.758 133.459 141.45 133.497 140.113 133.625C138.835 133.748 137.625 134.011 136.462 134.57C135.584 134.995 134.728 135.656 134.54 136.64C134.54 136.64 134.54 136.649 134.54 136.653C134.008 139.308 133.756 142.018 133.854 144.728C133.944 147.044 134.187 149.5 135.52 151.476C138.14 155.357 143.551 156.324 147.632 154.309C149.694 153.291 151.211 151.514 152.148 149.453C153.183 147.18 153.814 144.749 153.993 142.264C154.082 141.017 154.048 139.762 153.89 138.523H153.886ZM151.901 141.305C151.858 143.418 151.424 145.5 150.678 147.476C150.031 149.19 149.098 150.861 147.543 151.909C144.56 153.91 140.279 153.669 137.795 150.963C136.308 149.338 136.082 147.031 135.989 144.932C135.878 142.345 136.078 139.753 136.589 137.217C136.598 137.187 136.598 137.162 136.602 137.132C136.611 137.098 136.615 137.056 136.619 137.018C136.619 136.984 136.628 136.962 136.628 136.933V136.979C136.628 136.979 136.623 137.009 136.619 137.013C136.623 137.013 136.623 137.013 136.628 137.005V137.035C136.628 137.035 136.632 137.013 136.632 137.001C136.7 136.928 136.79 136.839 136.802 136.827C137.105 136.589 137.484 136.411 137.842 136.271C138.698 135.928 139.589 135.783 140.5 135.711C141.6 135.626 142.699 135.58 143.781 135.368C144.863 135.156 145.907 134.795 146.985 134.57C148.603 134.231 150.269 134.443 151.091 135.983C151.424 136.606 151.573 137.391 151.696 138.137C151.867 139.181 151.926 140.245 151.901 141.305Z" fill="#231F20"/>
<path d="M222.669 121.448C222.255 114.238 220.564 107.096 217.765 100.437C215.209 94.3633 211.681 88.6843 207.34 83.7136C207.242 83.6627 207.153 83.6075 207.076 83.5312C206.957 83.4124 206.876 83.2767 206.829 83.1325C206.582 82.8568 206.33 82.5769 206.075 82.3055C205.146 81.3045 206.65 79.8032 207.583 80.8041C207.664 80.8931 207.745 80.9822 207.826 81.0713C208.005 80.8295 208.184 80.5835 208.354 80.3333C211.588 75.6043 213.134 69.8871 212.857 64.1869C212.58 58.5036 210.399 52.9815 206.62 48.7021C202.905 44.4991 197.912 41.6574 192.472 40.3172C187.061 38.9812 181.101 39.0194 175.75 40.6353C170.356 42.2639 165.968 45.869 163.182 50.7294C163.157 50.7719 163.131 50.8058 163.101 50.844C163.817 52.9688 163.77 55.2888 162.88 57.35C162.85 57.4942 162.782 57.6384 162.667 57.7741C162.603 57.8717 162.518 57.9565 162.415 58.0201C161.555 58.7666 160.524 59.2501 159.386 59.4197C158.112 59.6106 156.877 59.4622 155.624 59.2162C154.125 58.9193 152.634 58.6097 151.134 58.3297C148.228 57.7826 145.319 57.3797 142.358 57.2864C136.628 57.104 130.842 57.5197 125.155 58.2279C119.454 58.9362 113.797 60.0559 108.246 61.5446C105.489 62.2826 102.758 63.1139 100.057 64.0342C98.7238 64.4923 97.3989 65.0606 95.9802 65.1878C94.8214 65.2939 93.6413 64.997 92.6614 64.3735C90.6719 63.1096 89.4662 60.7515 89.6025 58.4103C89.6963 56.7562 90.3225 55.187 91.2726 53.834C90.936 53.4735 90.5696 53.1385 90.1734 52.8373C87.7919 51.039 84.7075 49.9787 81.8531 49.1983C78.8964 48.3883 75.8461 47.9684 72.7786 47.9599C66.9122 47.9387 61.0926 49.474 56.1379 52.6295C51.6859 55.4627 48.0178 59.5003 45.713 64.2335C43.4124 68.9583 42.6754 74.3616 43.634 79.5232C44.5031 84.214 46.6545 88.6122 49.9818 92.0306C50.8594 91.4114 52.031 92.6117 51.4175 93.5405C51.6774 94.2319 50.9617 94.9953 50.2161 94.9062C50.0031 95.148 49.7943 95.3897 49.5898 95.6357C45.108 100.967 41.6827 107.176 39.3353 113.712C36.7451 120.935 35.4542 128.565 35.2497 136.224C35.1432 140.173 35.3136 144.13 35.7311 148.057C36.1486 151.993 36.8047 155.921 37.9976 159.704C40.0894 166.337 43.7362 172.508 48.3629 177.699C52.7552 182.628 58.038 186.708 63.9385 189.694C64.1345 189.796 64.2623 189.927 64.3518 190.071C65.8983 190.924 67.5513 191.551 69.2042 192.179C70.9851 192.858 72.7786 193.507 74.585 194.122C78.2318 195.36 81.9212 196.471 85.6405 197.455C86.0409 197.561 86.2667 197.82 86.3519 198.117C86.7013 198.452 86.7439 198.965 86.5351 199.415C85.534 201.62 84.5413 203.83 83.5614 206.044C79.5866 215.027 75.8247 224.099 72.2717 233.255C68.7058 242.455 65.3487 251.735 62.2088 261.091C60.6411 265.748 59.086 270.422 57.6801 275.134C56.4148 279.366 55.4051 283.9 56.6662 288.26C57.22 290.173 58.2127 291.933 59.6995 293.282C61.2247 294.669 63.1674 295.53 65.1186 296.153C68.9529 297.375 73.243 298.278 77.2818 297.769C79.2245 297.523 81.1331 296.857 82.7094 295.678C84.3965 294.414 85.649 292.658 87.0506 291.106C89.9945 287.849 93.8543 285.83 97.8803 284.206C106.852 280.588 116.234 277.856 125.594 275.452C135.06 273.021 144.633 271.011 154.231 269.166C159.054 268.237 163.885 267.347 168.72 266.464C173.437 265.603 178.225 264.874 182.779 263.322C186.673 261.998 190.388 259.95 193.149 256.858C196.127 253.524 197.094 249.283 197.469 244.944C197.771 241.416 197.972 236.899 194.065 235.274C190.955 233.981 187.159 234.888 184.173 236.097C183.64 236.313 182.997 235.86 182.865 235.355C182.792 235.083 182.831 234.833 182.946 234.621C182.933 234.562 182.929 234.494 182.937 234.43C183.035 233.34 183.133 232.255 183.235 231.165C183.427 229.023 183.623 226.885 183.819 224.743C183.913 223.725 183.879 222.568 184.194 221.588C184.501 220.651 185.216 220.116 186.043 219.637C189.634 217.533 193.345 215.629 196.966 213.58C203.459 209.916 209.977 205.611 214.157 199.3C217.948 193.579 219.712 185.885 216.402 179.536C214.983 176.817 212.798 174.502 210.024 173.132C207.434 171.847 204.362 171.601 201.58 172.372C201.474 172.428 201.363 172.457 201.244 172.466C200.826 172.593 200.421 172.746 200.025 172.92C197.29 174.116 194.674 176.643 194.431 179.765C194.214 182.522 196.033 185.397 198.896 185.796C199.467 185.877 199.778 186.602 199.637 187.098C199.471 187.7 198.896 187.921 198.33 187.84C198.163 187.815 197.997 187.781 197.835 187.743C197.818 187.764 197.801 187.781 197.784 187.798C197.771 187.819 197.754 187.84 197.742 187.857C197.648 188.001 197.571 188.15 197.495 188.303C197.49 188.315 197.482 188.332 197.477 188.349C197.448 188.434 197.418 188.519 197.397 188.608C197.371 188.693 197.35 188.782 197.333 188.871C197.328 188.888 197.324 188.909 197.324 188.93C197.316 189.091 197.299 189.257 197.303 189.418C197.303 189.494 197.311 189.571 197.316 189.647C197.32 189.664 197.32 189.685 197.324 189.702C197.358 189.876 197.405 190.05 197.469 190.22C197.473 190.232 197.473 190.237 197.477 190.245C197.516 190.326 197.554 190.402 197.597 190.478C197.891 190.996 197.708 191.615 197.218 191.929C196.736 192.238 196.033 192.035 195.761 191.551C194.938 190.105 195.007 188.294 195.846 186.899C195.177 186.47 194.593 185.949 194.108 185.346C192.821 186.352 191.534 187.353 190.248 188.358C190.009 188.54 189.792 188.655 189.494 188.667C189.208 188.68 188.944 188.544 188.74 188.358C188.544 188.18 188.429 187.87 188.429 187.607C188.429 187.37 188.539 187.013 188.74 186.861C190.163 185.749 191.585 184.638 193.008 183.527C192.288 181.89 192.101 180.015 192.54 178.268C193.23 175.515 195.181 173.297 197.575 171.834C197.414 171.796 197.247 171.757 197.081 171.715C195.594 171.359 193.971 170.96 193.26 169.455C192.599 168.055 192.812 166.494 193.081 165.027C193.379 163.39 193.728 161.621 194.448 160.111C194.972 159.013 195.974 158.44 197.098 158.266C196.851 155.357 196.672 152.443 196.574 149.525C196.527 148.134 196.493 146.738 196.481 145.347C196.468 144.02 196.383 142.65 196.54 141.335C196.847 138.769 198.994 137.314 200.898 135.847C204.937 132.738 209.291 130.062 213.901 127.878C213.965 127.822 214.024 127.772 214.097 127.729C214.212 127.661 214.34 127.623 214.459 127.572C214.894 127.394 215.328 127.216 215.763 127.038C215.95 126.991 216.142 126.991 216.329 127.038C216.359 127.051 216.389 127.063 216.419 127.076C216.798 126.936 217.237 127.038 217.561 127.314C219.243 128.747 220.858 130.261 222.4 131.847C222.788 128.395 222.869 124.909 222.669 121.448ZM80.5068 67.2618C80.2384 67.7495 79.7996 68.3221 79.3991 68.7165C79.02 69.094 78.432 69.2467 77.9975 69.5775C77.5672 69.9041 77.2008 70.3409 76.7194 70.5742C76.0378 70.9008 75.5691 71.2231 74.9812 71.7066C74.4359 72.152 73.8267 72.487 73.2515 72.8814C72.6636 73.2801 72.1992 73.7891 71.5772 74.1708C70.8572 74.6119 70.0691 74.93 69.4045 75.4559C68.7654 75.9648 68.1988 76.5628 67.5172 77.0251C66.7503 77.5468 65.8216 77.8182 65.1314 78.4587C64.3518 79.1797 63.6105 79.8116 62.6647 80.3206C61.9916 80.6811 61.2716 81.3979 60.526 81.4869C59.7933 81.5675 59.0094 81.4827 58.5663 80.821C57.808 79.6886 57.4671 78.1448 57.5225 76.8088C57.5694 75.6382 57.531 74.298 57.9613 73.1995C58.2425 72.4785 58.5152 71.7872 58.971 71.1595C59.3885 70.5869 59.8529 70.0695 60.2747 69.5054C60.705 68.9286 61.1906 68.4451 61.7359 67.9743C62.3367 67.4527 62.7968 66.8886 63.3123 66.2863C63.7937 65.7222 64.6244 65.3957 65.2422 64.98C65.9494 64.505 66.7887 64.2293 67.5768 63.8985C68.2883 63.6016 68.9699 63.2326 69.7368 63.1393C70.4483 63.0502 71.1597 62.9824 71.8669 62.9018C73.3197 62.7322 74.8023 62.6176 76.2763 62.5667C77.4607 62.5243 81.4143 65.2557 82.5177 65.7137L80.5537 66.2142C80.7241 66.5111 80.7496 66.8207 80.5068 67.2618ZM157.103 114.81C159.748 111.638 163.037 109.004 166.71 107.096C167.924 106.464 169.002 108.296 167.783 108.928C164.256 110.76 161.154 113.262 158.611 116.312C158.24 116.753 157.482 116.689 157.103 116.312C156.672 115.879 156.736 115.251 157.103 114.81ZM169.611 127.683C169.611 130.541 167.515 132.857 164.929 132.857C162.343 132.857 160.247 130.541 160.247 127.683C160.247 124.824 162.347 122.508 164.929 122.508C167.511 122.508 169.611 124.824 169.611 127.683ZM119.774 138.027C117.192 138.027 115.096 135.711 115.096 132.857C115.096 130.002 117.192 127.683 119.774 127.683C122.356 127.683 124.46 129.998 124.46 132.857C124.46 135.715 122.364 138.027 119.774 138.027ZM125.346 120.757C121.989 118.687 118.304 117.283 114.423 116.575C113.852 116.469 113.537 115.786 113.677 115.268C113.839 114.683 114.423 114.424 114.985 114.53C119.033 115.268 122.927 116.77 126.42 118.924C127.583 119.645 126.514 121.478 125.346 120.757ZM128.337 87.0048C127.4 88.0057 125.896 86.5001 126.833 85.5034C129.841 82.3055 133.616 79.519 138.174 79.3239C141.966 79.1627 145.544 81.1349 147.185 84.5915C147.99 86.288 148.322 88.1711 148.101 90.0457C147.986 91.0255 147.768 91.9798 147.398 92.8959C147.031 93.812 146.529 94.5924 146.043 95.4406C145.655 96.1107 146.452 96.836 146.784 97.3873C147.257 98.1677 147.606 99.0457 147.807 99.9321C148.22 101.764 148.084 103.703 147.355 105.437C145.945 108.801 142.392 111.01 138.737 110.858C137.369 110.802 137.365 108.682 138.737 108.737C142.192 108.881 145.361 106.425 145.851 102.973C146.06 101.514 145.792 99.9575 145.072 98.6724C144.654 97.9345 144.049 97.2728 143.857 96.4246C143.644 95.4576 143.994 94.6857 144.509 93.8883C146.269 91.1697 146.627 87.6452 144.888 84.8248C143.197 82.0722 139.985 81.0034 136.875 81.593C133.432 82.2461 130.668 84.5236 128.337 87.0048ZM147.628 154.309C143.546 156.324 138.136 155.357 135.516 151.476C134.182 149.499 133.939 147.044 133.85 144.728C133.752 142.018 134.003 139.308 134.536 136.653C134.536 136.649 134.536 136.644 134.536 136.64C134.723 135.656 135.58 134.994 136.457 134.57C137.62 134.01 138.83 133.747 140.108 133.625C141.446 133.497 142.754 133.459 144.062 133.128C145.451 132.776 146.835 132.305 148.284 132.297C150.431 132.28 152.293 133.404 153.145 135.376C153.579 136.377 153.746 137.446 153.882 138.523C154.04 139.762 154.074 141.017 153.984 142.264C153.805 144.749 153.175 147.18 152.139 149.453C151.202 151.514 149.685 153.291 147.624 154.309H147.628ZM186.452 189.834C184.185 191.076 181.855 192.188 179.469 193.184C171.183 196.649 162.253 198.537 153.273 198.766C151.901 198.8 151.905 196.679 153.273 196.645C155.765 196.581 158.257 196.395 160.728 196.068C169.351 194.94 177.757 192.175 185.378 188.006C186.58 187.344 187.653 189.176 186.452 189.834ZM199.126 71.1086C198.739 71.8042 197.963 71.9526 197.226 71.9272C196.476 71.8975 195.701 71.2358 195.002 70.9305C194.018 70.4979 193.23 69.9295 192.395 69.2679C191.654 68.6869 190.708 68.4875 189.903 68.0295C189.183 67.6223 188.573 67.0667 187.896 66.6129C187.193 66.1379 186.379 65.8834 185.63 65.5017C184.982 65.1666 184.475 64.7001 183.857 64.3438C183.252 64.0003 182.622 63.7119 182.042 63.3132C181.416 62.8764 180.926 62.5922 180.219 62.3208C179.716 62.1257 179.32 61.7185 178.864 61.4258C178.404 61.129 177.808 61.0229 177.399 60.6794C176.968 60.3146 176.483 59.7803 176.18 59.3137C175.903 58.8938 175.903 58.58 176.044 58.2704L174.054 57.9268C175.115 57.3882 178.839 54.3557 180.027 54.3006C181.501 54.2369 182.984 54.2369 184.45 54.2878C185.161 54.3133 185.877 54.3303 186.588 54.3599C187.364 54.3939 188.071 54.7077 188.804 54.9495C189.613 55.2167 190.474 55.4245 191.219 55.8444C191.867 56.2091 192.719 56.4678 193.243 56.9895C193.805 57.5536 194.308 58.0795 194.947 58.5503C195.531 58.9787 196.055 59.4197 196.527 59.9626C196.992 60.4928 197.499 60.972 197.955 61.5064C198.462 62.1002 198.79 62.7703 199.126 63.4659C199.642 64.5262 199.71 65.8622 199.85 67.0243C200.008 68.356 199.791 69.9211 199.126 71.1086Z" fill="#E7C389"/>
<path d="M130.812 21.2061C125.449 20.5106 119.936 21.0153 114.755 22.5506C114.167 22.2071 113.597 21.8381 113.056 21.4352L112.894 21.3122C112.83 21.2613 112.77 21.2146 112.71 21.168C112.557 21.0407 112.404 20.9135 112.255 20.7863C111.965 20.536 111.688 20.2816 111.415 20.0144C110.87 19.4842 110.367 18.9201 109.89 18.3263C109.882 18.3179 109.877 18.3094 109.873 18.3051C109.873 18.3051 109.865 18.2966 109.822 18.2415C109.758 18.1524 109.694 18.0676 109.63 17.9786C109.524 17.8344 109.417 17.6859 109.315 17.5375C109.089 17.2109 108.876 16.8758 108.676 16.5323C108.391 16.0573 107.705 15.841 107.215 16.1548C106.733 16.4644 106.529 17.0921 106.836 17.6053C108.195 19.8786 110.026 21.8593 112.182 23.4031C107.7 25.0614 103.457 27.5383 100.015 30.855C99.7933 30.7235 99.576 30.592 99.363 30.4436C99.2437 30.363 99.1287 30.2782 99.0136 30.1891C98.9966 30.1764 98.9753 30.1636 98.954 30.1467C98.8943 30.1 98.8347 30.0491 98.775 30.0025C98.2723 29.5826 97.7994 29.1203 97.3734 28.6241C97.2712 28.5096 97.1774 28.3908 97.0794 28.2721C97.0752 28.2678 97.0752 28.2636 97.0709 28.2593C97.0667 28.2551 97.0581 28.2466 97.0496 28.2339C96.9942 28.1575 96.9431 28.0854 96.8877 28.0133C96.7003 27.7504 96.5256 27.4832 96.3637 27.2075C96.0059 26.6095 95.6863 25.9691 95.1495 25.5025C94.7278 25.1378 94.0504 25.0614 93.6414 25.5025C93.275 25.9012 93.1941 26.6137 93.6414 27.0039C93.7096 27.0633 93.7735 27.1184 93.8374 27.1863C93.8459 27.1948 93.8885 27.2457 93.9226 27.2838C93.9481 27.322 93.9907 27.3771 93.995 27.3899C94.0461 27.462 94.093 27.5383 94.1398 27.6147C94.3103 27.8988 94.4679 28.1915 94.6426 28.4756C95.0217 29.0821 95.4563 29.6547 95.9249 30.1933C96.6747 31.0458 97.5566 31.7923 98.5109 32.4157C98.1956 32.7678 97.8846 33.1283 97.5864 33.4973C95.3753 36.2371 93.6542 39.4011 92.6147 42.7644C88.8869 39.575 86.6417 34.829 86.565 29.9219C86.4841 24.6755 88.8059 19.5351 92.6317 15.9555C93.6712 14.98 94.8087 14.1148 95.8993 13.1944C97.0667 12.202 98.1104 11.1332 99.0221 9.89899C99.8401 8.79203 100.564 7.61296 101.463 6.56114C102.345 5.52627 103.338 4.56351 104.48 3.80857C106.772 2.29021 109.639 1.58192 112.297 2.54044C114.734 3.42262 116.558 5.5602 118.002 7.61296C118.943 8.9532 119.8 10.3443 120.762 11.6676C121.789 13.0799 122.931 14.365 124.218 15.5441C126.352 17.4993 128.589 19.3485 130.812 21.2061Z" fill="#C82127"/>
<path d="M157.686 44.5203C153.064 41.8059 147.376 41.755 142.162 41.6998C130.672 41.5811 119.118 42.8407 108.007 45.7884C105.31 46.5052 102.639 47.3152 100.01 48.2398C97.7823 49.0245 95.5669 49.9406 93.6796 51.3741C93.3175 46.0768 95.0599 40.7328 98.0634 36.3813C101.374 31.5887 106.358 28.0091 111.735 25.8376C117.733 23.4116 124.473 22.3979 130.902 23.3395C136.968 24.2302 142.822 26.7325 147.564 30.6175C152.046 34.2904 155.594 39.1212 157.686 44.5203Z" fill="#9FAAB5"/>
<path d="M226.435 168.589C226.294 170.328 225.847 172.373 224.807 173.81C223.785 175.227 221.829 174.57 220.402 174.285C218.323 173.87 216.24 173.454 214.157 173.038C214.033 173.017 213.914 173.013 213.794 173.021C212.959 172.356 212.056 171.775 211.102 171.3C207.988 169.76 204.345 169.404 201.001 170.337C200.2 170.256 199.054 169.997 198.121 169.781C197.674 169.679 197.226 169.569 196.779 169.455C196.276 169.323 195.671 169.2 195.326 168.776C194.657 167.949 194.964 166.532 195.134 165.591C195.399 164.14 195.692 162.588 196.272 161.227C196.711 160.183 197.801 160.255 198.785 160.391C200.349 160.612 201.904 160.925 203.459 161.197C206.722 161.769 209.981 162.363 213.236 162.978C216.819 163.657 220.398 164.357 223.972 165.086C224.143 165.251 224.381 165.358 224.692 165.349C226.333 165.307 226.528 167.406 226.435 168.589Z" fill="#6B8396"/>
<path d="M228.109 147.078C227.449 149.563 226.784 152.044 226.077 154.517C225.297 157.236 224.471 159.941 223.491 162.597C223.465 162.669 223.448 162.745 223.444 162.821C219.87 162.1 216.291 161.405 212.708 160.73C214.08 152.413 215.311 144.071 216.41 135.711C216.487 135.143 215.869 134.651 215.345 134.651C214.71 134.651 214.357 135.143 214.28 135.711C213.198 143.944 211.979 152.155 210.625 160.344C208.149 159.891 205.674 159.441 203.195 159.004C201.891 158.779 200.562 158.47 199.233 158.309C198.802 153.198 198.585 148.07 198.606 142.943C198.611 141.874 198.589 140.852 199.314 139.991C200.051 139.104 201.052 138.404 201.951 137.7C203.834 136.224 205.806 134.863 207.838 133.599C210.067 132.212 212.371 130.957 214.74 129.824C214.796 129.82 214.847 129.812 214.902 129.799C215.089 129.748 215.268 129.646 215.405 129.506C215.435 129.477 215.456 129.455 215.473 129.434C215.758 129.32 216.044 129.201 216.329 129.086C216.338 129.082 216.346 129.078 216.355 129.074C220.236 132.42 223.772 136.178 226.814 140.296C227.521 141.255 228.424 142.285 228.722 143.46C229.012 144.609 228.403 145.971 228.109 147.078Z" fill="#CCCDCE"/>
<path d="M186.452 189.834C184.185 191.076 181.855 192.188 179.469 193.184C171.183 196.649 162.253 198.537 153.273 198.766C151.901 198.8 151.905 196.679 153.273 196.645C155.765 196.582 158.257 196.395 160.728 196.068C169.351 194.94 177.757 192.175 185.378 188.006C186.58 187.344 187.653 189.176 186.452 189.834Z" fill="#231F20"/>
<path d="M151.901 141.305C151.858 143.418 151.424 145.5 150.678 147.476C150.031 149.19 149.098 150.861 147.542 151.909C144.56 153.91 140.279 153.669 137.795 150.963C136.308 149.338 136.082 147.031 135.989 144.932C135.878 142.345 136.078 139.753 136.589 137.217C136.598 137.187 136.598 137.162 136.602 137.132C136.611 137.098 136.615 137.056 136.619 137.018C136.619 137.018 136.623 137.009 136.628 137.005V137.035C136.628 137.035 136.632 137.013 136.632 137.001C136.7 136.928 136.789 136.839 136.802 136.827C137.105 136.589 137.484 136.411 137.842 136.271C138.698 135.928 139.589 135.783 140.5 135.711C141.599 135.626 142.699 135.58 143.781 135.368C144.863 135.156 145.907 134.795 146.984 134.57C148.603 134.231 150.269 134.443 151.091 135.983C151.424 136.606 151.573 137.391 151.696 138.137C151.867 139.181 151.926 140.245 151.901 141.305Z" fill="#FAB496"/>
<path d="M124.46 132.857C124.46 135.711 122.364 138.027 119.774 138.027C117.184 138.027 115.096 135.711 115.096 132.857C115.096 130.003 117.192 127.683 119.774 127.683C122.356 127.683 124.46 129.998 124.46 132.857Z" fill="#231F20"/>
<path d="M146.043 95.4406C145.655 96.1107 146.452 96.8359 146.784 97.3873C147.257 98.1677 147.607 99.0456 147.807 99.9321C148.22 101.764 148.084 103.703 147.355 105.437C145.945 108.8 142.392 111.01 138.737 110.857C137.369 110.802 137.365 108.682 138.737 108.737C142.192 108.881 145.361 106.425 145.851 102.973C146.06 101.514 145.792 99.9575 145.072 98.6724C144.654 97.9344 144.049 97.2728 143.857 96.4246C143.644 95.4576 143.994 94.6856 144.509 93.8883C146.269 91.1697 146.627 87.6452 144.888 84.8248C143.197 82.0722 139.985 81.0034 136.875 81.5929C133.433 82.2461 130.668 84.5236 128.337 87.0048C127.4 88.0057 125.896 86.5 126.833 85.5034C129.841 82.3055 133.616 79.519 138.174 79.3239C141.966 79.1627 145.545 81.1349 147.185 84.5915C147.99 86.288 148.322 88.1711 148.101 90.0457C147.986 91.0254 147.768 91.9797 147.398 92.8958C147.031 93.8119 146.529 94.5923 146.043 95.4406Z" fill="#DAAF67"/>
<path d="M164.929 132.857C167.515 132.857 169.611 130.54 169.611 127.683C169.611 124.825 167.515 122.508 164.929 122.508C162.343 122.508 160.247 124.825 160.247 127.683C160.247 130.54 162.343 132.857 164.929 132.857Z" fill="#231F20"/>
<path d="M105.566 136.831C103.977 136.386 102.498 135.834 100.828 135.961C99.8741 136.038 98.89 135.889 97.9442 135.991C97.4074 136.046 96.8791 136.19 96.338 136.263C95.3028 136.407 94.0843 137.073 93.1812 137.586C92.2013 138.146 91.4941 139.138 90.8593 140.037C90.5142 140.529 90.1223 140.915 89.8837 141.471C89.6877 141.92 89.5386 142.434 89.3767 142.9C88.9422 144.143 88.7931 145.093 88.776 146.403C88.7462 148.541 89.4875 150.666 90.4844 152.549C91.6091 154.678 93.4325 156.493 95.7586 157.269C97.7226 157.923 99.7804 158.109 101.834 157.757C102.281 157.681 102.699 157.757 103.142 157.723C103.806 157.681 104.322 157.359 104.876 157.028C105.353 156.739 105.89 156.646 106.375 156.366C106.895 156.069 107.389 155.603 107.866 155.238C108.791 154.53 109.903 153.766 110.299 152.668C110.486 152.142 110.717 151.743 110.998 151.26C111.445 150.479 111.411 149.868 111.581 149.041C112.046 146.789 112.169 143.714 111.1 141.607C110.806 141.03 110.397 140.071 109.852 139.685C109.383 139.354 108.974 139.308 108.578 138.812C107.841 137.891 106.852 137.119 105.562 137.081" fill="#F4DBB1"/>
<path d="M98.1827 146.128C98.123 145.53 97.7141 145.017 97.0665 145.017C96.5084 145.017 95.8906 145.526 95.9503 146.128C96.044 147.04 96.1335 147.956 96.2272 148.868C96.2869 149.466 96.6958 149.979 97.3434 149.979C97.9015 149.979 98.5193 149.47 98.4596 148.868C98.3659 147.956 98.2764 147.04 98.1827 146.128Z" fill="#231F20"/>
<path d="M103.879 147.536C103.862 147.281 103.828 147.031 103.789 146.781C103.704 146.234 103.576 145.691 103.478 145.144C103.372 144.55 102.647 144.219 102.102 144.368C101.476 144.537 101.216 145.144 101.323 145.738C101.433 146.357 101.608 146.976 101.642 147.604C101.676 148.214 101.732 148.804 102.221 149.241C103.287 150.195 104.871 148.626 103.802 147.667C103.985 147.833 103.896 147.841 103.879 147.532V147.536Z" fill="#231F20"/>
<path d="M188.561 132.649C186.972 132.204 185.493 131.652 183.823 131.78C182.869 131.856 181.885 131.707 180.939 131.809C180.402 131.864 179.874 132.009 179.333 132.081C178.298 132.225 177.079 132.891 176.176 133.404C175.196 133.964 174.489 134.956 173.854 135.855C173.509 136.347 173.117 136.733 172.879 137.289C172.683 137.739 172.533 138.252 172.372 138.718C171.937 139.961 171.788 140.911 171.771 142.222C171.741 144.359 172.482 146.484 173.479 148.367C174.604 150.496 176.427 152.311 178.754 153.088C180.718 153.741 182.775 153.927 184.829 153.575C185.276 153.499 185.694 153.575 186.137 153.541C186.801 153.499 187.317 153.177 187.871 152.846C188.348 152.557 188.884 152.464 189.37 152.184C189.89 151.887 190.384 151.421 190.861 151.056C191.786 150.348 192.898 149.584 193.294 148.486C193.481 147.96 193.711 147.561 193.993 147.078C194.44 146.297 194.406 145.687 194.576 144.86C195.041 142.607 195.164 139.533 194.095 137.425C193.801 136.848 193.392 135.889 192.847 135.503C192.378 135.173 191.969 135.126 191.573 134.63C190.836 133.709 189.847 132.937 188.556 132.899" fill="#F4DBB1"/>
<path d="M181.178 141.946C181.118 141.348 180.709 140.835 180.061 140.835C179.503 140.835 178.886 141.344 178.945 141.946C179.039 142.858 179.128 143.774 179.222 144.686C179.282 145.284 179.691 145.797 180.338 145.797C180.896 145.797 181.514 145.288 181.454 144.686C181.361 143.774 181.271 142.858 181.178 141.946Z" fill="#231F20"/>
<path d="M186.874 143.354C186.857 143.099 186.822 142.849 186.784 142.599C186.699 142.052 186.571 141.509 186.473 140.962C186.367 140.368 185.642 140.037 185.097 140.186C184.471 140.355 184.211 140.962 184.317 141.556C184.428 142.175 184.603 142.794 184.637 143.422C184.671 144.033 184.726 144.622 185.216 145.059C186.281 146.013 187.866 144.444 186.797 143.485C186.98 143.651 186.891 143.659 186.874 143.35V143.354Z" fill="#231F20"/>
<path d="M215.196 135.088C214.94 135.224 214.689 135.342 214.472 135.516C214.046 135.86 213.649 136.441 213.321 136.89C212.857 137.522 212.444 138.32 212.265 139.079C212.158 139.545 211.988 139.995 211.877 140.462C211.728 141.081 211.617 141.704 211.455 142.323C211.272 143.023 211.213 143.744 211.012 144.44C210.812 145.135 210.625 145.767 210.527 146.454C210.429 147.141 210.395 147.812 210.305 148.486C210.216 149.16 210.02 149.771 210.003 150.433C209.977 151.688 209.628 152.897 209.432 154.14C209.283 155.085 209.151 156.035 209.001 156.981C208.938 157.38 208.938 157.719 208.912 158.114C208.895 158.406 208.797 158.678 208.78 158.97C208.754 159.462 208.759 159.746 209.087 160.115C209.219 160.26 209.372 160.561 209.564 160.646C209.632 160.675 209.747 160.667 209.815 160.675C210.092 160.718 210.331 160.811 210.591 160.909C211.008 161.065 211.379 161.074 211.762 160.828C212.069 160.629 211.975 160.328 212.077 160.005C212.32 159.25 212.316 158.47 212.444 157.689C212.661 156.383 212.768 155.064 212.857 153.741C213.015 151.362 213.219 148.995 213.466 146.624C213.53 145.996 213.573 145.369 213.654 144.737C213.735 144.105 213.888 143.481 213.99 142.849C214.084 142.26 214.144 141.675 214.276 141.089C214.399 140.551 214.433 139.978 214.582 139.448C214.697 139.041 214.911 138.706 214.945 138.273C214.979 137.802 215.106 137.357 215.222 136.903C215.337 136.449 215.52 135.915 215.409 135.444C215.183 135.55 215.038 135.711 215.204 135.092L215.196 135.088Z" fill="#748491"/>
<path opacity="0.8" d="M216.517 128.45C216.934 128.874 217.386 129.286 217.786 129.723C218.114 130.079 218.285 130.486 218.549 130.885C219 131.576 219.674 132.098 220.036 132.848C220.266 133.328 220.372 133.803 220.67 134.256C220.969 134.71 221.267 135.079 221.488 135.55C221.71 136.021 221.834 136.449 222.136 136.865C222.417 137.251 222.609 137.594 222.767 138.057C223.061 138.935 223.38 139.876 223.563 140.784C223.729 141.602 223.691 142.463 223.896 143.273C224.164 144.329 224.228 145.407 224.334 146.488C224.373 146.857 224.347 147.158 224.279 147.519C224.151 148.18 224.087 148.753 224.087 149.44C224.087 150.466 224.028 151.506 223.913 152.528C223.84 153.155 223.785 153.732 223.568 154.33C223.231 155.268 223.035 156.201 222.839 157.176C222.788 157.431 222.732 157.681 222.677 157.935C222.545 158.546 222.583 159.161 222.426 159.759C222.153 160.794 221.868 161.867 221.697 162.923C221.672 163.08 221.591 163.33 221.684 163.479C221.719 163.534 221.846 163.538 221.897 163.58C222.379 163.958 223.005 163.894 223.555 164.119C223.802 164.221 223.964 164.28 224.211 164.123C224.458 163.966 224.475 163.674 224.539 163.385C224.837 162.028 225.412 160.739 225.753 159.386C225.868 158.932 226.056 158.499 226.192 158.05C226.311 157.66 226.362 157.261 226.477 156.871C226.695 156.141 227.087 155.416 227.227 154.674C227.295 154.318 227.355 153.961 227.44 153.609C227.555 153.147 227.819 152.757 227.922 152.299C228.028 151.807 228.092 151.433 228.292 150.963C228.492 150.492 228.633 150.059 228.727 149.58C228.791 149.258 228.863 148.931 228.948 148.613C229.038 148.27 229.2 147.977 229.298 147.642C229.498 146.963 229.545 146.238 229.736 145.547C229.945 144.809 230.295 143.71 230.073 142.93C230.009 142.709 229.83 142.497 229.758 142.264C229.685 142.031 229.643 141.742 229.506 141.53C229.357 141.297 229.102 141.208 228.918 141.004C228.782 140.852 228.659 140.648 228.556 140.47C228.262 139.961 227.832 139.609 227.572 139.075C227.287 138.498 226.81 137.997 226.443 137.471C226.213 137.141 225.919 136.907 225.647 136.619C225.31 136.263 225.123 135.805 224.82 135.423C224.684 135.249 224.526 135.075 224.343 134.944C223.921 134.634 223.602 134.422 223.278 133.994C223.086 133.739 222.899 133.612 222.63 133.438C222.179 133.141 221.94 132.793 221.625 132.365C221.463 132.144 221.318 131.949 221.092 131.784C220.632 131.445 220.483 131.02 220.151 130.571C219.853 130.164 219.38 130.036 219.043 129.68C218.877 129.506 218.826 129.383 218.6 129.273C218.476 129.239 218.353 129.205 218.229 129.167C218.119 129.116 218.029 129.04 217.961 128.942C217.552 128.679 217.126 128.467 216.512 128.454L216.517 128.45Z" fill="white"/>
<path d="M103.529 29.3196C103.397 28.8743 103.082 29.8201 102.818 30.117C102.055 30.9695 101.54 31.7711 100.96 32.7338C100.262 33.8917 99.4523 34.8841 98.9709 36.1692C98.0592 38.5995 97.122 41.0891 96.7726 43.672C96.5255 45.483 96.534 47.5018 96.9899 49.2832C97.2711 50.3816 97.744 50.5513 97.3733 51.4462C97.0879 52.1333 96.1847 52.7864 95.8481 53.5159C95.1963 54.9367 95.0429 56.5866 95.3838 58.1049C95.6564 59.3222 96.1421 60.7175 96.9771 61.6464C97.5097 62.2359 98.3063 62.6134 98.8133 63.1902C93.9907 68.0252 87.7791 60.0389 91.5836 55.1742C92.5592 53.9231 92.6146 53.9061 92.4058 52.4641C92.1971 51.0221 92.2993 49.4486 92.4442 47.9472C92.7978 44.2234 93.8799 40.7964 95.7288 37.5434C97.5778 34.2904 101.016 32.0807 103.529 29.3281V29.3196Z" fill="#748491"/>
<path opacity="0.8" d="M159.309 46.3908C160.187 46.7301 161.154 48.4605 161.593 49.3258C162.194 50.5006 162.632 51.8663 162.735 53.181C162.909 55.395 161.678 57.5623 159.689 58.3342C157.699 59.1061 157.938 58.0924 158.163 56.6546C158.491 54.551 158.287 52.1971 157.635 50.1782C157.171 48.732 156.425 47.2984 155.386 46.183C154.576 45.3135 153.584 44.6816 153.119 43.5958C152.732 42.6882 152.548 41.6194 152.173 40.6736C151.317 38.5064 150.043 36.4451 148.697 34.545C147.027 32.1911 144.965 30.1384 142.767 28.2765C141.467 27.178 140.134 26.1771 138.694 25.261C138.051 24.8538 137.437 24.4042 136.772 24.0268C136.253 23.7299 135.473 23.6535 135.021 23.3057C141.224 23.1912 147.312 27.9414 151.113 32.4583C153.17 34.9055 154.989 37.4036 156.723 40.0799C157.929 41.9418 159.48 44.0497 159.305 46.3908H159.309Z" fill="white"/>
<path d="M230.073 147.981C230.422 146.671 230.968 145.267 230.917 143.897C230.866 142.51 230.158 141.327 229.374 140.22C227.798 138.001 226.09 135.872 224.271 133.845C225.302 126.469 225.029 118.975 223.495 111.68C221.957 104.351 219.15 97.2643 215.23 90.8728C213.462 87.9887 211.46 85.2489 209.253 82.6829C212.806 78.0133 214.808 72.3258 215.004 66.4559C215.209 60.3358 213.398 54.1394 209.734 49.1983C206.1 44.2997 200.98 40.7583 195.173 38.8794C189.413 37.0132 183.082 36.7927 177.177 38.0735C171.238 39.3629 166.049 42.7432 162.573 47.7096C162.377 47.9938 162.19 48.2822 162.002 48.5749C161.576 47.909 161.082 47.294 160.532 46.7257C160.575 46.5645 160.575 46.3779 160.511 46.1743C158.649 40.2069 155.224 34.7314 150.627 30.4732C146.069 26.2532 140.385 23.2504 134.327 21.8423C134.327 21.5751 134.229 21.3122 134.02 21.134C131.396 18.9074 128.721 16.7231 126.152 14.4286C124.989 13.3938 123.881 12.291 122.939 11.0484C122.023 9.84808 121.223 8.57147 120.375 7.3203C118.735 4.89855 116.847 2.4556 114.189 1.07295C111.373 -0.390276 108.16 -0.284244 105.285 0.958439C102.499 2.15871 100.322 4.39385 98.5918 6.81984C97.7313 8.02435 96.9474 9.26279 95.8951 10.3189C94.8044 11.4216 93.5689 12.3589 92.3803 13.3513C87.8985 17.1006 84.9376 22.3725 84.486 28.2296C84.0088 34.4303 86.7312 40.8516 91.6518 44.7153C91.7754 44.8129 91.9117 44.885 92.0523 44.9401C91.622 46.942 91.4303 48.9947 91.5325 51.056C91.5325 51.1111 91.5453 51.1663 91.5453 51.2172C89.6239 49.7115 87.2169 48.7488 84.9674 47.9514C81.8702 46.8529 78.6238 46.187 75.3477 45.9411C68.9828 45.4533 62.4518 46.6917 56.8367 49.7497C51.8692 52.4556 47.6174 56.5399 44.7928 61.4301C41.9427 66.3626 40.6433 72.0926 41.244 77.7631C41.849 83.4718 44.1793 88.9939 48.1457 93.2012C48.2735 93.3412 48.4098 93.4726 48.5419 93.6041C44.2177 98.6215 40.8137 104.351 38.3087 110.476C35.3648 117.669 33.7672 125.354 33.2645 133.09C32.9961 137.166 33.0387 141.263 33.3497 145.335C33.6649 149.432 34.189 153.554 35.1816 157.549C36.9667 164.747 40.5155 171.448 45.1677 177.212C49.4323 182.492 54.7193 186.984 60.6326 190.334C61.3185 190.72 62.0129 191.093 62.7116 191.45C62.7968 191.581 62.9161 191.704 63.0865 191.797C64.7566 192.747 66.5587 193.43 68.348 194.117C70.1629 194.809 71.9906 195.47 73.8267 196.098C77.2733 197.277 80.7625 198.333 84.2772 199.279C80.1916 208.292 76.302 217.389 72.6296 226.571C68.8337 236.076 65.2593 245.665 61.9192 255.335C60.2662 260.128 58.6686 264.942 57.1264 269.768C55.631 274.463 53.8587 279.315 53.9525 284.307C54.0334 288.599 55.6055 292.879 59.1159 295.538C60.8584 296.861 62.9161 297.705 64.9994 298.337C67.0657 298.961 69.1958 299.432 71.3302 299.728C75.4883 300.301 80.0638 300.14 83.6126 297.633C85.4318 296.348 86.7866 294.614 88.2436 292.955C89.7304 291.271 91.409 289.868 93.3432 288.718C97.399 286.313 102.017 284.842 106.461 283.328C111.224 281.703 116.046 280.236 120.899 278.9C130.71 276.19 140.658 273.997 150.644 272.02C155.641 271.032 160.652 270.095 165.662 269.175C170.587 268.267 175.584 267.537 180.428 266.248C184.79 265.082 189.017 263.317 192.514 260.416C195.969 257.549 198.163 253.728 199.02 249.338C199.463 247.044 199.714 244.66 199.757 242.323C199.799 240.194 199.527 237.921 198.304 236.11C196.225 233.031 192.391 232.255 188.893 232.679C187.619 232.836 186.371 233.116 185.153 233.501C185.336 231.495 185.515 229.489 185.698 227.479C185.8 226.355 185.907 225.235 186.009 224.111C186.056 223.581 186.064 223.038 186.154 222.517C186.205 222.22 186.294 221.995 186.537 221.817C187.389 221.202 188.386 220.731 189.302 220.218C190.269 219.675 191.24 219.145 192.216 218.615C194.133 217.567 196.055 216.537 197.955 215.463C204.903 211.54 211.805 206.883 216.193 200.072C220.291 193.71 221.855 185.312 218.204 178.399C217.697 177.432 217.088 176.508 216.398 175.642C217.407 175.846 218.417 176.045 219.427 176.249C221.131 176.588 223.052 177.165 224.739 176.482C226.482 175.782 227.321 173.916 227.858 172.245C228.412 170.523 228.778 168.555 228.493 166.757C228.237 165.154 227.078 163.648 225.476 163.305C225.502 163.258 225.527 163.207 225.544 163.156C227.376 158.202 228.718 153.079 230.073 147.981ZM147.564 30.6174C152.046 34.2904 155.595 39.1211 157.686 44.5202C153.064 41.8058 147.376 41.7549 142.162 41.6998C130.672 41.5811 119.118 42.8407 108.007 45.7884C105.31 46.5051 102.639 47.3152 100.011 48.2398C97.7824 49.0244 95.567 49.9405 93.6797 51.3741C93.3176 46.0768 95.06 40.7328 98.0636 36.3813C101.374 31.5887 106.358 28.0091 111.735 25.8376C117.733 23.4116 124.473 22.3979 130.902 23.3395C136.969 24.2301 142.822 26.7325 147.564 30.6174ZM86.565 29.9219C86.4841 24.6755 88.8059 19.5351 92.6317 15.9555C93.6712 14.98 94.8087 14.1148 95.8993 13.1944C97.0667 12.202 98.1104 11.1332 99.0221 9.89898C99.8401 8.79201 100.564 7.61295 101.463 6.56112C102.345 5.52626 103.338 4.56349 104.48 3.80855C106.772 2.29019 109.639 1.5819 112.297 2.54042C114.734 3.4226 116.558 5.56019 118.002 7.61295C118.943 8.95318 119.8 10.3443 120.762 11.6676C121.789 13.0799 122.931 14.365 124.218 15.5441C126.352 17.4993 128.589 19.3485 130.812 21.2061C125.449 20.5106 119.936 21.0153 114.755 22.5506C114.167 22.2071 113.597 21.8381 113.056 21.4352L112.894 21.3122C112.83 21.2613 112.77 21.2146 112.71 21.168C112.557 21.0407 112.404 20.9135 112.255 20.7862C111.965 20.536 111.688 20.2815 111.415 20.0143C110.87 19.4842 110.367 18.9201 109.89 18.3263C109.882 18.3178 109.877 18.3094 109.873 18.3051C109.873 18.3051 109.865 18.2966 109.822 18.2415C109.758 18.1524 109.694 18.0676 109.63 17.9785C109.524 17.8343 109.417 17.6859 109.315 17.5375C109.089 17.2109 108.876 16.8758 108.676 16.5323C108.391 16.0573 107.705 15.841 107.215 16.1548C106.733 16.4644 106.529 17.0921 106.836 17.6053C108.195 19.8786 110.026 21.8593 112.182 23.4031C107.7 25.0614 103.457 27.5383 100.015 30.855C99.7932 30.7235 99.576 30.592 99.3629 30.4436C99.2437 30.363 99.1286 30.2781 99.0136 30.1891C98.9966 30.1764 98.9753 30.1636 98.954 30.1467C98.8943 30.1 98.8347 30.0491 98.775 30.0025C98.2723 29.5826 97.7994 29.1203 97.3734 28.6241C97.2711 28.5095 97.1774 28.3908 97.0794 28.272C97.0752 28.2678 97.0752 28.2636 97.0709 28.2593C97.0667 28.2551 97.0581 28.2466 97.0496 28.2339C96.9942 28.1575 96.9431 28.0854 96.8877 28.0133C96.7003 27.7504 96.5256 27.4832 96.3637 27.2075C96.0058 26.6095 95.6863 25.969 95.1495 25.5025C94.7277 25.1378 94.0504 25.0614 93.6414 25.5025C93.275 25.9012 93.194 26.6137 93.6414 27.0039C93.7095 27.0633 93.7734 27.1184 93.8373 27.1863C93.8459 27.1948 93.8885 27.2457 93.9226 27.2838C93.9481 27.322 93.9907 27.3771 93.995 27.3899C94.0461 27.462 94.093 27.5383 94.1398 27.6146C94.3102 27.8988 94.4679 28.1915 94.6425 28.4756C95.0217 29.0821 95.4563 29.6547 95.9249 30.1933C96.6747 31.0458 97.5566 31.7923 98.5109 32.4157C98.1956 32.7678 97.8846 33.1283 97.5864 33.4972C95.3753 36.2371 93.6542 39.4011 92.6146 42.7644C88.8869 39.5749 86.6417 34.829 86.565 29.9219ZM92.5337 55.8189C93.6542 53.8001 95.5542 52.4598 97.5992 51.4801C99.9253 50.3647 102.447 49.6182 104.91 48.876C115.258 45.7417 126.037 44.1597 136.841 43.8628C139.55 43.7907 142.26 43.795 144.969 43.8756C147.662 43.9561 150.371 44.1173 152.979 44.8383C157.103 45.9835 161.299 48.9735 161.474 53.6135C161.512 54.5974 161.355 55.5814 160.946 56.4848C159.22 57.965 156.77 57.2864 154.76 56.8835C152.016 56.3363 149.272 55.7935 146.49 55.4669C140.999 54.8222 135.358 55.1276 129.867 55.6068C118.935 56.5569 108.246 58.9489 97.8974 62.5455C96.8707 62.9018 95.7673 63.2835 94.6766 62.9781C93.8459 62.7406 93.1301 62.1723 92.6274 61.481C91.3792 59.7717 91.541 57.6045 92.5337 55.8189ZM216.402 179.536C219.712 185.885 217.948 193.579 214.157 199.3C209.977 205.611 203.459 209.916 196.966 213.58C193.345 215.629 189.634 217.533 186.043 219.637C185.216 220.116 184.501 220.651 184.194 221.588C183.879 222.568 183.913 223.725 183.819 224.743C183.623 226.885 183.427 229.023 183.235 231.165C183.133 232.255 183.035 233.34 182.937 234.43C182.929 234.494 182.933 234.562 182.946 234.621C182.831 234.833 182.792 235.083 182.865 235.355C182.997 235.86 183.64 236.313 184.173 236.097C187.159 234.888 190.955 233.981 194.065 235.274C197.972 236.899 197.772 241.416 197.469 244.944C197.094 249.283 196.127 253.524 193.149 256.858C190.388 259.95 186.673 261.998 182.78 263.322C178.225 264.874 173.437 265.603 168.721 266.464C163.885 267.347 159.054 268.237 154.231 269.166C144.633 271.011 135.06 273.021 125.594 275.452C116.234 277.856 106.853 280.588 97.8804 284.206C93.8544 285.83 89.9946 287.849 87.0507 291.106C85.6491 292.658 84.3965 294.414 82.7095 295.678C81.1331 296.857 79.2245 297.523 77.2818 297.769C73.2431 298.278 68.953 297.375 65.1187 296.153C63.1675 295.53 61.2248 294.669 59.6996 293.282C58.2128 291.933 57.2201 290.173 56.6663 288.26C55.4052 283.9 56.4149 279.366 57.6802 275.134C59.0861 270.422 60.6411 265.748 62.2089 261.091C65.3488 251.735 68.7059 242.455 72.2717 233.255C75.8248 224.099 79.5867 215.027 83.5615 206.044C84.5414 203.83 85.534 201.62 86.5352 199.415C86.744 198.965 86.7014 198.452 86.352 198.117C86.2668 197.82 86.041 197.561 85.6405 197.455C81.9213 196.471 78.2319 195.36 74.5851 194.122C72.7787 193.507 70.9851 192.858 69.2043 192.179C67.5513 191.551 65.8983 190.924 64.3518 190.071C64.2624 189.927 64.1346 189.795 63.9386 189.694C58.0381 186.708 52.7553 182.628 48.363 177.699C43.7363 172.508 40.0895 166.337 37.9977 159.704C36.8048 155.921 36.1487 151.993 35.7312 148.057C35.3137 144.13 35.1433 140.173 35.2498 136.224C35.4543 128.565 36.7451 120.935 39.3354 113.712C41.6828 107.176 45.1081 100.967 49.5899 95.6357C49.7944 95.3897 50.0032 95.1479 50.2162 94.9062C50.9617 94.9953 51.6775 94.2318 51.4176 93.5405C52.0311 92.6117 50.8595 91.4114 49.9819 92.0306C46.6546 88.6122 44.5031 84.214 43.634 79.5232C42.6755 74.3616 43.4125 68.9583 45.7131 64.2335C48.0179 59.5003 51.686 55.4626 56.138 52.6295C61.0927 49.474 66.9123 47.9387 72.7787 47.9599C75.8461 47.9684 78.8965 48.3882 81.8531 49.1983C84.7075 49.9787 87.792 51.039 90.1735 52.8373C90.5697 53.1384 90.9361 53.4735 91.2727 53.834C90.3226 55.187 89.6963 56.7562 89.6026 58.4103C89.4663 60.7515 90.6719 63.1096 92.6615 64.3735C93.6414 64.9969 94.8215 65.2938 95.9803 65.1878C97.3989 65.0606 98.7239 64.4922 100.057 64.0342C102.758 63.1138 105.489 62.2826 108.246 61.5446C113.797 60.0559 119.454 58.9362 125.155 58.2279C130.842 57.5196 136.628 57.104 142.358 57.2864C145.319 57.3797 148.229 57.7826 151.134 58.3297C152.634 58.6096 154.125 58.9193 155.624 59.2161C156.877 59.4621 158.112 59.6106 159.386 59.4197C160.524 59.2501 161.555 58.7666 162.415 58.0201C162.518 57.9565 162.603 57.8717 162.667 57.7741C162.782 57.6384 162.85 57.4942 162.88 57.35C163.77 55.2887 163.817 52.9688 163.101 50.8439C163.131 50.8058 163.157 50.7718 163.182 50.7294C165.968 45.8689 170.357 42.2639 175.75 40.6353C181.101 39.0193 187.061 38.9812 192.472 40.3172C197.912 41.6574 202.905 44.499 206.62 48.7021C210.399 52.9815 212.58 58.5036 212.857 64.1869C213.134 69.8871 211.588 75.6043 208.354 80.3333C208.184 80.5835 208.005 80.8295 207.826 81.0713C207.745 80.9822 207.664 80.8931 207.583 80.8041C206.65 79.8031 205.146 81.3045 206.075 82.3055C206.33 82.5769 206.582 82.8568 206.829 83.1325C206.876 83.2767 206.957 83.4124 207.076 83.5312C207.153 83.6075 207.242 83.6627 207.34 83.7136C211.681 88.6843 215.209 94.3633 217.765 100.437C220.564 107.096 222.255 114.238 222.669 121.448C222.869 124.909 222.788 128.395 222.4 131.847C220.858 130.261 219.243 128.747 217.561 127.314C217.237 127.038 216.798 126.936 216.419 127.076C216.389 127.063 216.359 127.051 216.329 127.038C216.142 126.991 215.95 126.991 215.763 127.038C215.328 127.216 214.894 127.394 214.459 127.572C214.34 127.623 214.212 127.661 214.097 127.729C214.025 127.772 213.965 127.822 213.901 127.878C209.291 130.062 204.937 132.738 200.899 135.847C198.994 137.314 196.847 138.769 196.54 141.335C196.383 142.65 196.468 144.02 196.481 145.347C196.493 146.738 196.528 148.134 196.574 149.525C196.672 152.443 196.851 155.357 197.098 158.266C195.974 158.44 194.973 159.013 194.449 160.111C193.729 161.621 193.379 163.39 193.081 165.027C192.813 166.494 192.6 168.055 193.26 169.454C193.971 170.96 195.595 171.359 197.081 171.715C197.248 171.757 197.414 171.796 197.576 171.834C195.181 173.297 193.23 175.515 192.54 178.268C192.101 180.015 192.289 181.89 193.009 183.527C191.586 184.638 190.163 185.749 188.74 186.861C188.539 187.013 188.429 187.369 188.429 187.607C188.429 187.87 188.544 188.18 188.74 188.358C188.944 188.544 189.208 188.68 189.494 188.667C189.792 188.655 190.009 188.54 190.248 188.358C191.534 187.353 192.821 186.352 194.108 185.346C194.593 185.949 195.177 186.47 195.846 186.899C195.007 188.294 194.938 190.105 195.761 191.551C196.033 192.035 196.736 192.238 197.218 191.929C197.708 191.615 197.891 190.996 197.597 190.478C197.554 190.402 197.516 190.326 197.478 190.245C197.473 190.237 197.473 190.232 197.469 190.22C197.405 190.05 197.358 189.876 197.324 189.702C197.324 189.685 197.324 189.664 197.316 189.647C197.311 189.571 197.303 189.494 197.303 189.418C197.299 189.257 197.316 189.091 197.324 188.93C197.324 188.909 197.328 188.888 197.333 188.871C197.35 188.782 197.371 188.693 197.397 188.608C197.418 188.519 197.448 188.434 197.478 188.349C197.482 188.332 197.49 188.315 197.495 188.303C197.571 188.15 197.648 188.001 197.742 187.857C197.754 187.84 197.772 187.819 197.784 187.798C197.801 187.781 197.818 187.764 197.835 187.743C197.997 187.781 198.163 187.815 198.33 187.84C198.896 187.921 199.471 187.7 199.638 187.098C199.778 186.602 199.467 185.877 198.896 185.796C196.033 185.397 194.214 182.522 194.431 179.765C194.674 176.643 197.29 174.116 200.025 172.92C200.421 172.746 200.826 172.593 201.244 172.466C201.363 172.457 201.474 172.428 201.58 172.372C204.362 171.601 207.434 171.847 210.024 173.132C212.798 174.502 214.983 176.817 216.402 179.536ZM226.435 168.589C226.294 170.328 225.847 172.372 224.807 173.81C223.785 175.227 221.829 174.569 220.402 174.285C218.323 173.87 216.24 173.454 214.157 173.038C214.033 173.017 213.914 173.013 213.794 173.021C212.959 172.355 212.056 171.774 211.102 171.299C207.988 169.76 204.345 169.404 201.001 170.337C200.2 170.256 199.054 169.997 198.121 169.781C197.674 169.679 197.226 169.569 196.779 169.454C196.276 169.323 195.671 169.2 195.326 168.776C194.657 167.949 194.964 166.532 195.134 165.591C195.399 164.14 195.693 162.588 196.272 161.226C196.711 160.183 197.801 160.255 198.785 160.391C200.349 160.612 201.904 160.925 203.459 161.197C206.722 161.769 209.982 162.363 213.236 162.978C216.819 163.657 220.398 164.357 223.972 165.086C224.143 165.251 224.381 165.357 224.692 165.349C226.333 165.307 226.529 167.406 226.435 168.589ZM223.491 162.596C223.465 162.669 223.448 162.745 223.444 162.821C219.87 162.1 216.291 161.405 212.708 160.73C214.08 152.413 215.311 144.071 216.41 135.711C216.487 135.143 215.869 134.651 215.345 134.651C214.71 134.651 214.357 135.143 214.28 135.711C213.198 143.943 211.98 152.154 210.625 160.344C208.15 159.89 205.674 159.441 203.195 159.004C201.891 158.779 200.562 158.47 199.233 158.309C198.803 153.198 198.585 148.07 198.607 142.942C198.611 141.874 198.589 140.852 199.314 139.991C200.051 139.104 201.052 138.404 201.951 137.7C203.834 136.224 205.806 134.863 207.839 133.599C210.067 132.212 212.372 130.957 214.74 129.824C214.796 129.82 214.847 129.812 214.902 129.799C215.09 129.748 215.269 129.646 215.405 129.506C215.435 129.477 215.456 129.455 215.473 129.434C215.758 129.32 216.044 129.201 216.329 129.086C216.338 129.082 216.346 129.078 216.355 129.074C220.236 132.42 223.772 136.178 226.814 140.296C227.521 141.254 228.424 142.285 228.723 143.46C229.012 144.609 228.403 145.971 228.109 147.078C227.449 149.563 226.784 152.044 226.077 154.517C225.297 157.235 224.471 159.941 223.491 162.596Z" fill="#231F20"/>
<path d="M153.96 237.198C155.418 222.4 146.774 209.444 134.653 208.261C122.533 207.078 111.526 218.115 110.068 232.914C108.611 247.712 117.255 260.668 129.375 261.851C141.496 263.034 152.503 251.997 153.96 237.198Z" fill="#F4DBB1"/>
<path d="M59.8571 84.0615C63.5636 81.4744 66.9378 78.5691 70.7081 75.9989C74.1078 73.6832 78.4704 70.7101 81.5676 67.9915C87.8217 62.4948 74.6318 61.4642 70.968 62.1852C65.9834 63.1692 60.4664 66.2144 58.1189 70.8925C56.7471 73.6238 56.3254 76.7284 56.7386 79.6888C56.8877 80.7449 57.6588 85.3933 59.2905 84.2015" fill="#DAAF67"/>
<path d="M197.026 74.9597C193.319 72.3726 189.945 69.4673 186.175 66.8971C182.775 64.5814 178.413 61.6083 175.315 58.8896C169.061 53.393 182.251 52.3624 185.915 53.0834C190.9 54.0674 196.417 57.1126 198.764 61.7907C200.136 64.522 200.558 67.6266 200.144 70.587C199.995 71.6431 199.224 76.2915 197.592 75.0997" fill="#DAAF67"/>
<path d="M122.364 209.598C121.201 205.989 119.05 202.659 116.119 200.221C114.653 199.008 113.047 198.032 111.279 197.324C109.426 196.582 107.453 196.272 105.468 196.132C101.518 195.856 97.1176 196.365 93.6327 194.109C91.9115 192.998 90.5653 191.39 89.0273 190.054C87.5021 188.727 85.8875 187.484 84.1322 186.479C80.822 184.575 77.1027 183.684 73.294 184.197C72.2716 184.333 71.2661 184.553 70.2735 184.846C66.7417 185.618 63.4783 187.327 61.0116 189.982C58.4938 192.697 56.8322 196.124 55.7075 199.614C55.0344 201.692 54.5274 203.889 53.1556 205.649C52.0522 207.066 50.5739 208.139 49.0657 209.093C45.7214 211.205 42.1768 212.936 39.7186 216.142C37.2391 219.361 36.0207 223.463 35.9866 227.492C35.9483 231.78 37.3329 235.995 39.5312 239.651C44.2729 247.536 52.4441 252.54 60.6622 256.239C69.1999 260.086 78.4234 262.427 87.7194 263.5C88.695 263.614 89.6749 263.708 90.6547 263.788C90.8677 263.869 91.1063 263.869 91.3577 263.754C91.4471 263.72 91.5281 263.67 91.6048 263.61C98.7876 258.868 105.042 252.854 110.414 246.166C115.888 239.354 121.163 231.703 122.888 222.992C123.766 218.577 123.757 213.916 122.364 209.598ZM121.222 219.887C120.362 228.408 115.56 235.97 110.486 242.646C105.506 249.203 99.6951 255.242 93.0022 260.077C92.2438 260.624 91.4727 261.15 90.6931 261.668C81.8146 260.942 72.966 258.928 64.684 255.654C60.5898 254.033 56.5851 252.065 52.8616 249.72C49.2148 247.426 45.8151 244.652 43.178 241.229C40.69 238.002 38.8368 234.193 38.2744 230.138C37.7589 226.427 38.4065 222.479 40.2427 219.196C41.1586 217.563 42.3558 216.134 43.8128 214.95C45.2187 213.814 46.812 212.919 48.3628 211.998C49.9902 211.04 51.6091 210.052 53.0406 208.813C54.5785 207.49 55.7118 205.878 56.4829 204.012C57.3094 201.998 57.7866 199.869 58.613 197.854C59.2521 196.293 60.0402 194.783 60.9946 193.392C62.7754 190.792 65.2634 188.735 68.2413 187.641C69.0891 187.327 69.9582 187.085 70.8401 186.89C74.2782 185.872 77.8483 185.902 81.1628 187.344C82.8371 188.074 84.4006 189.07 85.8449 190.177C87.468 191.42 88.8824 192.87 90.3906 194.24C91.9286 195.632 93.6199 196.73 95.6265 197.324C97.5479 197.892 99.5758 198.024 101.565 198.096C103.529 198.168 105.515 198.147 107.457 198.469C109.234 198.762 110.917 199.347 112.476 200.246C115.492 201.989 117.852 204.708 119.373 207.812C121.193 211.536 121.631 215.807 121.222 219.887Z" fill="#231F20"/>
<path d="M119.374 207.812C117.853 204.708 115.492 201.989 112.476 200.246C110.917 199.347 109.234 198.762 107.458 198.469C105.515 198.147 103.53 198.168 101.566 198.096C99.576 198.024 97.5481 197.892 95.6267 197.324C93.6201 196.73 91.9288 195.632 90.3908 194.24C88.8827 192.87 87.4682 191.42 85.8451 190.177C84.4008 189.07 82.8373 188.074 81.163 187.344C77.8485 185.902 74.2784 185.872 70.8403 186.89C69.9584 187.085 69.0893 187.327 68.2415 187.641C65.2636 188.735 62.7756 190.792 60.9948 193.392C60.0405 194.783 59.2523 196.293 58.6133 197.854C57.7868 199.869 57.3096 201.998 56.4831 204.012C55.712 205.878 54.5788 207.49 53.0408 208.813C51.6093 210.052 49.9904 211.04 48.363 211.998C46.8122 212.919 45.2189 213.814 43.813 214.95C42.356 216.134 41.1588 217.563 40.2429 219.196C38.4067 222.479 37.7591 226.427 38.2746 230.138C38.837 234.193 40.6902 238.002 43.1782 241.229C45.8153 244.652 49.215 247.426 52.8619 249.72C56.5854 252.065 60.59 254.033 64.6842 255.654C72.9662 258.928 81.8148 260.942 90.6933 261.668C91.4729 261.15 92.244 260.624 93.0024 260.077C99.6953 255.242 105.506 249.203 110.487 242.646C115.561 235.97 120.362 228.408 121.223 219.887C121.632 215.807 121.193 211.536 119.374 207.812ZM114.317 223.734C112.906 230.69 108.68 236.801 104.301 242.247C100.015 247.57 95.0345 252.345 89.3215 256.124C89.2405 256.188 89.1596 256.239 89.0658 256.273C88.8145 256.387 88.5717 256.387 88.3629 256.307C84.3923 255.976 80.4473 255.331 76.5747 254.394C69.592 252.702 62.6563 250.038 56.6365 246.085C50.9447 242.345 45.9517 236.839 44.8397 229.926C44.2774 226.168 44.8908 222.207 46.9486 218.963C47.873 217.508 49.0489 216.295 50.4292 215.264C51.6945 214.323 53.0791 213.563 54.4254 212.749C55.729 211.965 57.0156 211.125 58.0381 209.984C59.2054 208.686 59.6783 207.032 60.1853 205.399C61.1055 202.434 62.4305 199.525 64.5393 197.205C66.5417 195 69.2171 193.579 72.1184 192.947C72.8938 192.718 73.6819 192.544 74.4829 192.434C77.5673 192.009 80.5751 192.692 83.2676 194.228C84.6735 195.025 85.9686 196.017 87.1871 197.069C88.4524 198.159 89.5515 199.487 90.9659 200.39C93.7096 202.133 97.1732 201.718 100.266 201.938C101.889 202.053 103.504 202.311 105.012 202.926C106.448 203.512 107.743 204.305 108.927 205.297C114.3 209.789 115.654 217.143 114.317 223.734Z" fill="#AAB5BF"/>
<path d="M108.927 205.297C107.743 204.305 106.448 203.512 105.012 202.926C103.504 202.311 101.889 202.053 100.266 201.938C97.173 201.718 93.7094 202.133 90.9658 200.39C89.5514 199.487 88.4522 198.159 87.1869 197.069C85.9684 196.017 84.6733 195.025 83.2674 194.228C80.5749 192.692 77.5671 192.009 74.4827 192.434C73.6817 192.544 72.8936 192.718 72.1182 192.947C69.217 193.579 66.5415 194.999 64.5392 197.205C62.4303 199.525 61.1054 202.434 60.1851 205.399C59.6782 207.032 59.2053 208.686 58.0379 209.984C57.0155 211.125 55.7289 211.964 54.4252 212.749C53.079 213.563 51.6944 214.323 50.4291 215.264C49.0487 216.295 47.8729 217.508 46.9484 218.963C44.8907 222.207 44.2772 226.168 44.8395 229.926C45.9515 236.839 50.9446 242.344 56.6363 246.085C62.6561 250.038 69.5919 252.702 76.5745 254.394C80.4471 255.331 84.3921 255.976 88.3627 256.307C88.5715 256.387 88.8143 256.387 89.0657 256.273C89.1594 256.239 89.2403 256.188 89.3213 256.124C95.0344 252.345 100.015 247.57 104.3 242.247C108.68 236.801 112.906 230.69 114.316 223.734C115.654 217.143 114.299 209.789 108.927 205.297ZM112.574 221.185C111.863 227.945 108.007 233.951 103.972 239.244C100.04 244.401 95.4433 249.16 90.1691 252.969C89.5897 253.384 88.9975 253.787 88.4011 254.186C81.5676 253.618 74.7681 252.091 68.3734 249.635C65.1782 248.409 62.0597 246.908 59.1286 245.144C56.2657 243.422 53.5987 241.365 51.4217 238.816C49.1169 236.118 47.4596 232.878 46.893 229.362C46.4457 226.389 46.9697 223.2 48.4608 220.574C49.2106 219.251 50.2075 218.097 51.4132 217.164C52.589 216.257 53.8969 215.536 55.1708 214.781C56.5042 213.983 57.8377 213.139 58.9709 212.07C60.2064 210.904 61.0372 209.496 61.6123 207.91C62.1875 206.328 62.5879 204.691 63.2738 203.143C63.8405 201.875 64.5136 200.64 65.3529 199.529C67.1763 197.124 69.7452 195.631 72.6848 194.991C75.3901 194.194 78.1849 194.206 80.7922 195.347C82.1129 195.928 83.3526 196.713 84.4901 197.591C85.764 198.571 86.8716 199.707 88.056 200.785C89.2915 201.904 90.6505 202.795 92.2609 203.287C93.8116 203.758 95.4646 203.868 97.0793 203.927C98.6258 203.987 100.202 203.961 101.732 204.216C103.12 204.445 104.437 204.886 105.66 205.581C108.058 206.951 109.928 209.102 111.138 211.566C112.587 214.526 112.919 217.94 112.574 221.185Z" fill="#231F20"/>
<path d="M111.138 211.566C109.928 209.102 108.058 206.951 105.66 205.582C104.437 204.886 103.12 204.445 101.732 204.216C100.202 203.961 98.6259 203.987 97.0794 203.927C95.4647 203.868 93.8117 203.758 92.261 203.287C90.6506 202.795 89.2915 201.904 88.0561 200.785C86.8717 199.707 85.764 198.571 84.4902 197.591C83.3527 196.713 82.1129 195.928 80.7923 195.347C78.185 194.206 75.3902 194.194 72.6849 194.991C69.7453 195.632 67.1763 197.124 65.3529 199.529C64.5137 200.64 63.8405 201.875 63.2739 203.143C62.588 204.691 62.1875 206.328 61.6124 207.91C61.0373 209.496 60.2065 210.904 58.971 212.071C57.8378 213.139 56.5043 213.983 55.1708 214.781C53.897 215.536 52.5891 216.257 51.4133 217.164C50.2076 218.097 49.2107 219.251 48.4609 220.574C46.9698 223.2 46.4458 226.389 46.8931 229.362C47.4597 232.878 49.117 236.118 51.4218 238.816C53.5988 241.365 56.2657 243.422 59.1287 245.144C62.0597 246.908 65.1783 248.41 68.3735 249.635C74.7682 252.091 81.5676 253.618 88.4011 254.186C88.9976 253.787 89.5898 253.385 90.1692 252.969C95.4434 249.16 100.04 244.402 103.973 239.244C108.007 233.951 111.863 227.946 112.574 221.185C112.919 217.94 112.587 214.526 111.138 211.566ZM91.6645 229.108C90.9658 229.731 90.199 230.282 89.5088 230.906C89.1382 231.237 88.8059 231.593 88.3884 231.839C88.3884 231.848 88.3884 231.86 88.3884 231.869C88.4054 232.717 88.465 233.561 88.4821 234.409C88.4991 235.241 88.6525 236.051 88.6014 236.878C88.5077 238.32 87.9922 239.605 86.778 240.432C85.7001 241.17 84.3581 241.492 83.0673 241.106C81.917 240.758 80.9669 239.664 80.2427 238.769C79.8124 238.231 79.4971 237.65 79.1478 237.06C78.9731 236.767 78.7601 236.509 78.5769 236.229C78.3554 235.894 78.2489 235.482 78.0231 235.156C77.2775 234.07 75.3178 234.295 74.1632 233.909C72.9704 233.506 71.5219 232.882 70.6996 231.894C69.9328 230.974 69.7666 229.417 70.0563 228.289C70.6442 226.012 73.1663 224.557 75.0749 223.374C75.0749 223.34 75.0579 223.31 75.0579 223.272C74.9684 222.101 74.8364 220.956 74.8747 219.781C74.9045 218.874 75.1005 218.042 75.2241 217.152C75.4456 215.565 76.0889 214.255 77.7547 213.848C79.3395 213.462 81.001 214.484 82.0576 215.608C83.4507 217.088 84.3326 218.967 85.6149 220.528C85.666 220.587 85.7044 220.651 85.7342 220.714C86.3775 220.646 87.0166 220.659 87.6641 220.795C88.6312 220.998 89.6792 221.087 90.5952 221.461C92.0011 222.038 93.1258 223.28 93.4155 224.79C93.7436 226.516 92.9256 227.975 91.6603 229.108H91.6645Z" fill="#6B8396"/>
<path d="M93.4197 224.79C93.13 223.28 92.0053 222.038 90.5994 221.461C89.6834 221.088 88.6354 220.998 87.6683 220.795C87.0207 220.659 86.3817 220.646 85.7384 220.714C85.7086 220.651 85.6702 220.587 85.6191 220.528C84.3368 218.967 83.4549 217.088 82.0618 215.608C81.0052 214.484 79.3437 213.462 77.7589 213.848C76.0931 214.255 75.4498 215.565 75.2283 217.152C75.1047 218.042 74.9087 218.874 74.8789 219.781C74.8406 220.956 74.9726 222.101 75.0621 223.272C75.0621 223.31 75.0749 223.34 75.0791 223.374C73.1705 224.557 70.6484 226.012 70.0605 228.289C69.7708 229.417 69.937 230.974 70.7038 231.894C71.5261 232.882 72.9746 233.506 74.1674 233.909C75.322 234.295 77.2817 234.07 78.0273 235.156C78.2531 235.482 78.3596 235.894 78.5811 236.229C78.7643 236.509 78.9773 236.767 79.152 237.06C79.5013 237.65 79.8166 238.231 80.2469 238.769C80.9711 239.664 81.9212 240.758 83.0715 241.106C84.3623 241.492 85.7043 241.17 86.7822 240.432C87.9964 239.605 88.5119 238.32 88.6056 236.878C88.6567 236.051 88.5033 235.241 88.4863 234.409C88.4692 233.561 88.4096 232.717 88.3926 231.869C88.3926 231.86 88.3926 231.848 88.3926 231.839C88.8101 231.593 89.1424 231.237 89.513 230.906C90.2032 230.283 90.97 229.731 91.6687 229.108C92.934 227.975 93.752 226.516 93.424 224.79H93.4197ZM89.807 228.404C89.3682 228.743 88.9166 229.065 88.5204 229.451C88.3414 229.625 87.8259 230.287 87.6172 230.363C87.2252 230.503 87.0463 230.834 87.0293 231.165C86.8248 231.292 86.6799 231.512 86.6884 231.835C86.7225 233.268 86.7907 234.698 86.91 236.127C87.0378 237.654 86.3774 239.249 84.7117 239.528C81.934 239.999 80.5025 235.809 79.365 234.002C78.7643 233.048 77.1624 232.73 76.1187 232.526C74.7128 232.25 73.2046 232.009 72.1523 230.902C71.0446 229.735 71.8285 228.107 72.7871 227.157C73.8309 226.122 75.0365 225.409 76.2678 224.633C76.6043 224.421 76.7066 224.09 76.6554 223.785C76.7364 223.662 76.779 223.501 76.7662 223.306C76.6469 221.732 76.37 220.095 76.6981 218.53C76.9451 217.351 76.8472 215.519 78.4576 215.442C79.7655 215.383 81.0436 216.944 81.7124 217.885C82.6199 219.162 83.408 220.502 84.4049 221.719C84.4816 221.809 84.5583 221.868 84.6435 221.915C84.7969 222.25 85.1377 222.504 85.5936 222.432C86.2582 222.322 86.8759 222.351 87.5277 222.508C88.1881 222.665 88.8825 222.712 89.5343 222.882C90.7229 223.2 91.6772 224.171 91.7795 225.414C91.886 226.699 90.74 227.678 89.807 228.404Z" fill="#231F20"/>
<path d="M89.807 228.404C89.3682 228.743 88.9166 229.065 88.5204 229.451C88.3415 229.625 87.826 230.287 87.6173 230.363C87.2253 230.503 87.0464 230.834 87.0293 231.165C86.8248 231.292 86.68 231.512 86.6885 231.835C86.7226 233.268 86.7908 234.698 86.91 236.127C87.0379 237.654 86.3775 239.248 84.7117 239.528C81.934 239.999 80.5026 235.809 79.3651 234.002C78.7644 233.048 77.1625 232.73 76.1187 232.526C74.7128 232.25 73.2047 232.009 72.1524 230.902C71.0447 229.735 71.8286 228.107 72.7872 227.157C73.8309 226.122 75.0366 225.409 76.2678 224.633C76.6044 224.421 76.7066 224.09 76.6555 223.785C76.7365 223.662 76.7791 223.501 76.7663 223.306C76.647 221.732 76.3701 220.095 76.6981 218.53C76.9452 217.351 76.8472 215.519 78.4576 215.442C79.7655 215.383 81.0436 216.944 81.7125 217.885C82.6199 219.162 83.4081 220.502 84.405 221.719C84.4817 221.808 84.5584 221.868 84.6436 221.914C84.7969 222.25 85.1378 222.504 85.5936 222.432C86.2582 222.322 86.876 222.351 87.5278 222.508C88.1881 222.665 88.8826 222.712 89.5344 222.881C90.723 223.2 91.6773 224.171 91.7796 225.413C91.8861 226.699 90.7401 227.678 89.807 228.404Z" fill="#5992CD"/>
<path d="M10.638 184.032L10.9788 183.951C11.1024 183.294 11.4261 182.853 11.5028 182.174C11.6519 180.847 11.8777 179.455 12.1632 178.145C12.6062 176.101 13.1217 174.039 14.2294 172.237C15.1496 172.491 15.0602 174.345 15.2689 175.176C15.6055 176.542 15.9889 177.865 16.4107 179.205C16.8069 180.465 16.9688 181.814 17.4246 183.052C17.5525 183.391 18.3406 185.542 18.6559 185.66C19.3247 185.385 19.9851 184.638 20.3898 184.053C21.2973 182.734 21.7957 181.928 23.1505 180.957C24.0835 180.287 24.7651 179.489 25.5916 178.709C26.0688 178.255 27.3256 176.97 28.037 177.017C28.5483 179.01 27.4832 181.076 27.2105 182.971C26.8953 185.173 25.7876 187.34 25.86 189.562C25.9069 190.919 26.5033 190.953 27.4406 191.87C28.5142 192.913 29.3109 194.24 30.3759 195.305C31.1513 196.077 32.6382 197.222 33.0685 198.282C33.7373 199.924 31.5475 199.432 30.5037 199.415C28.4332 199.381 26.5374 199.813 24.4627 199.784C23.8193 199.775 22.4135 199.453 21.898 199.805C21.1865 200.284 21.5614 201.595 21.5188 202.299C21.4677 203.215 21.1865 204.288 21.0118 205.208C20.8371 206.129 20.4367 207.079 20.2322 208.024C19.9936 209.131 19.8701 210.209 19.6911 211.311C19.5846 211.952 19.035 214.17 18.4471 214.433C17.25 213.708 16.3937 211.121 15.9208 209.852C15.4947 208.707 15.0943 207.575 14.5702 206.472C14.0462 205.369 13.7693 204.318 13.224 203.283C12.5636 202.027 12.1802 201.438 10.8936 202.197C8.49506 203.614 6.05391 204.818 3.55312 206.031C3.14413 206.23 2.34746 206.985 1.90012 206.761C1.45279 206.536 1.45279 205.484 1.49114 205.085C1.63173 203.724 2.83313 202.502 3.42531 201.306C4.08566 199.966 4.34127 198.452 4.98458 197.099C5.35948 196.314 5.56398 195.347 5.96871 194.614C6.33509 193.939 6.64609 193.969 6.67592 193.197C6.71852 191.942 4.94198 190.504 4.43074 189.486C3.502 187.649 2.62864 185.783 1.71267 183.943C1.34203 183.196 1.12049 182.458 0.792448 181.708C0.596474 181.258 -0.025529 180.643 3.28048e-05 180.117C0.0852387 178.323 2.79905 180.206 3.45087 180.584C4.63523 181.279 5.97723 181.61 7.18289 182.318C8.32891 182.993 9.67943 184.036 11.0598 184.032" fill="#7DA6D8"/>
<path d="M219.784 240.801C221.007 238.659 222.524 236.61 223.87 234.532C224.364 233.769 225.003 233.285 225.6 232.615C226.056 232.106 226.439 230.868 227.338 231.152C227.934 231.856 227.47 234.023 227.47 234.88C227.474 235.945 227.133 236.759 226.997 237.794C226.839 238.99 226.767 240.105 226.554 241.305C226.426 242.01 225.962 243.125 226.081 243.833C226.379 245.602 230.367 243.625 231.607 243.443C232.77 243.273 233.865 243.159 235.015 243.074C236.165 242.989 237.188 242.387 238.359 242.629C239.752 242.917 239.173 243.893 238.334 244.677C237.354 245.593 236.647 246.28 235.859 247.4C235.07 248.52 233.933 249.131 232.962 250.102C232.148 250.912 231.253 251.667 230.478 252.507C229.102 253.991 230.618 256.816 230.674 258.652C230.708 259.776 230.571 260.692 230.844 261.782C231.04 262.567 231.364 263.826 230.882 264.56C229.685 264.832 228.965 263.152 228.399 262.414C227.832 261.676 227.142 261.044 226.486 260.383C225.468 259.356 224.547 258.3 223.282 257.558C222.801 257.274 222.013 256.655 221.412 256.909C220.811 257.163 220.807 257.944 220.5 258.453C219.618 259.933 218.251 261.21 217.267 262.635C216.346 263.971 215.307 265.239 214.459 266.621C213.901 267.529 211.928 270.498 211.89 267.707C211.869 266.134 212.644 264.887 212.78 263.368C212.942 261.587 213.471 259.844 213.692 258.058C213.816 257.057 215.073 254.767 214.331 254.076C213.696 253.478 212.346 253.927 211.571 253.851C210.902 253.783 210.459 253.482 209.815 253.368C208.929 253.211 205.214 254.059 206.552 252.205C206.991 251.599 207.992 251.026 208.546 250.526C209.236 249.907 210.037 249.466 210.727 248.842C211.596 248.058 213.611 246.577 213.841 245.419C213.969 244.762 213.62 244.296 213.488 243.702C213.356 243.108 213.479 242.531 213.432 241.916C213.356 240.92 213.006 240.075 213.002 239.062C213.002 238.311 213.023 237.56 213.032 236.814C213.04 235.834 212.857 234.6 213.113 233.68C214.25 234.053 214.344 235.151 214.723 236.11C215.038 236.899 215.494 237.56 215.988 238.243C216.751 239.295 217.492 240.843 218.506 241.636" fill="#7DA6D8"/>
<path d="M232.736 72.3387C234.005 69.9891 234.444 67.2153 235.032 64.6324C235.258 63.6399 235.901 61.0104 237.094 60.6753C237.916 61.0867 237.869 62.4015 238.014 63.1819C238.21 64.2379 238.564 65.2643 238.73 66.2949C238.896 67.3256 239.135 68.3477 239.126 69.4504C239.126 70.0315 239.13 71.8679 239.936 71.9655C240.656 71.4268 241.158 70.7186 241.976 70.2817C242.603 69.9509 243.276 69.8364 243.902 69.5056C245.061 68.8991 245.674 67.7666 246.692 67.0159C247.238 66.613 247.898 66.4052 248.503 66.1295C248.929 65.9387 250.011 65.1159 250.267 66.1253C250.331 66.384 249.832 67.2619 249.756 67.4994C249.266 69.0221 249.129 70.5659 248.456 72.0503C247.783 73.5347 247.451 74.6799 247.029 76.1685C246.552 77.8523 246.837 78.391 248.273 79.6676C249.589 80.8339 250.808 81.9791 251.715 83.4889C252.623 84.9988 254.365 85.6096 255 87.3485C254.374 88.782 251.975 87.9804 250.936 87.8065C249.756 87.6114 248.61 87.3824 247.438 87.2509C246.053 87.0982 242.862 85.758 242.381 87.7853C242.194 88.5657 242.321 89.3758 242.134 90.1816C241.895 91.2122 241.631 92.2853 241.452 93.3074C241.273 94.3295 241.133 95.462 241.009 96.5095C240.937 97.15 240.634 99.0967 240.051 99.33C239.454 99.2748 238.41 97.8158 238.125 97.3366C237.456 96.2211 236.992 94.7113 236.676 93.4686C236.165 91.437 235.577 88.9813 234.414 87.2085C234.061 86.6699 234.265 86.4875 233.477 86.4833C232.983 86.4833 232.463 86.8692 232.071 87.1025C231.087 87.6878 230.239 88.044 229.178 88.4597C227.917 88.9559 225.076 91.1656 223.631 90.4658C221.663 89.5157 228.173 81.2156 227.981 79.3113C227.887 78.4037 227.657 77.1949 227.41 76.2958C227.116 75.2355 226.895 74.1073 226.55 73.0852C226.256 72.22 223.504 67.5546 225.084 66.8802C226.801 67.4825 228.032 69.1705 229.183 70.4514C230.162 71.5414 231.266 72.5508 232.297 73.5984" fill="#7DA6D8"/>
</g>
<defs>
<clipPath id="clip0_15_6156">
<rect width="255" height="300" fill="white"/>
</clipPath>
</defs>
</svg>
