<svg width="112" height="112" viewBox="0 0 112 112" fill="none" xmlns="http://www.w3.org/2000/svg">
<mask id="mask0_2001_1302" style="mask-type:luminance" maskUnits="userSpaceOnUse" x="0" y="0" width="112" height="112">
<path d="M0 0H112V112H0V0Z" fill="white"/>
</mask>
<g mask="url(#mask0_2001_1302)">
<path d="M28.4103 28.4553L28.3953 28.3971C28.3893 28.3736 28.3958 28.3486 28.4125 28.3311L28.454 28.2876L28.3958 28.3026C28.3723 28.3086 28.3474 28.3021 28.3298 28.2854L28.2863 28.2439L28.3013 28.302C28.3074 28.3256 28.3009 28.3505 28.2841 28.3681L28.2426 28.4115L28.3008 28.3966C28.3243 28.3905 28.3493 28.397 28.3668 28.4138L28.4103 28.4553Z" fill="#FFE5A2"/>
<path d="M52.4871 44.727C59.1664 39.9001 65.3523 34.1351 69.2966 26.8345C71.938 21.9457 73.8564 22.6663 77.6834 25.2638C80.0757 26.8874 86.4636 33.5985 84.9588 37.8099C82.5893 44.4404 67.6803 50.4659 55.021 51.4202C53.776 51.5138 52.5685 50.9528 51.8218 49.9529L51.6924 49.8902C50.4685 48.2519 50.8292 45.9248 52.4871 44.727Z" fill="#FD6806"/>
<path d="M60.4676 38.1414C57.9768 40.5288 55.2767 42.711 52.4871 44.7271C50.8292 45.9257 50.4685 48.2528 51.6924 49.8919L51.821 49.953C52.5677 50.9529 53.776 51.5147 55.021 51.4211C64.407 50.7127 75.0249 47.2171 80.8566 42.7541C71.6783 43.0815 63.3631 39.537 60.4676 38.1414Z" fill="#E84614"/>
<path d="M65.4132 48.5449C65.4132 48.5449 57.3445 37.7189 49.7988 28.3644C42.0973 18.8158 38.4465 18.1122 32.9269 23.9499C27.4081 29.7876 24.7141 37.4632 30.9357 41.1874C37.1574 44.9115 55.8738 53.758 57.9807 52.5505C60.0885 51.343 65.4132 48.5449 65.4132 48.5449Z" fill="#FF8A20"/>
<path d="M55.1585 35.1272C51.2162 41.5037 36.1822 42.1683 32.7745 42.2374C40.2153 46.3404 56.0521 53.6563 57.9808 52.5504C60.0885 51.3429 65.4124 48.5448 65.4124 48.5448C65.4124 48.5448 60.7273 42.2582 55.1585 35.1272Z" fill="#FD6806"/>
<path d="M82.1445 104.049H29.6883C24.7883 104.049 20.8152 100.076 20.8152 95.1757V57.2422C20.8152 52.3413 24.7883 48.3699 29.6883 48.3699H82.1445C87.0453 48.3699 91.0176 52.3413 91.0176 57.2422V95.1757C91.0176 100.076 87.0453 104.049 82.1445 104.049Z" fill="#FAB021"/>
<path d="M47.5338 104.049H64.3008V48.3699H47.5338V104.049Z" fill="#FD6806"/>
<g opacity="0.2">
<path d="M20.6078 59.7822V71.7008L90.8094 76.9006V59.7822C90.8094 58.7304 90.6162 57.7261 90.2797 56.79H21.1374C20.801 57.7261 20.6078 58.7304 20.6078 59.7822Z" fill="#BA0800"/>
</g>
<path d="M91.7496 64.9796H19.8358C16.6971 64.9796 14.1538 62.4355 14.1538 59.2985V49.6633C14.1538 46.5255 16.6971 43.9822 19.8358 43.9822H91.7496C94.8874 43.9822 97.4307 46.5255 97.4307 49.6633V59.2985C97.4307 62.4355 94.8874 64.9796 91.7496 64.9796Z" fill="#FFC93E"/>
<path d="M46.955 64.9796H64.6313V43.9822H46.955V64.9796Z" fill="#FF8A20"/>
</g>
</svg>
