<svg width="92" height="100" viewBox="0 0 92 100" fill="none" xmlns="http://www.w3.org/2000/svg">
<g clip-path="url(#clip0_15_10599)">
<path d="M56.2565 56.8248C56.2502 56.1226 56.1629 55.4191 56.0681 54.7233C56.0453 54.563 56.0188 54.4027 55.9808 54.245C55.9404 54.0682 55.8733 53.8964 55.8468 53.7183C55.8189 53.5339 55.8038 53.3532 55.7532 53.1739C55.7026 52.9945 55.6432 52.8177 55.5926 52.6383C55.4939 52.2923 55.4522 51.9285 55.3346 51.5876C55.2258 51.2708 55.0804 50.9668 54.9691 50.65C54.8527 50.3218 54.7528 49.9923 54.6074 49.6756C54.467 49.3716 54.3519 49.0599 54.2179 48.7546C54.0851 48.4518 53.8751 48.2089 53.7234 47.9201C53.5564 47.6046 53.4237 47.2904 53.2099 47.0004C53.0126 46.7319 52.7989 46.4762 52.5991 46.2091C52.4005 45.9445 52.1425 45.741 51.9326 45.4866C51.7201 45.2296 51.5481 44.9421 51.3344 44.6851C51.1257 44.4345 50.9259 44.1763 50.7173 43.927C50.2911 43.4181 49.7485 42.9691 49.2388 42.5467C48.7165 42.1117 48.0969 41.8267 47.5214 41.4756C47.2483 41.3102 46.9978 41.1092 46.7209 40.9502C46.4174 40.776 46.1025 40.6208 45.7964 40.4528C45.6105 40.3498 45.4271 40.2417 45.2475 40.1297C45.7686 37.8972 45.9026 35.526 45.3652 33.2871C45.0781 32.0875 44.6165 30.9108 43.9247 29.8855C43.3847 29.0841 42.6625 28.3857 41.8759 27.8323C40.3014 26.7256 38.3867 26.1252 36.4707 26.0806C35.4931 26.0577 34.5294 26.1659 33.5847 26.4215C33.1345 26.5437 32.6944 26.7001 32.2695 26.8935C31.7623 27.1238 31.2931 27.4749 30.8543 27.8158C29.9336 28.5294 29.1166 29.3894 28.4792 30.3702C27.8317 31.3649 27.4978 32.5302 27.3157 33.6967C27.2879 33.8773 27.2639 34.0593 27.2424 34.2412C26.8554 33.4436 26.5746 32.5963 26.1092 31.8356C25.8209 31.3624 25.4541 30.9935 25.0456 30.6246C24.6662 30.2824 24.2805 29.944 23.8733 29.6349C23.4724 29.3308 23.0475 29.0561 22.5998 28.8271C22.3696 28.7101 22.1356 28.6032 21.8878 28.5294C21.6462 28.4582 21.4021 28.3997 21.1618 28.3208C20.6319 28.1478 20.0388 28.0969 19.4836 28.0766C18.912 28.0549 18.3403 28.0804 17.775 28.1643C16.6672 28.3284 15.5871 28.6872 14.5893 29.196C13.656 29.6718 12.777 30.2048 12.0284 30.9477C11.6818 31.2912 11.3682 31.6652 11.0963 32.071C10.8004 32.5111 10.5752 32.9818 10.3514 33.4614C10.1124 33.9715 9.8607 34.4905 9.77471 35.0528C9.73297 35.3314 9.72918 35.6163 9.6925 35.8949C9.65709 36.162 9.61156 36.4254 9.56856 36.6912C9.52683 36.9495 9.48004 37.2115 9.46613 37.4723C9.44968 37.77 9.47118 38.0753 9.49015 38.373C9.52683 38.9441 9.60271 39.5128 9.71527 40.0738C9.93785 41.1907 10.297 42.2745 10.7232 43.3265C10.8256 43.5784 10.9319 43.829 11.0406 44.0771C10.6107 44.5172 10.1326 44.9001 9.68744 45.325C9.45854 45.5425 9.26504 45.7919 9.03993 46.0119C8.79458 46.2524 8.53027 46.4699 8.28998 46.7141C8.05854 46.9495 7.82205 47.1785 7.6235 47.4431C7.41988 47.7127 7.22386 47.9926 7.03416 48.2725C6.84699 48.5485 6.65096 48.8309 6.50173 49.1286C6.3525 49.4301 6.20959 49.7354 6.06162 50.0381C5.91492 50.3371 5.81501 50.6577 5.66325 50.9553C5.51908 51.2403 5.32305 51.4922 5.19406 51.7873C5.05747 52.1028 4.90318 52.4093 4.76913 52.7261C4.63381 53.0479 4.57943 53.3774 4.49343 53.7132C4.45549 53.8595 4.38593 53.9956 4.33661 54.1394C4.27717 54.3111 4.22911 54.488 4.19876 54.6673C4.14058 54.9968 4.09632 55.3263 4.03056 55.6557C3.96227 55.9967 3.94203 56.344 3.90409 56.69C3.86868 57.022 3.79406 57.3515 3.76371 57.6835C3.73336 58.0333 3.77383 58.3869 3.75739 58.738C3.74854 58.9123 3.73336 59.0866 3.72451 59.2622C3.71439 59.472 3.74854 59.6705 3.75992 59.8791C3.77889 60.2111 3.74095 60.5419 3.77383 60.8765C3.80797 61.239 3.8573 61.6016 3.89903 61.9628C4.06091 63.3571 4.48458 64.7258 5.12703 65.9687C5.46976 66.6327 5.77201 67.326 6.14509 67.9735C6.31329 68.2661 6.51438 68.532 6.71799 68.8004C6.91528 69.0612 7.09233 69.3372 7.28583 69.6005C8.09269 70.6907 9.19043 71.5214 10.2591 72.333C10.7852 72.7337 11.305 73.1103 11.9145 73.3749C12.5481 73.6509 13.202 73.9066 13.8647 74.1076C14.0291 74.1572 14.1973 74.1903 14.3617 74.2386C14.5134 74.2831 14.6563 74.3557 14.803 74.4129C14.951 74.4714 15.1066 74.5236 15.2647 74.5452C15.4177 74.5668 15.5732 74.5592 15.7263 74.5834C15.9349 74.6177 16.1297 74.6762 16.3308 74.7157C15.5897 75.3072 14.9599 76.0399 14.4932 76.8681C13.8014 78.0918 13.4372 79.6145 13.8583 80.9922C14.2491 82.2719 15.2937 83.179 16.523 83.6191C16.5888 83.6433 16.6545 83.6636 16.7216 83.684C15.7275 85.3937 14.7335 87.1047 13.7395 88.8144C12.7834 90.4579 11.654 92.2389 11.9272 94.2335C12.1574 95.9153 13.4802 97.1403 14.9902 97.7382C15.8755 98.088 16.8303 98.2305 17.7738 98.2992C18.7134 98.3679 19.7277 98.4416 20.637 98.1452C21.5526 97.8476 22.2937 97.2026 22.9463 96.5144C23.6659 95.7562 24.3539 94.9675 25.052 94.189C25.9878 94.1865 26.9237 94.2005 27.8583 94.2221C27.8039 94.834 27.7773 95.4484 27.7837 96.0628C27.79 96.606 27.8115 97.1708 27.986 97.6911C28.3679 98.8284 29.4796 99.383 30.5697 99.659C31.135 99.8015 31.7168 99.8728 32.2948 99.9236C32.8866 99.9745 33.4848 100.023 34.0779 99.9898C34.6622 99.9567 35.2199 99.8282 35.7536 99.584C36.219 99.3703 36.6427 99.0713 37.0322 98.738C37.8505 98.0384 38.5094 97.1683 39.1607 96.3172C39.8651 95.3924 40.5379 94.4422 41.1614 93.4614C42.4159 91.4871 43.4795 89.3792 44.2105 87.1517C44.9643 84.8581 45.3664 82.4233 45.2539 80.0051C45.2412 79.7277 45.221 79.4504 45.1944 79.1731C45.2349 79.1642 45.2766 79.1578 45.3171 79.1477C45.6307 79.065 45.9355 78.9365 46.2163 78.7724C46.7651 78.4518 47.2293 77.9977 47.6277 77.5041C47.9856 77.0589 48.2916 76.6022 48.5053 76.0692C49.2022 74.3238 48.7418 72.0837 47.1256 71.0571C47.2849 70.9782 47.4392 70.8917 47.6087 70.8243C47.744 70.7709 47.8869 70.7429 48.0222 70.6907C48.1803 70.6297 48.327 70.5368 48.4649 70.4388C48.5825 70.3562 48.695 70.262 48.8202 70.1882C48.972 70.1005 49.1326 70.0292 49.2844 69.9402C49.5892 69.7621 49.8838 69.5636 50.1772 69.3665C50.7451 68.9848 51.3142 68.5943 51.7821 68.0893C52.0009 67.8539 52.2007 67.6021 52.4043 67.3553C52.6143 67.0996 52.8356 66.8541 53.0354 66.5907C53.4452 66.0526 53.8676 65.5005 54.2078 64.9154C54.548 64.3328 54.7592 63.7018 55.0336 63.0886C55.1702 62.7808 55.3017 62.4755 55.3965 62.1511C55.5015 61.7975 55.5736 61.4336 55.6583 61.0749C55.824 60.3676 56.0504 59.6603 56.1376 58.939C56.1781 58.6032 56.2123 58.2661 56.2477 57.929C56.2844 57.5614 56.2591 57.1937 56.2565 56.8248ZM14.8473 81.6245C14.1315 80.5393 14.215 79.1617 14.6589 77.9888C15.0939 76.835 15.9172 75.7982 16.9037 75.0706C17.039 74.9701 17.1794 74.8759 17.321 74.7869C17.3577 74.7793 17.3944 74.764 17.4323 74.7386C18.6704 73.9028 19.9503 73.1243 21.2693 72.4246C22.4505 71.7975 23.7999 71.2008 25.1658 71.468C26.3786 71.7059 27.4118 72.5047 27.9291 73.6369C28.4641 74.806 28.3262 76.1239 27.7305 77.2382C27.1033 78.4098 26.1181 79.3855 25.1076 80.2277C24.0579 81.1016 22.8831 81.8394 21.65 82.4221C20.4195 83.0021 19.0245 83.427 17.6536 83.2438C16.5711 83.0988 15.4645 82.5582 14.8473 81.6245ZM47.8389 72.7859C48.2157 73.5428 48.2815 74.4778 48.0829 75.3059C47.849 76.2867 47.2103 77.167 46.4401 77.8336C46.0165 78.2025 45.5157 78.4671 44.963 78.5765C44.6443 78.6388 44.3117 78.6503 43.9879 78.6757C43.6275 78.705 43.2658 78.7266 42.9041 78.7279C42.2364 78.7304 41.6103 78.6376 40.9742 78.4417C40.5 78.2954 40.0282 78.1351 39.5692 77.9468C38.7016 77.5932 37.834 77.1187 37.2004 76.4165C36.5554 75.7028 36.2671 74.7462 36.3872 73.7641C36.4252 73.4601 36.5162 73.1586 36.6566 72.8876C36.8122 72.59 37.0297 72.3801 37.2497 72.1346C37.3661 72.0035 37.4711 71.8649 37.5495 71.7071C37.6216 71.5608 37.6747 71.4044 37.7518 71.2594C37.896 70.9897 38.1451 70.8243 38.3842 70.6475C38.6067 70.4821 38.7876 70.3244 38.9482 70.0979C39.1126 69.8689 39.2871 69.6794 39.5413 69.5496C40.0965 69.2685 40.7415 69.3805 41.3018 69.5764C41.924 69.7939 42.4981 70.1297 43.0976 70.4007C43.7565 70.6971 44.4356 70.9477 45.135 71.1309C45.4866 71.2225 45.8419 71.2975 46.1998 71.3573C46.2416 71.3649 46.2833 71.3649 46.3238 71.3599C46.9852 71.6384 47.51 72.1231 47.8389 72.7859ZM55.5635 57.9201C55.523 58.2648 55.4965 58.6134 55.4484 58.9568C55.4003 59.2952 55.3118 59.6234 55.2296 59.9542C55.1398 60.3142 55.0538 60.6742 54.9691 61.0355C54.8894 61.3738 54.8274 61.7211 54.7187 62.0506C54.6162 62.361 54.4746 62.6536 54.3481 62.9538C54.2217 63.2553 54.1116 63.5619 53.9801 63.8608C53.8536 64.1458 53.7145 64.4282 53.5514 64.694C53.3781 64.9777 53.1695 65.2372 52.9772 65.5082C52.594 66.0488 52.178 66.5526 51.7593 67.064C51.557 67.312 51.3547 67.5626 51.1283 67.7891C50.907 68.0117 50.6502 68.1961 50.3973 68.3793C49.8522 68.7762 49.2856 69.1909 48.6824 69.4937C48.3991 69.6362 48.1677 69.8511 47.8907 70C47.7706 70.0661 47.6352 70.0992 47.505 70.1386C47.357 70.1832 47.223 70.2468 47.0876 70.3205C46.9485 70.3969 46.8107 70.4745 46.6602 70.5266C46.5173 70.5762 46.3706 70.608 46.2264 70.6475C46.1467 70.622 46.0671 70.5991 45.9861 70.5801C45.8887 70.5559 45.8053 70.5762 45.7395 70.6208C45.1906 70.4986 44.6506 70.3396 44.1245 70.1425C43.4517 69.8893 42.8232 69.5509 42.1719 69.252C41.5231 68.9543 40.8047 68.6783 40.0776 68.7571C39.7437 68.7927 39.4149 68.8818 39.124 69.0548C38.8192 69.2367 38.6067 69.4924 38.4031 69.7774C38.3551 69.8448 38.3272 69.8829 38.2375 69.9618C38.1135 70.0699 37.9769 70.1603 37.8454 70.2582C37.5533 70.4757 37.3029 70.7187 37.1486 71.0545C37.0803 71.2034 37.0259 71.3586 36.9424 71.4998C36.8552 71.6461 36.7274 71.7657 36.6098 71.8878C36.3569 72.1524 36.1558 72.4424 36.0104 72.7795C35.5348 73.885 35.6664 75.2601 36.3038 76.2753C36.8615 77.1645 37.7468 77.7865 38.6738 78.2381C39.167 78.4785 39.6792 78.6795 40.1977 78.8576C40.7858 79.0586 41.3764 79.2443 41.9961 79.3169C42.7511 79.4059 43.5149 79.355 44.2687 79.2889C44.3686 79.28 44.4698 79.2723 44.5697 79.2622C44.7708 81.5189 44.5115 83.7883 43.9083 85.9674C43.305 88.144 42.3654 90.2086 41.2221 92.1498C40.6568 93.1103 40.0409 94.0427 39.3908 94.9472C38.7737 95.8071 38.1375 96.6658 37.4306 97.4532C36.7957 98.1592 36.0546 98.8347 35.1441 99.1489C34.6078 99.3347 34.0489 99.3754 33.4848 99.3601C32.9296 99.3461 32.3694 99.3029 31.8167 99.2393C31.2704 99.1756 30.724 99.0688 30.203 98.8843C29.73 98.7164 29.2507 98.476 28.9143 98.0918C28.5981 97.7331 28.4856 97.2344 28.4451 96.7688C28.3958 96.1989 28.4071 95.6201 28.4337 95.0502C28.4464 94.7793 28.4653 94.5083 28.4893 94.2373C28.8169 94.2462 29.1432 94.2539 29.4695 94.2628C29.8767 94.2742 29.8754 93.6382 29.4695 93.6267C28.0113 93.5873 26.5519 93.5491 25.0937 93.5529C25.0001 93.4932 24.8838 93.4804 24.7801 93.5542C24.3362 93.558 23.8935 93.5644 23.4496 93.5771C23.0437 93.5873 23.0411 94.2246 23.4496 94.2132C23.6975 94.2055 23.9454 94.2004 24.1933 94.1966C23.7228 94.7195 23.2536 95.2423 22.7806 95.7626C22.2494 96.3439 21.6905 96.924 20.9924 97.3044C20.2184 97.7254 19.3546 97.7331 18.4959 97.7013C17.6119 97.6682 16.7241 97.5932 15.8679 97.3591C14.4439 96.9698 13.0135 96.0297 12.6228 94.5147C12.1611 92.7261 13.2032 90.9973 14.0632 89.5166C15.1635 87.6237 16.2637 85.7308 17.3653 83.8379C18.4845 84.0275 19.6518 83.8506 20.7243 83.483C22.1154 83.0047 23.4357 82.2592 24.6258 81.398C25.8044 80.547 26.9136 79.5446 27.7698 78.3615C28.6082 77.2039 29.085 75.8249 28.8207 74.39C28.5716 73.0301 27.6736 71.8394 26.438 71.2339C25.8171 70.9299 25.1329 70.762 24.4411 70.7696C23.6747 70.7785 22.9223 70.9808 22.2178 71.2721C21.502 71.5672 20.8204 71.9374 20.1463 72.3165C19.4583 72.7032 18.7804 73.1077 18.1152 73.5313C17.8661 73.6916 17.6182 73.8532 17.3716 74.0173C17.3716 74.0173 17.3708 74.0177 17.3691 74.0185C17.3197 74.0465 17.2717 74.0745 17.2224 74.1038C17.1642 74.0949 17.1048 74.0885 17.0441 74.086C16.7114 74.072 16.413 74.0554 16.0892 73.9677C15.94 73.9282 15.7958 73.8964 15.6415 73.8875C15.5062 73.8786 15.3671 73.8786 15.2343 73.843C15.0901 73.8036 14.9535 73.7323 14.8157 73.6776C14.6526 73.6115 14.4869 73.5669 14.3174 73.5262C13.9975 73.4499 13.6863 73.3291 13.3765 73.2171C12.7644 72.9945 12.108 72.777 11.5528 72.4271C11.2822 72.2567 11.028 72.0608 10.7738 71.8661C10.5221 71.6741 10.2616 71.4947 10.0137 71.2988C9.74435 71.0863 9.48889 70.8574 9.2309 70.6322C8.98934 70.421 8.73514 70.2213 8.50877 69.9936C8.05601 69.5382 7.71202 69.0014 7.33515 68.4849C7.1366 68.2139 6.9254 67.9544 6.75087 67.6657C6.57002 67.3693 6.42964 67.0436 6.27535 66.7332C5.96045 66.101 5.5899 65.4827 5.33697 64.8225C5.21176 64.4981 5.10427 64.1674 4.98665 63.8392C4.87536 63.5288 4.82098 63.2069 4.74889 62.8851C4.5946 62.2096 4.52125 61.5163 4.45296 60.8268C4.43778 60.6666 4.42387 60.5037 4.42387 60.3409C4.42387 60.1603 4.44916 59.9809 4.43778 59.799C4.4264 59.6323 4.39352 59.4682 4.40364 59.3003C4.41375 59.126 4.4264 58.9518 4.43399 58.7762C4.4479 58.4315 4.4049 58.074 4.44411 57.7318C4.48205 57.396 4.54907 57.0652 4.58575 56.7294C4.6199 56.3948 4.64266 56.0603 4.70969 55.7295C4.77672 55.4013 4.81718 55.0718 4.87662 54.7436C4.9348 54.4307 5.08024 54.1521 5.15991 53.8468C5.20038 53.6916 5.22441 53.5326 5.26108 53.3774C5.29776 53.2171 5.36479 53.0657 5.43055 52.9156C5.56334 52.6103 5.70752 52.3101 5.84284 52.0048C5.97183 51.7135 6.17671 51.4654 6.31329 51.1779C6.45747 50.8765 6.56117 50.5559 6.71293 50.2569C6.85584 49.9745 6.98484 49.687 7.12648 49.4034C7.27192 49.112 7.46921 48.8347 7.65764 48.5701C7.84734 48.3043 8.02819 48.0295 8.23054 47.7725C8.63018 47.2662 9.14616 46.8757 9.59386 46.4177C9.81012 46.1964 10.0011 45.9547 10.2325 45.7486C10.4956 45.5145 10.7624 45.2843 11.0204 45.0464C11.2771 44.8098 11.5263 44.5643 11.7615 44.3048C11.8842 44.1674 11.8424 43.9333 11.7046 43.8239C11.6907 43.8125 11.6755 43.8036 11.6616 43.7959C11.2354 42.8126 10.8484 41.8102 10.5714 40.7721C10.2995 39.7494 10.1136 38.6452 10.1415 37.583C10.1554 37.0843 10.2844 36.5844 10.3539 36.0908C10.426 35.5718 10.4222 35.0591 10.6094 34.563C10.7953 34.0707 11.028 33.5822 11.267 33.1141C11.4744 32.707 11.7299 32.3279 12.0157 31.9743C12.5962 31.2606 13.3209 30.6487 14.1328 30.2188C14.5994 29.972 15.0535 29.7138 15.5404 29.5064C16.0273 29.3003 16.5319 29.1248 17.0453 29.0014C18.9967 28.5345 21.2023 28.6808 22.9172 29.7964C23.3143 30.0547 23.6886 30.3498 24.0491 30.6577C24.4146 30.968 24.8205 31.281 25.1329 31.6461C25.7716 32.3953 26.0852 33.338 26.4823 34.2246C26.5797 34.4409 26.6821 34.6533 26.796 34.8619C26.8073 34.8798 26.8187 34.8988 26.8314 34.9154C26.8314 34.9217 26.8301 34.9281 26.8314 34.9345C26.8453 35.0706 26.8857 35.208 26.9389 35.3352C26.9667 35.4013 27.0008 35.4662 27.0413 35.5247C27.0502 35.5362 27.0577 35.5476 27.0666 35.5591V35.5616C27.0767 35.6468 27.1235 35.7308 27.1893 35.7855C27.1791 35.9636 27.1703 36.1404 27.1791 36.3185C27.1943 36.6022 27.2133 36.877 27.212 37.1606C27.2108 37.4176 27.2588 37.6784 27.2892 37.9341C27.3208 38.2076 27.3511 38.4811 27.384 38.7546C27.4156 39.0192 27.4953 39.2736 27.5295 39.5369C27.5952 40.0674 27.8102 40.5635 27.8735 41.0927C27.9253 41.5303 28.6019 41.4514 28.5501 41.0138C28.4881 40.4936 28.2794 40.0076 28.2099 39.4886C28.1732 39.2151 28.0935 38.9492 28.0606 38.6744C28.0277 38.4009 27.9974 38.1274 27.9658 37.8539C27.9367 37.611 27.8848 37.3565 27.8899 37.111C27.895 36.8274 27.876 36.5551 27.8583 36.2727C27.8418 36.0081 27.8747 35.7448 27.881 35.4815C27.8848 35.3492 27.8659 35.2207 27.8621 35.0897C27.8583 34.979 27.8861 34.8709 27.8772 34.7564C27.8772 34.7449 27.8722 34.736 27.8709 34.7258C27.8722 34.7207 27.8735 34.7169 27.8735 34.7118C27.9923 33.5911 28.1858 32.4704 28.6639 31.4413C29.1229 30.4528 29.8653 29.5776 30.6722 28.8564C31.0819 28.4887 31.5208 28.1542 31.9786 27.8501C32.3681 27.5919 32.7741 27.4062 33.2154 27.251C34.059 26.9546 34.9468 26.7994 35.8409 26.7637C37.6216 26.6938 39.4402 27.1377 40.9742 28.0562C41.733 28.5103 42.4248 29.0955 42.9888 29.7786C43.6945 30.636 44.1789 31.6677 44.5102 32.7248C45.197 34.9205 45.1426 37.3006 44.6822 39.5357C44.6607 39.6438 44.6354 39.7506 44.6114 39.8588C44.5456 39.8753 44.4849 39.9122 44.4369 39.972C44.3332 40.1056 44.342 40.332 44.4799 40.4414C44.4786 40.6004 44.6215 40.7492 44.772 40.7734C44.8391 40.7836 44.8998 40.7734 44.9529 40.7492C45.4044 41.024 45.8748 41.267 46.3402 41.5189C46.602 41.6613 46.8347 41.8471 47.0864 42.0061C47.3583 42.1778 47.6504 42.3127 47.9223 42.4818C48.2018 42.6549 48.4902 42.8215 48.7469 43.0276C49.0024 43.2311 49.2426 43.455 49.488 43.6713C49.7232 43.8799 49.9711 44.0974 50.1722 44.3391C50.3809 44.5897 50.5819 44.8467 50.7906 45.0973C51.0043 45.3543 51.1763 45.6418 51.3888 45.9C51.5848 46.1379 51.8314 46.3261 52.0186 46.5729C52.226 46.8464 52.4423 47.1123 52.6471 47.3871C52.8394 47.6466 52.9557 47.9226 53.1062 48.205C53.258 48.4925 53.4692 48.738 53.5982 49.0383C53.7259 49.3372 53.8397 49.6374 53.9751 49.9338C54.1205 50.2493 54.2217 50.5801 54.3368 50.9083C54.448 51.225 54.5935 51.529 54.7035 51.8458C54.8135 52.1625 54.8527 52.5098 54.9425 52.8342C54.9906 53.0021 55.0437 53.1688 55.093 53.3367C55.1436 53.5084 55.1474 53.6865 55.1803 53.8621C55.2094 54.0198 55.2663 54.1687 55.3042 54.3239C55.3485 54.5019 55.375 54.6826 55.3991 54.8645C55.4433 55.2054 55.4775 55.5476 55.518 55.8898C55.5572 56.2295 55.5774 56.564 55.5799 56.9049C55.5825 57.2459 55.6027 57.5804 55.5635 57.9201Z" fill="#231F20"/>
<path d="M48.0828 75.3058C47.8489 76.2866 47.2102 77.1669 46.44 77.8335C46.0164 78.2024 45.5156 78.467 44.9629 78.5764C44.6442 78.6387 44.3116 78.6502 43.9878 78.6756C43.6274 78.7049 43.2657 78.7265 42.904 78.7278C42.2363 78.7303 41.6102 78.6375 40.9741 78.4416C40.4999 78.2953 40.0281 78.135 39.5691 77.9467C38.7015 77.5931 37.8339 77.1186 37.2003 76.4164C36.5553 75.7027 36.267 74.7461 36.3871 73.764C36.4251 73.46 36.5161 73.1585 36.6565 72.8876C36.8121 72.5899 37.0296 72.38 37.2497 72.1345C37.366 72.0035 37.471 71.8648 37.5494 71.7071C37.6215 71.5608 37.6746 71.4043 37.7517 71.2593C37.8959 70.9896 38.145 70.8242 38.3841 70.6474C38.6066 70.482 38.7875 70.3243 38.9481 70.0978C39.1125 69.8689 39.287 69.6793 39.5412 69.5496C40.0964 69.2684 40.7414 69.3804 41.3017 69.5763C41.9239 69.7938 42.498 70.1296 43.0975 70.4006C43.7564 70.697 44.4355 70.9476 45.1349 71.1308C45.4865 71.2224 45.8418 71.2974 46.1997 71.3572C46.2415 71.3649 46.2832 71.3649 46.3237 71.3598C46.9851 71.6384 47.5099 72.123 47.8388 72.7858C48.2156 73.5427 48.2814 74.4777 48.0828 75.3058Z" fill="white"/>
<path d="M27.7305 77.2383C27.1032 78.4099 26.118 79.3856 25.1076 80.2277C24.0579 81.1017 22.883 81.8395 21.6499 82.4221C20.4194 83.0022 19.0245 83.4271 17.6536 83.2439C16.571 83.0989 15.4644 82.5582 14.8473 81.6245C14.1315 80.5394 14.2149 79.1617 14.6588 77.9888C15.0939 76.835 15.9172 75.7983 16.9036 75.0706C17.0389 74.9701 17.1793 74.876 17.321 74.787C17.3576 74.7793 17.3943 74.7641 17.4323 74.7386C18.6704 73.9028 19.9502 73.1243 21.2693 72.4247C22.4505 71.7975 23.7999 71.2009 25.1657 71.468C26.3786 71.7059 27.4118 72.5048 27.929 73.637C28.464 74.806 28.3262 76.1239 27.7305 77.2383Z" fill="white"/>
<path d="M55.5799 56.9049C55.5774 56.564 55.5572 56.2295 55.518 55.8898C55.4775 55.5476 55.4433 55.2054 55.3991 54.8645C55.3751 54.6826 55.3485 54.5019 55.3042 54.3239C55.2663 54.1687 55.2094 54.0198 55.1803 53.8621C55.1474 53.6865 55.1436 53.5084 55.093 53.3367C55.0437 53.1688 54.9906 53.0021 54.9425 52.8342C54.8527 52.5098 54.8135 52.1626 54.7035 51.8458C54.5935 51.529 54.4481 51.225 54.3368 50.9083C54.2217 50.5801 54.1205 50.2493 53.9751 49.9338C53.8397 49.6374 53.7259 49.3372 53.5982 49.0383C53.4692 48.7381 53.258 48.4925 53.1062 48.205C52.9557 47.9226 52.8394 47.6466 52.6472 47.3871C52.4423 47.1123 52.226 46.8464 52.0186 46.5729C51.8314 46.3261 51.5848 46.1379 51.3888 45.9C51.1763 45.6418 51.0043 45.3543 50.7906 45.0973C50.5819 44.8467 50.3809 44.5897 50.1722 44.3391C49.9711 44.0974 49.7232 43.8799 49.488 43.6713C49.2427 43.455 49.0024 43.2311 48.7469 43.0276C48.4902 42.8215 48.2018 42.6549 47.9223 42.4819C47.6504 42.3127 47.3583 42.1778 47.0864 42.0061C46.8347 41.8471 46.602 41.6613 46.3402 41.5189C45.8748 41.267 45.4044 41.024 44.9529 40.7492C44.8998 40.7734 44.8391 40.7836 44.772 40.7734C44.6215 40.7492 44.4786 40.6004 44.4799 40.4414C44.342 40.332 44.3332 40.1056 44.4369 39.972C44.4849 39.9122 44.5457 39.8753 44.6114 39.8588C44.6354 39.7506 44.6607 39.6438 44.6822 39.5357C45.1426 37.3006 45.197 34.9205 44.5102 32.7248C44.1789 31.6677 43.6945 30.636 42.9888 29.7786C42.4248 29.0955 41.733 28.5103 40.9742 28.0562C39.4402 27.1377 37.6216 26.6938 35.8409 26.7637C34.9468 26.7994 34.059 26.9546 33.2154 27.251C32.7741 27.4062 32.3681 27.5919 31.9786 27.8501C31.5208 28.1542 31.0819 28.4887 30.6722 28.8564C29.8653 29.5776 29.123 30.4528 28.6639 31.4413C28.1858 32.4704 27.9923 33.5911 27.8735 34.7118C27.8735 34.7169 27.8722 34.7208 27.8709 34.7258C27.8722 34.736 27.876 34.7449 27.8773 34.7564C27.8861 34.8709 27.8583 34.979 27.8621 35.0897C27.8659 35.2207 27.8848 35.3492 27.881 35.4815C27.8747 35.7448 27.8418 36.0081 27.8583 36.2727C27.876 36.5551 27.895 36.8274 27.8899 37.111C27.8848 37.3565 27.9367 37.611 27.9658 37.8539C27.9974 38.1274 28.0278 38.4009 28.0606 38.6744C28.0935 38.9492 28.1732 39.2151 28.2099 39.4886C28.2794 40.0076 28.4881 40.4936 28.5501 41.0138C28.6019 41.4514 27.9253 41.5303 27.8735 41.0927C27.8102 40.5635 27.5952 40.0674 27.5295 39.5369C27.4953 39.2736 27.4156 39.0192 27.384 38.7546C27.3511 38.4811 27.3208 38.2076 27.2892 37.9341C27.2588 37.6784 27.2108 37.4176 27.212 37.1606C27.212 36.877 27.1943 36.6022 27.1792 36.3185C27.1703 36.1404 27.1792 35.9636 27.1893 35.7855C27.1235 35.7308 27.0767 35.6468 27.0666 35.5616V35.5591C27.0577 35.5476 27.0502 35.5362 27.0413 35.5247C27.0008 35.4662 26.9667 35.4013 26.9389 35.3352C26.8857 35.208 26.8453 35.0706 26.8314 34.9345C26.8301 34.9281 26.8314 34.9217 26.8314 34.9154C26.8187 34.8988 26.8073 34.8798 26.796 34.862C26.6821 34.6533 26.5797 34.4409 26.4823 34.2246C26.0852 33.338 25.7716 32.3953 25.1329 31.6461C24.8205 31.281 24.4146 30.968 24.0491 30.6577C23.6887 30.3498 23.3143 30.0547 22.9172 29.7964C21.2023 28.6808 18.9967 28.5345 17.0453 29.0014C16.5319 29.1248 16.0273 29.3003 15.5404 29.5064C15.0535 29.7138 14.5994 29.972 14.1328 30.2188C13.3209 30.6488 12.5962 31.2606 12.0157 31.9743C11.7299 32.3279 11.4744 32.707 11.267 33.1141C11.028 33.5822 10.7953 34.0707 10.6094 34.563C10.4222 35.0591 10.426 35.5718 10.3539 36.0908C10.2844 36.5844 10.1554 37.0843 10.1415 37.583C10.1136 38.6452 10.2996 39.7494 10.5715 40.7721C10.8484 41.8102 11.2354 42.8126 11.6616 43.7959C11.6755 43.8036 11.6907 43.8125 11.7046 43.8239C11.8425 43.9333 11.8842 44.1674 11.7615 44.3048C11.5263 44.5643 11.2771 44.8098 11.0204 45.0464C10.7624 45.2843 10.4956 45.5145 10.2325 45.7486C10.0011 45.9547 9.81012 46.1964 9.59386 46.4177C9.14617 46.8757 8.63018 47.2662 8.23054 47.7725C8.0282 48.0295 7.84735 48.3043 7.65765 48.5701C7.46921 48.8347 7.27192 49.112 7.12648 49.4034C6.98484 49.687 6.85584 49.9745 6.71294 50.2569C6.56117 50.5559 6.45747 50.8765 6.3133 51.1779C6.17671 51.4654 5.97184 51.7135 5.84284 52.0048C5.70752 52.3101 5.56335 52.6103 5.43056 52.9156C5.36479 53.0657 5.29777 53.2171 5.26109 53.3774C5.22441 53.5326 5.20039 53.6916 5.15992 53.8468C5.08024 54.1521 4.9348 54.4307 4.87663 54.7436C4.81719 55.0718 4.77672 55.4013 4.70969 55.7295C4.64266 56.0603 4.6199 56.3948 4.58575 56.7294C4.54908 57.0652 4.48205 57.396 4.44411 57.7318C4.40491 58.074 4.4479 58.4315 4.43399 58.7762C4.42641 58.9518 4.41376 59.126 4.40364 59.3003C4.39352 59.4682 4.42641 59.6323 4.43779 59.799C4.44917 59.9809 4.42388 60.1603 4.42388 60.3409C4.42388 60.5037 4.43779 60.6666 4.45296 60.8268C4.52126 61.5163 4.59461 62.2096 4.7489 62.8851C4.82098 63.2069 4.87536 63.5288 4.98666 63.8392C5.10427 64.1674 5.21177 64.4981 5.33697 64.8225C5.58991 65.4827 5.96045 66.101 6.27536 66.7332C6.42965 67.0436 6.57003 67.3693 6.75088 67.6657C6.9254 67.9544 7.1366 68.2139 7.33516 68.4849C7.71203 69.0014 8.05602 69.5382 8.50877 69.9936C8.73515 70.2213 8.98935 70.421 9.2309 70.6322C9.48889 70.8574 9.74436 71.0863 10.0137 71.2988C10.2616 71.4947 10.5221 71.6741 10.7738 71.8661C11.028 72.0608 11.2822 72.2567 11.5528 72.4271C12.108 72.777 12.7644 72.9945 13.3765 73.2171C13.6863 73.3291 13.9975 73.4499 14.3174 73.5262C14.4869 73.567 14.6526 73.6115 14.8157 73.6776C14.9536 73.7323 15.0901 73.8036 15.2343 73.843C15.3671 73.8786 15.5062 73.8786 15.6415 73.8875C15.7958 73.8964 15.94 73.9282 16.0892 73.9677C16.413 74.0554 16.7114 74.072 17.0441 74.086C17.1048 74.0885 17.1642 74.0949 17.2224 74.1038C17.2717 74.0745 17.3198 74.0465 17.3691 74.0185C17.3691 74.0185 17.3699 74.0181 17.3716 74.0173C17.6182 73.8532 17.8661 73.6916 18.1152 73.5313C18.7805 73.1077 19.4583 72.7032 20.1463 72.3165C20.8204 71.9374 21.502 71.5672 22.2178 71.2721C22.9223 70.9808 23.6747 70.7785 24.4411 70.7696C25.1329 70.762 25.8171 70.9299 26.4381 71.2339C27.6736 71.8394 28.5716 73.0301 28.8207 74.39C29.085 75.8249 28.6082 77.2039 27.7698 78.3615C26.9136 79.5446 25.8045 80.547 24.6258 81.398C23.4357 82.2592 22.1154 83.0047 20.7243 83.483C19.6518 83.8506 18.4845 84.0275 17.3653 83.8379C16.2638 85.7308 15.1635 87.6237 14.0632 89.5166C13.2032 90.9973 12.1612 92.7261 12.6228 94.5147C13.0135 96.0297 14.4439 96.9698 15.8679 97.3591C16.7241 97.5932 17.6119 97.6682 18.4959 97.7013C19.3546 97.7331 20.2184 97.7255 20.9924 97.3044C21.6905 96.924 22.2495 96.3439 22.7806 95.7626C23.2536 95.2423 23.7228 94.7195 24.1933 94.1966C23.9454 94.2005 23.6975 94.2055 23.4496 94.2132C23.0411 94.2246 23.0437 93.5873 23.4496 93.5771C23.8935 93.5644 24.3362 93.558 24.7801 93.5542C24.8838 93.4804 25.0001 93.4932 25.0937 93.553C26.5519 93.5491 28.0113 93.5873 29.4695 93.6267C29.8754 93.6382 29.8767 94.2742 29.4695 94.2628C29.1432 94.2539 28.8169 94.2463 28.4894 94.2374C28.4653 94.5083 28.4464 94.7793 28.4337 95.0502C28.4072 95.6201 28.3958 96.1989 28.4451 96.7688C28.4856 97.2344 28.5981 97.7331 28.9143 98.0918C29.2507 98.476 29.73 98.7164 30.203 98.8843C30.724 99.0688 31.2704 99.1757 31.8167 99.2393C32.3694 99.3029 32.9296 99.3461 33.4848 99.3601C34.0489 99.3754 34.6078 99.3347 35.1441 99.1489C36.0546 98.8347 36.7957 98.1592 37.4306 97.4532C38.1376 96.6658 38.7737 95.8071 39.3908 94.9472C40.0409 94.0427 40.6568 93.1103 41.2221 92.1498C42.3654 90.2086 43.305 88.144 43.9083 85.9674C44.5115 83.7883 44.7708 81.5189 44.5697 79.2622C44.4698 79.2723 44.3686 79.28 44.2687 79.2889C43.5149 79.355 42.7511 79.4059 41.9961 79.3169C41.3764 79.2444 40.7858 79.0586 40.1977 78.8576C39.6792 78.6795 39.167 78.4785 38.6738 78.2381C37.7468 77.7865 36.8615 77.1645 36.3038 76.2753C35.6664 75.2601 35.5349 73.885 36.0104 72.7795C36.1558 72.4424 36.3569 72.1524 36.6098 71.8878C36.7274 71.7657 36.8552 71.6461 36.9424 71.4998C37.0259 71.3586 37.0803 71.2034 37.1486 71.0546C37.3029 70.7187 37.5533 70.4757 37.8454 70.2582C37.9769 70.1603 38.1135 70.0699 38.2375 69.9618C38.3273 69.8829 38.3551 69.8448 38.4031 69.7774C38.6067 69.4924 38.8192 69.2367 39.124 69.0548C39.4149 68.8818 39.7437 68.7928 40.0776 68.7571C40.8047 68.6783 41.5231 68.9543 42.1719 69.252C42.8232 69.5509 43.4517 69.8893 44.1245 70.1425C44.6506 70.3396 45.1906 70.4986 45.7395 70.6208C45.8053 70.5762 45.8887 70.5559 45.9861 70.5801C46.0671 70.5991 46.1467 70.622 46.2264 70.6475C46.3706 70.608 46.5173 70.5762 46.6602 70.5266C46.8107 70.4745 46.9485 70.3969 47.0876 70.3205C47.223 70.2468 47.357 70.1832 47.505 70.1386C47.6353 70.0992 47.7706 70.0661 47.8907 70C48.1677 69.8511 48.3991 69.6362 48.6824 69.4937C49.2857 69.1909 49.8522 68.7762 50.3973 68.3793C50.6502 68.1961 50.907 68.0117 51.1283 67.7891C51.3547 67.5626 51.557 67.312 51.7594 67.064C52.178 66.5526 52.594 66.0488 52.9772 65.5082C53.1695 65.2372 53.3781 64.9777 53.5514 64.694C53.7145 64.4282 53.8537 64.1458 53.9801 63.8608C54.1116 63.5619 54.2217 63.2553 54.3481 62.9538C54.4746 62.6536 54.6163 62.361 54.7187 62.0506C54.8275 61.7211 54.8894 61.3738 54.9691 61.0355C55.0538 60.6742 55.1398 60.3142 55.2296 59.9542C55.3118 59.6234 55.4003 59.2952 55.4484 58.9569C55.4965 58.6134 55.523 58.2648 55.5635 57.9201C55.6027 57.5804 55.5825 57.2459 55.5799 56.9049ZM17.775 59.1286C17.794 59.3054 17.6144 59.439 17.4589 59.4466C17.3792 59.4504 17.2894 59.4084 17.235 59.3537C17.1718 59.2901 17.1516 59.2151 17.1427 59.1286C17.101 58.7406 17.1946 58.3577 17.211 57.971C17.2186 57.7929 17.3501 57.6606 17.5272 57.6529C17.6928 57.6453 17.8509 57.8043 17.8433 57.971C17.8269 58.3577 17.7333 58.7406 17.775 59.1286ZM19.6746 58.9479C19.667 58.995 19.6581 59.0434 19.6505 59.0917C19.6455 59.121 19.6404 59.1502 19.6366 59.1807C19.6366 59.182 19.6366 59.1833 19.6354 59.1846C19.6189 59.2253 19.6227 59.2965 19.6202 59.3398C19.6177 59.3932 19.6164 59.4453 19.6177 59.4975C19.6215 59.6756 19.4697 59.8079 19.3015 59.8155C19.1282 59.8232 18.9891 59.6641 18.9853 59.4975C18.9803 59.2711 19.0182 59.0459 19.0574 58.8233C19.0663 58.7749 19.0739 58.7266 19.0827 58.6783C19.0878 58.649 19.0916 58.6197 19.0966 58.5892C19.0966 58.5854 19.0979 58.579 19.1004 58.574C19.1219 58.4773 19.1194 58.3641 19.1181 58.2674C19.1156 58.0893 19.2636 57.957 19.4343 57.9493C19.6063 57.9417 19.7479 58.102 19.7505 58.2674C19.753 58.4964 19.7138 58.7228 19.6746 58.9479ZM21.33 59.9415C21.3174 60.1196 21.196 60.2519 21.0139 60.2595C20.852 60.2671 20.6863 60.1081 20.6977 59.9415C20.723 59.6005 20.7306 59.2583 20.7748 58.9187C20.7862 58.8296 20.8065 58.761 20.8672 58.6935C20.9241 58.6312 21.0088 58.6045 21.091 58.6007C21.1694 58.5968 21.2592 58.6388 21.3149 58.6935C21.3642 58.7444 21.4173 58.8436 21.4072 58.9187C21.3629 59.2583 21.3553 59.6005 21.33 59.9415ZM25.0646 56.2803C24.9508 56.3948 24.7295 56.4101 24.6182 56.2803C23.8505 55.3886 22.9564 54.549 21.8018 54.2246C21.4097 54.114 21.5766 53.5008 21.9687 53.6115C23.2296 53.9651 24.2249 54.8556 25.0646 55.83C25.1772 55.9598 25.1936 56.1506 25.0646 56.2803ZM36.9842 62.8304C36.8741 63.614 36.6844 64.3875 36.4113 65.1291C36.1609 65.8084 35.8573 66.4699 35.4122 67.0436C35.0151 67.5537 34.5029 67.9481 33.9047 68.191C33.6125 68.3106 33.3065 68.387 32.9954 68.4315C32.6274 68.4849 32.2808 68.5765 31.9318 68.7062C31.2489 68.9607 30.5584 69.2711 29.8109 69.1884C29.2317 69.1248 28.6791 68.8691 28.2149 68.5192C27.2487 67.7903 26.6088 66.7218 26.1497 65.6163C25.6944 64.5198 25.4124 63.3405 25.3201 62.1562C25.2733 61.5481 25.2986 60.935 25.3466 60.3282C25.4073 59.5662 25.5363 58.794 25.8955 58.1109C26.2281 57.4749 26.782 56.9686 27.4169 56.6454C28.0417 56.3274 28.803 56.1519 29.4796 56.4037C29.5858 56.2053 29.7136 56.0221 29.8742 55.8555C30.762 54.9345 32.2783 54.6279 33.4734 55.0261C34.8848 55.4967 36.0129 56.69 36.5554 58.0638C37.146 59.556 37.2042 61.2555 36.9842 62.8304ZM36.9804 51.0215C36.1002 51.6702 35.5652 52.7185 35.1985 53.726C35.1403 53.8875 34.986 53.9969 34.8102 53.9486C34.6546 53.9053 34.5307 53.7183 34.5889 53.5568C35.0189 52.3775 35.6348 51.2288 36.6617 50.4719C36.7995 50.3702 37.0145 50.4503 37.0942 50.5864C37.1865 50.7454 37.1182 50.921 36.9804 51.0215ZM38.7838 56.2346C38.7661 56.316 38.7067 56.3808 38.6384 56.4241C38.5713 56.4686 38.4702 56.4775 38.3955 56.4559C38.3133 56.4343 38.2526 56.3796 38.2058 56.3109C38.0376 56.0603 37.9061 55.7906 37.7961 55.5095C37.7645 55.4319 37.7898 55.3352 37.8277 55.2639C37.8656 55.1914 37.9403 55.1431 38.0161 55.1189C38.092 55.0935 38.1919 55.11 38.2602 55.1507C38.3361 55.1952 38.374 55.2614 38.4057 55.3403C38.4095 55.3517 38.4145 55.3632 38.4196 55.3746C38.5119 55.5896 38.6219 55.7957 38.7522 55.989C38.8002 56.0603 38.8028 56.1544 38.7838 56.2346ZM40.4557 54.7805C40.4367 54.8607 40.3773 54.9268 40.3103 54.9701C40.2432 55.0133 40.1421 55.0235 40.0662 55.0019C39.9979 54.9828 39.9081 54.9243 39.8777 54.8556C39.8373 54.7653 39.7854 54.68 39.726 54.5986C39.6678 54.5274 39.6046 54.4625 39.5338 54.404C39.4958 54.376 39.4566 54.348 39.4149 54.3251C39.3415 54.2844 39.2947 54.2132 39.2694 54.1343C39.2429 54.0529 39.2618 53.9639 39.3011 53.8901C39.3377 53.8214 39.4161 53.7641 39.4895 53.7438C39.5704 53.7209 39.6615 53.7349 39.7336 53.7756C39.8828 53.8595 40.0219 53.9728 40.1357 54.1012C40.2508 54.231 40.352 54.376 40.4241 54.535C40.4519 54.5846 40.4671 54.6381 40.4671 54.6953C40.4633 54.7233 40.4595 54.7526 40.4557 54.7805ZM41.7001 53.5606C41.6609 53.6344 41.5876 53.6814 41.5104 53.7069C41.4346 53.7311 41.3346 53.7145 41.2664 53.6751C41.1905 53.6293 41.1538 53.5644 41.1222 53.4843C41.1171 53.4728 41.1121 53.4614 41.107 53.4486C41.0159 53.2349 40.9085 53.0263 40.7744 52.8355C40.7263 52.7668 40.7251 52.6701 40.7428 52.5913C40.7617 52.5098 40.8212 52.445 40.8882 52.4004C40.9552 52.3572 41.0564 52.3483 41.1323 52.3686C41.2158 52.3915 41.2727 52.4462 41.3207 52.5149C41.494 52.7617 41.6205 53.0352 41.7318 53.3151C41.7621 53.3939 41.7368 53.4894 41.7001 53.5606Z" fill="white"/>
<path d="M36.5554 58.0638C36.0128 56.6899 34.8847 55.4967 33.4733 55.026C32.2782 54.6279 30.7619 54.9344 29.8741 55.8554C29.7135 56.0221 29.5857 56.2053 29.4795 56.4037C28.8029 56.1518 28.0416 56.3274 27.4168 56.6454C26.782 56.9685 26.228 57.4748 25.8954 58.1109C25.5363 58.794 25.4073 59.5662 25.3466 60.3282C25.2985 60.935 25.2732 61.5481 25.32 62.1562C25.4123 63.3405 25.6943 64.5197 26.1496 65.6163C26.6087 66.7218 27.2486 67.7903 28.2148 68.5192C28.679 68.8691 29.2316 69.1248 29.8109 69.1884C30.5583 69.271 31.2488 68.9606 31.9317 68.7062C32.2808 68.5765 32.6273 68.4849 32.9953 68.4315C33.3064 68.3869 33.6125 68.3106 33.9046 68.191C34.5028 67.9481 35.015 67.5537 35.4121 67.0436C35.8573 66.4699 36.1608 65.8084 36.4112 65.1291C36.6844 64.3874 36.8741 63.614 36.9841 62.8304C37.2041 61.2555 37.146 59.556 36.5554 58.0638ZM36.4517 61.8394C36.372 63.2642 36.0204 64.7474 35.3362 66.0056C35.0732 66.4877 34.7304 66.952 34.2865 67.2662C33.7845 67.6224 33.2381 67.7483 32.6399 67.8437C31.9709 67.9506 31.3702 68.2852 30.7227 68.4658C30.4217 68.5498 30.1081 68.5968 29.7957 68.5498C29.5301 68.5103 29.2885 68.4175 29.0773 68.3106C28.1731 67.8539 27.537 67.0016 27.0665 66.0997C26.5531 65.1138 26.2242 64.0236 26.0447 62.9233C25.9726 62.478 25.9258 61.987 25.927 61.5049C25.9296 60.8523 25.9587 60.1831 26.0801 59.5407C26.2027 58.8945 26.4354 58.2623 26.9072 57.789C27.3409 57.3553 27.9328 57.0143 28.5462 56.9329C28.8345 56.8935 29.1165 56.9316 29.3859 57.0449C29.4517 57.0728 29.5225 57.0627 29.587 57.0334C29.7704 57.083 29.9095 56.9698 29.9765 56.8108C30.3901 55.8236 31.7117 55.4153 32.7095 55.5056C33.9539 55.6188 35.0871 56.6403 35.6916 57.7114C36.3821 58.9314 36.5288 60.4617 36.4517 61.8394Z" fill="#231F20"/>
<path d="M36.4516 61.8394C36.372 63.2642 36.0204 64.7474 35.3362 66.0056C35.0731 66.4877 34.7304 66.952 34.2865 67.2662C33.7844 67.6224 33.2381 67.7483 32.6399 67.8437C31.9709 67.9506 31.3702 68.2852 30.7227 68.4658C30.4217 68.5498 30.108 68.5968 29.7957 68.5498C29.5301 68.5103 29.2885 68.4175 29.0773 68.3106C28.1731 67.8539 27.537 67.0016 27.0665 66.0997C26.553 65.1138 26.2242 64.0236 26.0446 62.9233C25.9726 62.478 25.9258 61.987 25.927 61.5049C25.9296 60.8523 25.9586 60.1831 26.0801 59.5407C26.2027 58.8945 26.4354 58.2623 26.9071 57.789C27.3409 57.3553 27.9328 57.0143 28.5462 56.9329C28.8345 56.8935 29.1165 56.9316 29.3859 57.0449C29.4517 57.0728 29.5225 57.0627 29.587 57.0334C29.7704 57.083 29.9095 56.9698 29.9765 56.8108C30.3901 55.8236 31.7116 55.4153 32.7095 55.5056C33.9539 55.6188 35.0871 56.6403 35.6916 57.7114C36.3821 58.9314 36.5288 60.4617 36.4516 61.8394Z" fill="#FACED6"/>
<path d="M36.9803 51.0215C36.1001 51.6703 35.5652 52.7185 35.1984 53.726C35.1402 53.8876 34.9859 53.997 34.8102 53.9486C34.6546 53.9054 34.5307 53.7184 34.5888 53.5568C35.0188 52.3776 35.6347 51.2289 36.6616 50.472C36.7995 50.3702 37.0145 50.4504 37.0942 50.5865C37.1865 50.7455 37.1182 50.921 36.9803 51.0215Z" fill="#231F20"/>
<path d="M25.0646 56.2803C24.9508 56.3948 24.7295 56.4101 24.6182 56.2803C23.8505 55.3886 22.9564 54.549 21.8018 54.2246C21.4097 54.1139 21.5767 53.5008 21.9687 53.6114C23.2296 53.9651 24.2249 54.8556 25.0646 55.83C25.1772 55.9597 25.1936 56.1506 25.0646 56.2803Z" fill="#231F20"/>
<path d="M23.0475 57.4139C21.5716 56.3796 20.1918 55.3276 18.3125 55.3225C16.7962 55.3187 15.4796 56.2244 15.3797 57.8464C15.1761 61.1564 20.2411 62.6028 22.5821 61.1691C24.1528 60.2074 24.1503 58.4595 22.8957 57.3121" fill="#FACED6"/>
<path d="M40.7187 50.7658C39.3225 50.6653 37.5836 52.6778 37.1169 53.8392C36.5934 55.1418 36.8286 57.0334 38.3917 57.4698C41.2082 58.2559 44.3471 54.8034 43.6793 52.0939C43.2949 50.5317 41.6736 50.4312 40.4165 50.7136" fill="#FACED6"/>
<path d="M17.35 57.377C17.2855 57.7421 17.2425 58.1135 17.2514 58.485C17.2552 58.6516 17.3943 58.8106 17.5676 58.803C17.7408 58.7954 17.8875 58.6631 17.8837 58.485C17.8774 58.2306 17.8976 57.9749 17.9305 57.723L17.9191 57.807C17.9305 57.7192 17.9444 57.6327 17.9596 57.5462C17.9748 57.4597 17.9735 57.3795 17.928 57.3007C17.8901 57.2345 17.8142 57.1722 17.7396 57.1544C17.5853 57.1188 17.3817 57.2014 17.35 57.377Z" fill="#F6A4B4"/>
<path d="M19.1749 57.9775C19.1724 58.3095 19.1458 58.6402 19.1433 58.9723C19.1433 59.1389 19.2887 59.2979 19.4595 59.2903C19.6302 59.2826 19.7744 59.1503 19.7756 58.9723C19.7769 58.6402 19.8035 58.3095 19.8073 57.9775C19.8085 57.8108 19.6606 57.6518 19.4911 57.6594C19.3216 57.6671 19.1762 57.7994 19.1749 57.9775Z" fill="#F6A4B4"/>
<path d="M21.01 58.523C21.0087 58.8385 20.991 59.1476 21.0467 59.4605C21.0606 59.5356 21.1289 59.6132 21.1921 59.6501C21.2604 59.6895 21.3603 59.7073 21.4362 59.6819C21.5121 59.6564 21.5867 59.6094 21.6246 59.5356C21.6664 59.4567 21.6727 59.3791 21.6563 59.2901C21.6512 59.2646 21.6474 59.2379 21.6436 59.2112L21.655 59.2951C21.6208 59.0382 21.6411 58.7787 21.6411 58.5204C21.6411 58.3538 21.4956 58.1948 21.3249 58.2024C21.1542 58.21 21.01 58.3423 21.0087 58.5204L21.01 58.523Z" fill="#F6A4B4"/>
<path d="M38.2993 55.1216C38.4169 55.3633 38.5826 55.5757 38.7217 55.8047C38.7635 55.8734 38.833 55.9293 38.9102 55.951C38.9873 55.9726 39.0872 55.9624 39.1542 55.9192C39.2213 55.8759 39.2807 55.8098 39.2997 55.7296C39.3187 55.6495 39.3123 55.5592 39.2681 55.4841C39.1302 55.2551 38.9645 55.0427 38.8457 54.801C38.8128 54.7323 38.7281 54.6751 38.6572 54.6547C38.5814 54.6343 38.4802 54.6433 38.4131 54.6865C38.3461 54.7298 38.2867 54.7959 38.2677 54.876C38.2475 54.9625 38.2601 55.0414 38.2993 55.1216Z" fill="#F6A4B4"/>
<path d="M39.4895 54.0161C39.626 54.2896 39.8031 54.5402 39.9397 54.8137C39.9738 54.8824 40.0573 54.9396 40.1281 54.96C40.204 54.9803 40.3052 54.9714 40.3722 54.9282C40.524 54.8302 40.5657 54.6521 40.486 54.4931C40.3494 54.2196 40.1736 53.969 40.0358 53.6955C40.0016 53.6268 39.9182 53.5696 39.8474 53.5492C39.7715 53.5289 39.6703 53.5378 39.6033 53.581C39.4515 53.679 39.4098 53.8571 39.4895 54.0161Z" fill="#F6A4B4"/>
<path d="M40.7365 52.9679C40.8756 53.2121 41.0273 53.45 41.1361 53.7108L41.1045 53.6345C41.1121 53.6523 41.1197 53.6701 41.126 53.6892C41.1576 53.7693 41.1955 53.8342 41.2714 53.8787C41.3397 53.9181 41.4396 53.936 41.5155 53.9105C41.5914 53.8851 41.666 53.838 41.7039 53.7642C41.7419 53.6904 41.7659 53.5976 41.7356 53.5187C41.6141 53.2109 41.4459 52.9323 41.2815 52.646C41.2423 52.5773 41.169 52.5214 41.0931 52.4997C41.0172 52.4781 40.916 52.4883 40.849 52.5316C40.7048 52.6257 40.6479 52.8127 40.7352 52.9666L40.7365 52.9679Z" fill="#F6A4B4"/>
<path d="M7.75494 73.0264C7.30724 72.3369 6.60282 71.7352 5.73399 71.8293C5.35458 71.87 4.99289 71.9934 4.71213 72.2618C4.46931 72.4946 4.32388 72.8076 4.21511 73.1205C4.19741 73.1739 4.18097 73.2286 4.16453 73.2833C3.02759 72.805 1.56436 73.2655 1.09516 74.4778C0.814406 75.2029 0.954785 76.0845 1.37592 76.7244C1.80717 77.3782 2.46986 77.8311 3.17935 78.1313C4.4984 78.6898 6.43715 78.8437 7.39956 77.5551C7.87634 76.9177 8.13307 76.1061 8.23298 75.3212C8.33542 74.5084 8.20389 73.7171 7.75494 73.0264ZM7.10742 76.8351C6.96957 77.0882 6.80643 77.3299 6.575 77.5004C6.33091 77.681 6.05268 77.784 5.75802 77.8464C5.15097 77.9736 4.49714 77.896 3.90527 77.7204C2.75442 77.3795 1.50998 76.5183 1.59092 75.1711C1.67185 73.8482 3.21729 73.3647 4.22017 74.0326C4.44908 74.184 4.66534 73.9868 4.68178 73.7718C4.75513 73.5009 4.82722 73.2286 4.94736 73.0009C5.05865 72.7923 5.1965 72.6371 5.40644 72.5506C5.68972 72.4323 6.02613 72.417 6.31321 72.529C6.60661 72.6435 6.85069 72.875 7.04545 73.118C7.459 73.6319 7.65123 74.2222 7.63479 74.8798C7.61835 75.5553 7.43118 76.2448 7.10742 76.8351Z" fill="#853A8F"/>
<path d="M7.63478 74.8798C7.61834 75.5553 7.43117 76.2448 7.10741 76.835C6.96956 77.0882 6.80642 77.3299 6.57499 77.5003C6.3309 77.681 6.05268 77.784 5.75801 77.8464C5.15096 77.9736 4.49713 77.896 3.90526 77.7204C2.75441 77.3795 1.50997 76.5183 1.59091 75.1711C1.67185 73.8481 3.21728 73.3647 4.22016 74.0326C4.44907 74.184 4.66533 73.9868 4.68177 73.7718C4.75512 73.5008 4.82721 73.2286 4.94735 73.0009C5.05864 72.7923 5.19649 72.6371 5.40643 72.5506C5.68971 72.4323 6.02612 72.417 6.3132 72.529C6.6066 72.6435 6.85069 72.875 7.04544 73.1179C7.45899 73.6319 7.65122 74.2221 7.63478 74.8798Z" fill="#853A8F"/>
<path d="M6.45996 42.0698C6.42961 41.2862 6.20576 40.4695 5.60251 39.934C5.05997 39.4518 4.30496 39.2381 3.63215 39.574C3.12502 39.8271 2.8392 40.3499 2.80126 40.8982C1.91346 40.5229 0.776517 40.6883 0.254206 41.5712C-0.11002 42.1881 -0.0682853 43.0061 0.292147 43.6129C0.665225 44.2413 1.31147 44.6496 1.96784 44.9244C3.26919 45.4701 5.09791 45.6686 5.96294 44.2922C6.36511 43.6536 6.48905 42.814 6.45996 42.0698ZM5.59239 43.6294C5.37108 44.1955 4.93223 44.5542 4.35807 44.6687C3.78897 44.7845 3.15157 44.6585 2.59259 44.4805C2.05763 44.3087 1.51762 44.0492 1.11924 43.6498C0.741106 43.2694 0.546346 42.7542 0.667755 42.2314C0.728459 41.9693 0.834692 41.7811 1.04716 41.608C1.05474 41.6042 1.09521 41.5737 1.09521 41.5737C1.12177 41.5559 1.14833 41.5394 1.17489 41.5228C1.20145 41.5076 1.22927 41.4936 1.25709 41.4783C1.2748 41.4694 1.29377 41.4605 1.31274 41.4516C1.31653 41.4503 1.31906 41.449 1.32412 41.4465C1.3823 41.4236 1.443 41.4045 1.5037 41.3892C1.53532 41.3803 1.56567 41.374 1.59729 41.3676C1.60488 41.3651 1.67191 41.3549 1.68329 41.3524C2.13731 41.3015 2.56856 41.4185 2.91002 41.692C2.9252 41.7391 2.9429 41.7874 2.96187 41.8345C3.02637 41.9935 3.17181 42.1054 3.35013 42.0558C3.46774 42.024 3.57398 41.9019 3.58536 41.7747C3.6448 41.6653 3.64733 41.5266 3.53983 41.4096C3.5158 41.3842 3.49177 41.3587 3.46648 41.3345C3.42474 41.1564 3.40957 40.9784 3.43992 40.8244C3.48924 40.57 3.57524 40.411 3.75609 40.2469C3.88003 40.135 4.10387 40.0497 4.28219 40.0421C4.5326 40.0319 4.75392 40.1044 4.98029 40.2507C5.49628 40.584 5.73277 41.1654 5.80486 41.762C5.88074 42.3802 5.81877 43.0468 5.59239 43.6294Z" fill="#EF5AA1"/>
<path d="M5.59244 43.6293C5.37113 44.1954 4.93228 44.5541 4.35812 44.6686C3.78902 44.7844 3.15162 44.6584 2.59264 44.4803C2.05768 44.3086 1.51766 44.0491 1.11929 43.6496C0.741155 43.2693 0.546395 42.7541 0.667803 42.2312C0.728508 41.9692 0.83474 41.7809 1.04721 41.6079C1.05479 41.6041 1.09526 41.5736 1.09526 41.5736C1.12182 41.5558 1.14838 41.5392 1.17494 41.5227C1.2015 41.5074 1.22932 41.4934 1.25714 41.4782C1.27485 41.4693 1.29382 41.4604 1.31279 41.4514C1.31658 41.4502 1.31911 41.4489 1.32417 41.4464C1.38234 41.4235 1.44305 41.4044 1.50375 41.3891C1.53537 41.3802 1.56572 41.3739 1.59734 41.3675C1.60493 41.3649 1.67195 41.3548 1.68334 41.3522C2.13735 41.3013 2.56861 41.4184 2.91007 41.6919C2.92525 41.7389 2.94295 41.7873 2.96192 41.8343C3.02642 41.9934 3.17186 42.1053 3.35018 42.0557C3.46779 42.0239 3.57402 41.9018 3.58541 41.7746C3.64485 41.6652 3.64737 41.5265 3.53988 41.4095C3.51585 41.384 3.49182 41.3586 3.46653 41.3344C3.42479 41.1563 3.40962 40.9782 3.43997 40.8243C3.48929 40.5699 3.57529 40.4109 3.75614 40.2468C3.88007 40.1348 4.10392 40.0496 4.28224 40.042C4.53265 40.0318 4.75396 40.1043 4.98034 40.2506C5.49633 40.5839 5.73282 41.1652 5.80491 41.7618C5.88079 42.3801 5.81882 43.0467 5.59244 43.6293Z" fill="#EF5AA1"/>
<path d="M58.9604 74.9994C58.6101 75.6978 57.9854 76.1583 57.2632 76.4165C56.5449 76.6747 55.7545 76.8007 54.9931 76.8312C54.6491 76.8452 54.3481 76.8325 54.0434 76.7549C53.9725 76.7358 53.9017 76.7142 53.8322 76.69C53.8208 76.6849 53.7752 76.6684 53.7677 76.6658C53.7575 76.6595 53.7032 76.6353 53.6842 76.6251C53.6222 76.5933 53.5628 76.559 53.5046 76.5208C53.4818 76.5043 53.4578 76.4877 53.4351 76.4712C53.4338 76.4699 53.4313 76.4674 53.4287 76.4648C53.4136 76.4521 53.3984 76.4394 53.3832 76.4267C53.1809 76.246 53.0417 76.0247 52.9532 75.7843C52.828 75.4446 52.7762 75.0859 52.7572 74.7259C52.7155 73.9499 52.7471 73.1561 52.9216 72.3954C53.0076 72.0201 53.1265 71.6512 53.32 71.3166C53.4085 71.164 53.5008 71.0355 53.6222 70.9108C53.6652 70.8663 53.7107 70.8243 53.7588 70.7862C53.7702 70.7785 53.8031 70.7544 53.8119 70.7493C53.841 70.7302 53.8701 70.7111 53.9005 70.6933C53.9586 70.659 54.0193 70.6284 54.0813 70.6004C54.0939 70.5966 54.1344 70.5801 54.1433 70.5763C54.1762 70.5636 54.2116 70.5521 54.2457 70.5419C54.3165 70.5203 54.3874 70.5025 54.4594 70.4872C54.4948 70.4796 54.5315 70.4732 54.5682 70.4669C54.5745 70.4669 54.5771 70.4669 54.5796 70.4669C54.596 70.4643 54.6112 70.4631 54.6276 70.4605C54.7769 70.4453 54.9286 70.4427 55.0791 70.4529C55.1158 70.4554 55.1537 70.4592 55.1917 70.4631C55.2574 70.4707 55.2018 70.4631 55.2511 70.472C55.3257 70.4847 55.3991 70.5 55.4712 70.5178C55.5433 70.5368 55.6154 70.5585 55.6849 70.5826C55.7747 70.6157 55.7545 70.6068 55.8405 70.6488C55.905 70.6793 55.9682 70.7149 56.0302 70.7531C56.0555 70.7684 56.0808 70.7862 56.106 70.8027C56.1212 70.8142 56.1364 70.8243 56.1516 70.8358C56.1554 70.8383 56.1592 70.8421 56.163 70.8447C56.2161 70.8905 56.2679 70.9375 56.316 70.9884C56.3362 71.0101 56.3552 71.033 56.3742 71.0559C56.3792 71.0609 56.3805 71.0622 56.383 71.0648C56.3843 71.0673 56.3868 71.0699 56.3893 71.0724C56.3893 71.0749 56.3906 71.0762 56.3931 71.0788C56.3994 71.0889 56.407 71.1004 56.4146 71.1106C56.4526 71.1691 56.4867 71.2289 56.5183 71.2912C56.5234 71.3026 56.5259 71.3077 56.5284 71.3103C56.5284 71.3128 56.531 71.3179 56.5348 71.3281C56.5487 71.3663 56.5613 71.4057 56.5727 71.4451C56.5828 71.4807 56.5891 71.5164 56.598 71.5532C56.6119 71.6169 56.6031 71.5634 56.6081 71.613C56.6157 71.6919 56.617 71.7721 56.6132 71.8522C56.6081 71.9845 56.6714 72.0735 56.7599 72.1206C56.8079 72.1995 56.8939 72.2542 57.0179 72.2491C57.7198 72.216 58.4533 72.4552 58.8656 73.0136C59.2943 73.595 59.288 74.3468 58.9604 75.0007V74.9994Z" fill="#EF8CBA"/>
<path d="M62.4951 67.2254C62.4331 67.1593 62.3484 67.1224 62.2636 67.0919C62.1802 67.0626 62.0942 67.0435 62.0082 67.0295C61.8324 67.0003 61.6541 66.9901 61.4758 66.9876C61.4568 66.8196 61.4138 66.6543 61.3581 66.4952C61.2936 66.3146 61.2076 66.1085 61.0432 65.9979C60.8991 65.8999 60.7119 65.933 60.5905 66.05C60.4653 66.1709 60.3983 66.3477 60.3464 66.5092C60.2971 66.6632 60.2667 66.8222 60.2199 66.9761C60.0366 66.999 59.8532 67.0384 59.6787 67.102C59.4978 67.1682 59.298 67.2598 59.2208 67.4506C59.1424 67.644 59.2626 67.8449 59.4295 67.9416C59.5092 67.9874 59.599 68.0154 59.685 68.0459C59.7874 68.0816 59.8911 68.107 59.9948 68.1388C60.0758 68.163 60.1706 68.1871 60.2225 68.2597C60.2705 68.3271 60.2895 68.411 60.3148 68.4886C60.3654 68.6375 60.4299 68.7888 60.5209 68.9186C60.6094 69.0458 60.7321 69.1641 60.8902 69.1946C61.0458 69.2239 61.2152 69.1781 61.3265 69.0624C61.4391 68.9466 61.4871 68.7825 61.5213 68.6286C61.539 68.551 61.5529 68.4721 61.5719 68.3945C61.5795 68.3601 61.5896 68.3245 61.5997 68.2915C61.6047 68.2736 61.6111 68.2571 61.6174 68.2406C61.6174 68.238 61.6187 68.2368 61.6187 68.2355C61.6187 68.2355 61.6187 68.2342 61.6199 68.2317C61.7957 68.1782 61.9538 68.0739 62.122 68.004C62.2763 67.9391 62.4445 67.8666 62.533 67.7152C62.6228 67.5613 62.6203 67.359 62.4951 67.2267V67.2254ZM62.4116 67.6122C62.3522 67.7368 62.2105 67.7979 62.0916 67.8475C62.0044 67.8844 61.9171 67.9225 61.8324 67.9671C61.7439 68.0141 61.6553 68.0599 61.558 68.0866C61.539 68.0866 61.5213 68.0955 61.5074 68.1134C61.5023 68.1197 61.4973 68.1274 61.4947 68.1363C61.386 68.3627 61.3961 68.6426 61.2835 68.8563C61.2279 68.9619 61.1457 69.0305 61.023 69.0458C60.8902 69.0624 60.784 68.9949 60.6954 68.8932C60.6069 68.7901 60.5424 68.6553 60.4944 68.5306C60.4375 68.383 60.4109 68.2037 60.2806 68.0994C60.2022 68.037 60.0973 68.0078 60.0024 67.9798C59.9063 67.9518 59.8102 67.9251 59.7153 67.8933C59.5737 67.8449 59.3916 67.7877 59.3536 67.6198C59.3119 67.4379 59.5332 67.3272 59.6673 67.2738C59.8557 67.1987 60.0581 67.1517 60.2591 67.1288C60.287 67.1262 60.3123 67.1122 60.3262 67.0893C60.3413 67.0804 60.3527 67.0664 60.3603 67.0461C60.402 66.9163 60.4273 66.7815 60.4653 66.6492C60.488 66.5678 60.5146 66.4876 60.5462 66.41C60.5487 66.4024 60.5563 66.3871 60.5639 66.3706C60.5728 66.3515 60.5816 66.3337 60.5917 66.3146C60.6094 66.2803 60.6297 66.2459 60.6537 66.2141C60.6562 66.2116 60.6562 66.2103 60.6562 66.2103C60.6562 66.2103 60.6575 66.2077 60.66 66.2052C60.6651 66.1988 60.6702 66.1925 60.6752 66.1874C60.6866 66.1747 60.6992 66.162 60.7119 66.1505C60.7144 66.1492 60.7245 66.1403 60.7258 66.1391C60.7296 66.1365 60.7347 66.1327 60.7384 66.1301C60.7448 66.1263 60.7511 66.1225 60.7562 66.1187C60.7587 66.1174 60.7701 66.1123 60.7739 66.1098C60.7776 66.1085 60.7878 66.1047 60.7903 66.1047C60.7966 66.1034 60.8042 66.1009 60.8105 66.0996C60.8131 66.0996 60.8169 66.0996 60.8194 66.0983C60.8282 66.0983 60.8358 66.0983 60.8447 66.0983C60.8738 66.0983 60.9016 66.1034 60.9269 66.1136C60.9509 66.1238 60.9749 66.1416 60.9964 66.1632C61.0281 66.1938 61.0458 66.2167 61.066 66.2485C61.1153 66.3222 61.1545 66.4062 61.1861 66.4863C61.2253 66.5894 61.257 66.695 61.2823 66.8018C61.2936 66.8476 61.3025 66.8934 61.3101 66.9392C61.3139 66.9596 61.3164 66.9786 61.3189 66.999C61.3189 67.0028 61.3202 67.0104 61.3202 67.0143C61.3202 67.0193 61.3202 67.0257 61.3215 67.0308C61.2987 67.0766 61.3215 67.1466 61.3872 67.1466C61.5491 67.1466 61.7122 67.1517 61.8729 67.1707C62.0208 67.1885 62.1865 67.2153 62.318 67.2916C62.4382 67.3615 62.4647 67.4926 62.4066 67.616L62.4116 67.6122Z" fill="#EBA4C8"/>
<path d="M62.4129 67.6122C62.3534 67.7369 62.2118 67.7979 62.0929 67.8475C62.0056 67.8844 61.9184 67.9226 61.8336 67.9671C61.7451 68.0142 61.6566 68.06 61.5592 68.0867C61.5402 68.0867 61.5225 68.0956 61.5086 68.1134C61.5036 68.1198 61.4985 68.1274 61.496 68.1363C61.3872 68.3627 61.3973 68.6426 61.2848 68.8563C61.2291 68.9619 61.1469 69.0306 61.0243 69.0459C60.8915 69.0624 60.7852 68.995 60.6967 68.8932C60.6082 68.7902 60.5437 68.6553 60.4956 68.5306C60.4387 68.3831 60.4122 68.2037 60.2819 68.0994C60.2035 68.0371 60.0985 68.0078 60.0037 67.9798C59.9076 67.9518 59.8114 67.9251 59.7166 67.8933C59.5749 67.845 59.3928 67.7877 59.3549 67.6198C59.3132 67.4379 59.5345 67.3272 59.6685 67.2738C59.857 67.1988 60.0593 67.1517 60.2604 67.1288C60.2882 67.1263 60.3135 67.1123 60.3274 67.0894C60.3426 67.0805 60.354 67.0665 60.3616 67.0461C60.4033 66.9164 60.4286 66.7815 60.4665 66.6492C60.4893 66.5678 60.5159 66.4877 60.5475 66.4101C60.55 66.4024 60.5576 66.3872 60.5652 66.3706C60.574 66.3515 60.5829 66.3337 60.593 66.3146C60.6107 66.2803 60.6309 66.246 60.655 66.2142C60.6575 66.2116 60.6575 66.2103 60.6575 66.2103C60.6575 66.2103 60.6588 66.2078 60.6613 66.2052C60.6664 66.1989 60.6714 66.1925 60.6765 66.1874C60.6879 66.1747 60.7005 66.162 60.7132 66.1505C60.7157 66.1493 60.7258 66.1404 60.7271 66.1391C60.7309 66.1366 60.7359 66.1327 60.7397 66.1302C60.746 66.1264 60.7524 66.1226 60.7574 66.1187C60.7599 66.1175 60.7713 66.1124 60.7751 66.1098C60.7789 66.1086 60.789 66.1048 60.7916 66.1048C60.7979 66.1035 60.8055 66.1009 60.8118 66.0997C60.8143 66.0997 60.8181 66.0997 60.8206 66.0984C60.8295 66.0984 60.8371 66.0984 60.8459 66.0984C60.875 66.0984 60.9028 66.1035 60.9281 66.1137C60.9522 66.1238 60.9762 66.1416 60.9977 66.1633C61.0293 66.1938 61.047 66.2167 61.0673 66.2485C61.1166 66.3223 61.1558 66.4062 61.1874 66.4864C61.2266 66.5894 61.2582 66.695 61.2835 66.8019C61.2949 66.8477 61.3038 66.8935 61.3113 66.9393C61.3151 66.9596 61.3177 66.9787 61.3202 66.999C61.3202 67.0029 61.3215 67.0105 61.3215 67.0143C61.3215 67.0194 61.3215 67.0258 61.3227 67.0308C61.3 67.0766 61.3227 67.1466 61.3885 67.1466C61.5504 67.1466 61.7135 67.1517 61.8741 67.1708C62.0221 67.1886 62.1878 67.2153 62.3193 67.2916C62.4394 67.3616 62.466 67.4926 62.4078 67.616L62.4129 67.6122Z" fill="#EBA4C8"/>
<path d="M10.9344 81.4769C10.8724 81.4107 10.7877 81.3739 10.703 81.3433C10.6195 81.3141 10.5335 81.295 10.4475 81.281C10.2717 81.2517 10.0934 81.2416 9.91508 81.239C9.89611 81.0711 9.85311 80.9057 9.79747 80.7467C9.73297 80.5661 9.64697 80.36 9.48256 80.2493C9.33839 80.1514 9.15122 80.1844 9.02981 80.3015C8.90461 80.4223 8.83758 80.5991 8.78573 80.7607C8.73641 80.9146 8.70605 81.0736 8.65926 81.2276C8.47588 81.2505 8.29251 81.2899 8.11798 81.3535C7.93713 81.4197 7.73731 81.5112 7.66017 81.7021C7.58176 81.8954 7.7019 82.0964 7.86884 82.1931C7.94851 82.2389 8.03831 82.2669 8.1243 82.2974C8.22674 82.333 8.33045 82.3585 8.43415 82.3903C8.51509 82.4144 8.60994 82.4386 8.66179 82.5111C8.70985 82.5785 8.72882 82.6625 8.75411 82.7401C8.8047 82.8889 8.8692 83.0403 8.96025 83.1701C9.04878 83.2973 9.17145 83.4156 9.32954 83.4461C9.48509 83.4754 9.65456 83.4296 9.76585 83.3138C9.87841 83.198 9.92646 83.0339 9.96061 82.88C9.97832 82.8024 9.99223 82.7236 10.0112 82.646C10.0188 82.6116 10.0289 82.576 10.039 82.5429C10.0441 82.5251 10.0504 82.5086 10.0567 82.492C10.0567 82.4895 10.058 82.4882 10.058 82.4869C10.058 82.4869 10.058 82.4857 10.0593 82.4831C10.235 82.4297 10.3931 82.3254 10.5613 82.2554C10.7156 82.1905 10.8838 82.118 10.9723 81.9667C11.0621 81.8127 11.0596 81.6105 10.9344 81.4782V81.4769ZM10.8509 81.8636C10.7915 81.9883 10.6499 82.0493 10.531 82.099C10.4437 82.1358 10.3565 82.174 10.2717 82.2185C10.1832 82.2656 10.0947 82.3114 9.99729 82.3381C9.97832 82.3381 9.96061 82.347 9.9467 82.3648C9.94164 82.3712 9.93658 82.3788 9.93405 82.3877C9.82529 82.6142 9.83541 82.894 9.72285 83.1077C9.66721 83.2133 9.585 83.282 9.46233 83.2973C9.32954 83.3138 9.22331 83.2464 9.13478 83.1446C9.04625 83.0416 8.98175 82.9067 8.93369 82.7821C8.87678 82.6345 8.85023 82.4551 8.71996 82.3508C8.64155 82.2885 8.53659 82.2592 8.44174 82.2312C8.34562 82.2033 8.24951 82.1765 8.15466 82.1447C8.01301 82.0964 7.8309 82.0392 7.79296 81.8712C7.75122 81.6893 7.97254 81.5787 8.1066 81.5252C8.29503 81.4502 8.49738 81.4031 8.69847 81.3802C8.72629 81.3777 8.75158 81.3637 8.76549 81.3408C8.78067 81.3319 8.79205 81.3179 8.79964 81.2975C8.84137 81.1678 8.86667 81.0329 8.90461 80.9006C8.92737 80.8192 8.95393 80.7391 8.98555 80.6615C8.98808 80.6538 8.99566 80.6386 9.00325 80.622C9.0121 80.603 9.02096 80.5852 9.03108 80.5661C9.04878 80.5317 9.06902 80.4974 9.09304 80.4656C9.09557 80.463 9.09557 80.4618 9.09557 80.4618C9.09557 80.4618 9.09684 80.4592 9.09937 80.4567C9.10443 80.4503 9.10948 80.4439 9.11454 80.4389C9.12593 80.4261 9.13857 80.4134 9.15122 80.402C9.15375 80.4007 9.16387 80.3918 9.16513 80.3905C9.16892 80.388 9.17398 80.3842 9.17778 80.3816C9.1841 80.3778 9.19042 80.374 9.19548 80.3702C9.19801 80.3689 9.20939 80.3638 9.21319 80.3613C9.21698 80.36 9.2271 80.3562 9.22963 80.3562C9.23595 80.3549 9.24354 80.3524 9.24986 80.3511C9.25239 80.3511 9.25619 80.3511 9.25872 80.3498C9.26757 80.3498 9.27516 80.3498 9.28401 80.3498C9.3131 80.3498 9.34092 80.3549 9.36621 80.3651C9.39024 80.3753 9.41427 80.3931 9.43577 80.4147C9.46739 80.4452 9.48509 80.4681 9.50533 80.4999C9.55465 80.5737 9.59385 80.6577 9.62547 80.7378C9.66468 80.8408 9.69629 80.9464 9.72159 81.0533C9.73297 81.0991 9.74182 81.1449 9.74941 81.1907C9.7532 81.211 9.75573 81.2301 9.75826 81.2505C9.75826 81.2543 9.75953 81.2619 9.75953 81.2657C9.75953 81.2708 9.75953 81.2772 9.76079 81.2823C9.73803 81.3281 9.76079 81.398 9.82655 81.398C9.98843 81.398 10.1516 81.4031 10.3122 81.4222C10.4602 81.44 10.6258 81.4667 10.7574 81.543C10.8775 81.613 10.9041 81.744 10.8459 81.8674L10.8509 81.8636Z" fill="#EBA4C8"/>
<path d="M10.8509 81.8624C10.7914 81.9871 10.6498 82.0482 10.5309 82.0978C10.4436 82.1347 10.3564 82.1728 10.2716 82.2174C10.1831 82.2644 10.0946 82.3102 9.9972 82.3369C9.97823 82.3369 9.96053 82.3458 9.94662 82.3636C9.94156 82.37 9.9365 82.3776 9.93397 82.3865C9.82521 82.613 9.83532 82.8928 9.72277 83.1066C9.66712 83.2121 9.58492 83.2808 9.46225 83.2961C9.32945 83.3126 9.22322 83.2452 9.1347 83.1434C9.04617 83.0404 8.98167 82.9056 8.93361 82.7809C8.8767 82.6333 8.85014 82.454 8.71988 82.3496C8.64147 82.2873 8.5365 82.2581 8.44165 82.2301C8.34554 82.2021 8.24942 82.1754 8.15457 82.1436C8.01293 82.0952 7.83082 82.038 7.79288 81.8701C7.75114 81.6882 7.97246 81.5775 8.10652 81.5241C8.29495 81.449 8.4973 81.4019 8.69838 81.379C8.72621 81.3765 8.7515 81.3625 8.76541 81.3396C8.78059 81.3307 8.79197 81.3167 8.79956 81.2964C8.84129 81.1666 8.86658 81.0318 8.90452 80.8995C8.92729 80.818 8.95385 80.7379 8.98546 80.6603C8.98799 80.6527 8.99558 80.6374 9.00317 80.6209C9.01202 80.6018 9.02087 80.584 9.03099 80.5649C9.0487 80.5305 9.06893 80.4962 9.09296 80.4644C9.09549 80.4619 9.09549 80.4606 9.09549 80.4606C9.09549 80.4606 9.09675 80.458 9.09928 80.4555C9.10434 80.4491 9.1094 80.4428 9.11446 80.4377C9.12584 80.425 9.13849 80.4122 9.15114 80.4008C9.15367 80.3995 9.16378 80.3906 9.16505 80.3893C9.16884 80.3868 9.1739 80.383 9.17769 80.3804C9.18402 80.3766 9.19034 80.3728 9.1954 80.369C9.19793 80.3677 9.20931 80.3626 9.2131 80.3601C9.2169 80.3588 9.22702 80.355 9.22955 80.355C9.23587 80.3537 9.24346 80.3512 9.24978 80.3499C9.25231 80.3499 9.2561 80.3499 9.25863 80.3486C9.26749 80.3486 9.27507 80.3486 9.28393 80.3486C9.31301 80.3486 9.34084 80.3537 9.36613 80.3639C9.39016 80.3741 9.41419 80.3919 9.43569 80.4135C9.4673 80.444 9.48501 80.4669 9.50524 80.4987C9.55457 80.5725 9.59377 80.6565 9.62539 80.7366C9.66459 80.8397 9.69621 80.9453 9.7215 81.0521C9.73289 81.0979 9.74174 81.1437 9.74933 81.1895C9.75312 81.2098 9.75565 81.2289 9.75818 81.2493C9.75818 81.2531 9.75944 81.2607 9.75944 81.2645C9.75944 81.2696 9.75944 81.276 9.76071 81.2811C9.73794 81.3269 9.76071 81.3968 9.82647 81.3968C9.98835 81.3968 10.1515 81.4019 10.3121 81.421C10.4601 81.4388 10.6257 81.4655 10.7573 81.5419C10.8774 81.6118 10.904 81.7429 10.8458 81.8663L10.8509 81.8624Z" fill="#EBA4C8"/>
<path d="M5.99959 34.2005C5.93763 34.1344 5.85289 34.0975 5.76816 34.067C5.68469 34.0377 5.59869 34.0186 5.5127 34.0046C5.33691 33.9754 5.15859 33.9652 4.98027 33.9626C4.9613 33.7947 4.9183 33.6294 4.86265 33.4703C4.79815 33.2897 4.71216 33.0836 4.54775 32.9729C4.40358 32.875 4.2164 32.9081 4.095 33.0251C3.96979 33.146 3.90277 33.3228 3.85091 33.4843C3.80159 33.6383 3.77124 33.7973 3.72445 33.9512C3.54107 33.9741 3.35769 34.0135 3.18317 34.0771C3.00232 34.1433 2.8025 34.2349 2.72535 34.4257C2.64694 34.619 2.76709 34.82 2.93403 34.9167C3.0137 34.9625 3.10349 34.9905 3.18949 35.021C3.29193 35.0567 3.39563 35.0821 3.49933 35.1139C3.58027 35.1381 3.67512 35.1622 3.72698 35.2347C3.77503 35.3022 3.794 35.3861 3.8193 35.4637C3.86988 35.6126 3.93438 35.7639 4.02544 35.8937C4.11397 36.0209 4.23664 36.1392 4.39472 36.1697C4.55028 36.199 4.71974 36.1532 4.83104 36.0374C4.94359 35.9217 4.99165 35.7576 5.0258 35.6037C5.0435 35.5261 5.05741 35.4472 5.07638 35.3696C5.08397 35.3352 5.09409 35.2996 5.10421 35.2666C5.10926 35.2487 5.11559 35.2322 5.12191 35.2157C5.12191 35.2131 5.12318 35.2118 5.12318 35.2106C5.12318 35.2106 5.12318 35.2093 5.12444 35.2068C5.30023 35.1533 5.45831 35.049 5.62652 34.9791C5.78081 34.9142 5.94901 34.8417 6.03754 34.6903C6.12733 34.5364 6.1248 34.3341 5.99959 34.2018V34.2005ZM5.91613 34.5872C5.85669 34.7119 5.71504 34.773 5.59616 34.8226C5.5089 34.8595 5.42164 34.8976 5.33691 34.9422C5.24838 34.9892 5.15985 35.035 5.06247 35.0617C5.0435 35.0617 5.0258 35.0706 5.01188 35.0885C5.00683 35.0948 5.00177 35.1024 4.99924 35.1114C4.89048 35.3378 4.90059 35.6177 4.78804 35.8314C4.73239 35.9369 4.65019 36.0056 4.52751 36.0209C4.39472 36.0374 4.28849 35.97 4.19996 35.8683C4.11144 35.7652 4.04694 35.6304 3.99888 35.5057C3.94197 35.3581 3.91541 35.1788 3.78515 35.0745C3.70674 35.0121 3.60177 34.9829 3.50692 34.9549C3.41081 34.9269 3.31469 34.9002 3.21984 34.8684C3.0782 34.82 2.89608 34.7628 2.85814 34.5949C2.81641 34.413 3.03773 34.3023 3.17178 34.2489C3.36022 34.1738 3.56257 34.1267 3.76365 34.1038C3.79147 34.1013 3.81677 34.0873 3.83068 34.0644C3.84586 34.0555 3.85724 34.0415 3.86483 34.0212C3.90656 33.8914 3.93185 33.7566 3.96979 33.6243C3.99256 33.5429 4.01912 33.4627 4.05073 33.3851C4.05326 33.3775 4.06085 33.3622 4.06844 33.3457C4.07729 33.3266 4.08614 33.3088 4.09626 33.2897C4.11397 33.2554 4.1342 33.221 4.15823 33.1892C4.16076 33.1867 4.16076 33.1854 4.16076 33.1854C4.16076 33.1854 4.16202 33.1828 4.16455 33.1803C4.16961 33.1739 4.17467 33.1676 4.17973 33.1625C4.19111 33.1498 4.20376 33.137 4.2164 33.1256C4.21893 33.1243 4.22905 33.1154 4.23032 33.1142C4.23411 33.1116 4.23917 33.1078 4.24296 33.1052C4.24929 33.1014 4.25561 33.0976 4.26067 33.0938C4.2632 33.0925 4.27458 33.0874 4.27837 33.0849C4.28217 33.0836 4.29228 33.0798 4.29481 33.0798C4.30114 33.0785 4.30873 33.076 4.31505 33.0747C4.31758 33.0747 4.32137 33.0747 4.3239 33.0734C4.33275 33.0734 4.34034 33.0734 4.3492 33.0734C4.37828 33.0734 4.40611 33.0785 4.4314 33.0887C4.45543 33.0989 4.47946 33.1167 4.50096 33.1383C4.53257 33.1689 4.55028 33.1918 4.57051 33.2236C4.61984 33.2973 4.65904 33.3813 4.69066 33.4614C4.72986 33.5645 4.76148 33.6701 4.78677 33.7769C4.79815 33.8227 4.80701 33.8685 4.8146 33.9143C4.81839 33.9347 4.82092 33.9537 4.82345 33.9741C4.82345 33.9779 4.82471 33.9855 4.82471 33.9894C4.82471 33.9944 4.82471 34.0008 4.82598 34.0059C4.80321 34.0517 4.82598 34.1217 4.89174 34.1217C5.05362 34.1217 5.21676 34.1267 5.37738 34.1458C5.52534 34.1636 5.69101 34.1903 5.82254 34.2667C5.94268 34.3366 5.96924 34.4677 5.91107 34.5911L5.91613 34.5872Z" fill="#EBA4C8"/>
<path d="M5.91616 34.5873C5.85673 34.712 5.71508 34.773 5.5962 34.8226C5.50894 34.8595 5.42168 34.8977 5.33694 34.9422C5.24842 34.9893 5.15989 35.0351 5.06251 35.0618C5.04354 35.0618 5.02583 35.0707 5.01192 35.0885C5.00686 35.0949 5.00181 35.1025 4.99928 35.1114C4.89051 35.3378 4.90063 35.6177 4.78808 35.8314C4.73243 35.937 4.65023 36.0057 4.52755 36.021C4.39476 36.0375 4.28853 35.9701 4.2 35.8683C4.11148 35.7653 4.04698 35.6304 3.99892 35.5057C3.94201 35.3582 3.91545 35.1788 3.78519 35.0745C3.70678 35.0122 3.60181 34.9829 3.50696 34.9549C3.41085 34.9269 3.31473 34.9002 3.21988 34.8684C3.07824 34.8201 2.89612 34.7628 2.85818 34.5949C2.81645 34.413 3.03777 34.3023 3.17182 34.2489C3.36026 34.1739 3.56261 34.1268 3.76369 34.1039C3.79151 34.1013 3.81681 34.0874 3.83072 34.0645C3.84589 34.0556 3.85728 34.0416 3.86486 34.0212C3.9066 33.8914 3.93189 33.7566 3.96983 33.6243C3.9926 33.5429 4.01915 33.4628 4.05077 33.3852C4.0533 33.3775 4.06089 33.3623 4.06848 33.3457C4.07733 33.3266 4.08618 33.3088 4.0963 33.2897C4.114 33.2554 4.13424 33.2211 4.15827 33.1892C4.1608 33.1867 4.1608 33.1854 4.1608 33.1854C4.1608 33.1854 4.16206 33.1829 4.16459 33.1803C4.16965 33.174 4.17471 33.1676 4.17977 33.1625C4.19115 33.1498 4.2038 33.1371 4.21644 33.1256C4.21897 33.1244 4.22909 33.1155 4.23036 33.1142C4.23415 33.1117 4.23921 33.1078 4.243 33.1053C4.24932 33.1015 4.25565 33.0977 4.26071 33.0938C4.26324 33.0926 4.27462 33.0875 4.27841 33.0849C4.28221 33.0837 4.29232 33.0798 4.29485 33.0798C4.30118 33.0786 4.30876 33.076 4.31509 33.0748C4.31762 33.0748 4.32141 33.0748 4.32394 33.0735C4.33279 33.0735 4.34038 33.0735 4.34923 33.0735C4.37832 33.0735 4.40614 33.0786 4.43144 33.0888C4.45547 33.0989 4.4795 33.1167 4.501 33.1384C4.53261 33.1689 4.55032 33.1918 4.57055 33.2236C4.61987 33.2974 4.65908 33.3813 4.6907 33.4615C4.7299 33.5645 4.76152 33.6701 4.78681 33.777C4.79819 33.8228 4.80705 33.8686 4.81463 33.9143C4.81843 33.9347 4.82096 33.9538 4.82349 33.9741C4.82349 33.978 4.82475 33.9856 4.82475 33.9894C4.82475 33.9945 4.82475 34.0009 4.82602 34.0059C4.80325 34.0517 4.82602 34.1217 4.89178 34.1217C5.05366 34.1217 5.2168 34.1268 5.37741 34.1459C5.52538 34.1637 5.69105 34.1904 5.82258 34.2667C5.94272 34.3367 5.96928 34.4677 5.91111 34.5911L5.91616 34.5873Z" fill="#EBA4C8"/>
<path d="M38.7749 77.7826C38.8242 77.6656 38.809 77.5257 38.7117 77.4315C38.3677 77.0957 37.9288 76.8934 37.5077 76.6759C37.4723 76.6581 37.4343 76.6466 37.3951 76.6403C37.3762 76.6199 37.3559 76.6009 37.3319 76.5881C37.17 76.4927 37.0031 76.564 36.8994 76.7013C35.8965 78.0358 34.5319 79.0649 33.2483 80.108C31.909 81.197 30.662 82.3978 29.305 83.4638C28.5361 84.0668 27.7229 84.624 26.8452 85.0527C26.7542 85.0972 26.6783 85.2257 26.6884 85.3275C26.7263 85.7155 26.9123 86.1085 27.1045 86.4406C27.3106 86.7955 27.5863 87.1033 28.0302 86.9927C28.4488 86.8871 28.8169 86.5665 29.1495 86.307C29.2228 86.2498 29.2949 86.1912 29.3683 86.1327C29.3834 86.1213 29.3986 86.1085 29.415 86.0971C29.4163 86.0971 29.4176 86.0946 29.4214 86.092C29.4492 86.0704 29.4783 86.0488 29.5074 86.0284C29.7856 85.8287 30.0651 85.6315 30.3408 85.4292C31.4448 84.6151 32.5198 83.7564 33.5644 82.8672C34.5951 81.9907 35.5765 81.0596 36.6047 80.1818C37.0537 79.7989 37.4862 79.4084 37.8669 78.9568C38.0123 78.7851 38.1565 78.612 38.3082 78.4467C38.3715 78.3767 38.4372 78.3067 38.508 78.2444C38.5118 78.2406 38.5156 78.2368 38.5207 78.233C38.7155 78.2012 38.8735 77.9773 38.7749 77.7826ZM27.8557 86.3948C27.8557 86.3948 27.8532 86.3935 27.8519 86.3935C27.8519 86.3935 27.8506 86.3922 27.8506 86.391C27.8671 86.396 27.8759 86.3986 27.8797 86.4011C27.8734 86.3999 27.862 86.396 27.8557 86.3948ZM37.8264 78.0345C37.5747 78.3144 37.3483 78.6171 37.0866 78.8868C36.6389 79.3473 36.1317 79.7442 35.6512 80.1678C35.144 80.6156 34.6495 81.0774 34.1437 81.5264C33.1433 82.4118 32.1177 83.2679 31.0642 84.0897C30.5457 84.493 30.0196 84.8873 29.4846 85.2702C29.1368 85.5183 28.8067 85.7867 28.4716 86.0309C28.373 86.1022 28.2718 86.1722 28.1668 86.2345C28.1213 86.2625 28.0758 86.2892 28.0277 86.3134C27.9708 86.3439 27.9518 86.3515 27.9291 86.3592C27.9113 86.3642 27.8936 86.3693 27.8747 86.3757C27.8709 86.377 27.8544 86.3795 27.8418 86.3833C27.8203 86.3604 27.7773 86.3134 27.776 86.3134C27.6673 86.1772 27.5471 85.9381 27.4649 85.7485C27.4396 85.6888 27.3992 85.587 27.3713 85.5005C27.3713 85.5005 27.3713 85.4979 27.3713 85.4967C28.9029 84.7067 30.2346 83.5567 31.5233 82.4233C32.1607 81.8623 32.793 81.2975 33.4506 80.7594C34.1158 80.2136 34.7912 79.6806 35.4412 79.1158C36.0951 78.5446 36.7185 77.9404 37.2611 77.2611C37.4293 77.3463 37.5975 77.4303 37.7619 77.5231C37.8605 77.5791 37.9592 77.6389 38.0528 77.705C38.073 77.719 38.0932 77.733 38.1135 77.7483C38.0022 77.8386 37.9035 77.9506 37.8277 78.0345H37.8264ZM38.2652 78.1452C38.3158 78.1961 38.3727 78.2228 38.4284 78.233C38.3854 78.2368 38.3398 78.219 38.2652 78.1452Z" fill="#231F20"/>
<path d="M38.1122 77.7484C38.0009 77.8388 37.9023 77.9507 37.8264 78.0347C37.5747 78.3145 37.3484 78.6173 37.0866 78.887C36.6389 79.3475 36.1317 79.7444 35.6512 80.168C35.144 80.6158 34.6495 81.0775 34.1437 81.5266C33.1433 82.412 32.1177 83.2681 31.0642 84.0899C30.5457 84.4931 30.0196 84.8875 29.4846 85.2704C29.1368 85.5185 28.8067 85.7869 28.4716 86.0311C28.373 86.1023 28.2718 86.1723 28.1668 86.2346C28.1213 86.2626 28.0758 86.2893 28.0277 86.3135C27.9708 86.344 27.9518 86.3517 27.9291 86.3593C27.9114 86.3644 27.8936 86.3695 27.8747 86.3758C27.8709 86.3771 27.8544 86.3797 27.8418 86.3835C27.8203 86.3606 27.7773 86.3135 27.776 86.3135C27.6673 86.1774 27.5471 85.9382 27.4649 85.7487C27.4396 85.6889 27.3992 85.5871 27.3713 85.5006C27.3713 85.5006 27.3713 85.4981 27.3713 85.4968C28.9029 84.7069 30.2346 83.5569 31.5233 82.4234C32.1607 81.8624 32.793 81.2976 33.4506 80.7595C34.1158 80.2138 34.7912 79.6808 35.4412 79.116C36.0951 78.5448 36.7185 77.9405 37.2611 77.2612C37.4293 77.3465 37.5975 77.4304 37.7619 77.5233C37.8605 77.5793 37.9592 77.6391 38.0528 77.7052C38.073 77.7192 38.0932 77.7332 38.1135 77.7484H38.1122Z" fill="#129299"/>
<path d="M91.6433 20.0255C91.4131 17.6149 90.7213 15.2513 89.6653 13.0773C88.646 10.9796 87.2473 8.99765 85.4249 7.53092C84.5573 6.8338 83.6101 6.26899 82.573 5.86955C81.3868 5.41414 80.1335 5.15081 78.8701 5.04141C76.3154 4.81879 73.671 5.25258 71.3554 6.37457C70.8065 6.64172 70.2779 6.95084 69.7771 7.30066C69.7556 7.31593 69.7379 7.33119 69.7214 7.349C68.8374 5.55152 67.6044 3.95376 66.0121 2.71982C64.3187 1.40956 62.294 0.573784 60.1934 0.217595C57.9789 -0.156403 55.705 -0.0330088 53.521 0.47456C51.2028 1.01393 48.9808 1.98963 46.9864 3.28972C44.7757 4.73229 42.794 6.57938 41.2726 8.74705C39.4717 11.3154 38.2842 14.3443 37.8213 17.4508C37.5873 19.0231 37.5481 20.598 37.6822 22.1805C37.7922 23.4691 37.9617 24.7577 38.2601 26.0158C38.8065 28.3133 39.8486 30.4122 41.2511 32.3C42.101 33.4424 43.0431 34.5122 44.0207 35.5464C45.1475 36.7384 46.3009 37.9024 47.5922 38.9162C48.8859 39.9301 50.2581 40.8346 51.6265 41.7403C52.9126 42.5926 54.2216 43.4386 55.6431 44.0454C55.7316 44.0835 55.8189 44.1191 55.9087 44.1548C55.9074 44.1688 55.9049 44.1827 55.9061 44.1955C56.0807 46.1685 55.7784 48.1441 55.3054 50.0548C54.8299 51.9756 54.1748 53.8431 53.5248 55.7093C52.9683 57.3045 52.2348 58.8221 51.3672 60.2659C51.3849 60.0904 51.409 59.9161 51.433 59.7418C51.5127 59.1783 51.6113 58.616 51.6809 58.0499C51.7542 57.4571 51.7656 56.8592 51.7744 56.2614C51.7833 55.5821 51.7744 54.9015 51.7454 54.2222C51.6859 52.8776 51.5342 51.538 51.3002 50.2125C51.0852 49.004 50.7817 47.8197 50.4933 46.629C50.2455 45.6075 49.947 44.4194 49.0845 43.7388C48.9833 43.6599 48.8202 43.5988 48.7013 43.6892C47.7212 44.4384 47.1951 45.6202 46.8182 46.7664C46.397 48.0461 46.1011 49.3742 45.9873 50.7175C45.9177 51.5279 45.9038 52.342 45.9013 53.1536C45.8988 53.9627 45.8937 54.7705 45.8937 55.5795C45.8962 57.1836 46.1188 58.7814 46.4881 60.3397C46.6702 61.1119 46.8688 61.8879 47.1242 62.6397C47.3569 63.3279 47.6465 64.0237 48.1372 64.5707C48.1638 64.6 48.1916 64.6216 48.222 64.6369C47.9804 64.9269 47.7376 65.2157 47.4897 65.5006C46.3212 66.844 45.312 68.3858 43.8981 69.4912C43.7349 69.6184 43.5629 69.7367 43.3884 69.8474C43.2581 69.9288 43.2227 70.056 43.2467 70.1731C43.2303 70.3219 43.31 70.5025 43.4719 70.5293C43.8272 70.5878 44.1573 70.7392 44.5026 70.8358C44.7138 70.8944 44.9262 70.9452 45.14 70.991C45.2146 71.1399 45.3891 71.2404 45.5737 71.1335C45.6041 71.1157 45.6307 71.0954 45.6597 71.0775C45.7748 71.0674 45.8823 71.0063 45.9266 70.8944C46.5159 70.4504 46.9763 69.8449 47.4657 69.2991C47.797 68.9315 48.1271 68.5664 48.4395 68.1822C48.7392 67.8133 49.0314 67.438 49.3286 67.0679C49.3425 67.0666 49.3577 67.0666 49.3716 67.0641C50.1025 66.9547 50.8487 66.9916 51.5835 66.9318C52.384 66.8656 53.158 66.6633 53.9219 66.4191C55.4268 65.9357 56.8723 65.2589 58.2774 64.5351C61.0255 63.1193 63.5574 61.3498 65.8996 59.3297C66.5345 58.7827 67.1579 58.2242 67.7865 57.6721C68.1039 57.3923 68.4289 57.12 68.7324 56.8249C69.2206 56.353 70.2551 55.2997 69.5406 54.6051C69.0651 54.1433 68.3531 54.3112 67.789 54.4728C67.0542 54.6827 66.2904 54.7488 65.5404 54.8926C63.952 55.1979 62.399 55.7614 60.9041 56.372C60.1769 56.6684 59.4434 56.9661 58.7504 57.3388C58.1218 57.6785 57.5236 58.0741 56.947 58.4964C55.8619 59.2902 54.8489 60.1769 53.7714 60.9809C54.5593 59.696 55.2649 58.3629 55.8555 56.9725C56.6776 55.0401 57.3365 53.0455 57.8815 51.0177C58.1585 49.9873 58.3153 48.9366 58.4102 47.8744C58.4507 47.4126 58.4924 46.9508 58.5341 46.4891C58.5771 46.0273 58.6075 45.5592 58.5518 45.0974C58.5392 44.9918 58.5227 44.8875 58.5012 44.7844C61.3341 45.2144 64.2049 45.4319 67.0694 45.2666C68.6401 45.175 70.2058 44.9714 71.7436 44.6356C73.0728 44.3468 74.3805 43.9487 75.6755 43.5327C77.9633 42.7962 80.2106 41.8891 82.2556 40.6069C84.5067 39.1974 86.5441 37.3477 88.1275 35.2042C89.6995 33.0773 90.6366 30.5204 91.1589 27.9405C91.4296 26.6023 91.594 25.2424 91.6724 23.88C91.7445 22.599 91.7647 21.3027 91.6433 20.0255ZM47.7743 62.5888C47.558 61.9718 47.3911 61.3383 47.2292 60.7048C46.8435 59.205 46.583 57.6747 46.5349 56.124C46.5109 55.3454 46.5349 54.5644 46.5336 53.7846C46.5324 53.0022 46.5324 52.2199 46.5716 51.4375C46.6095 50.6768 46.6841 49.9187 46.8359 49.1719C46.951 48.602 47.0989 48.0347 47.2608 47.4762C47.4417 46.8529 47.6529 46.2346 47.9463 45.6546C48.1777 45.1941 48.4661 44.731 48.8493 44.3812C49.4082 44.9575 49.6359 45.8034 49.8256 46.5654C50.1101 47.7001 50.3997 48.8348 50.6173 49.9861C50.8613 51.2734 51.0245 52.5735 51.0953 53.8825C51.132 54.5415 51.1472 55.2004 51.1446 55.8606C51.1434 56.4738 51.1434 57.0946 51.0865 57.7065C51.0308 58.3069 50.9208 58.901 50.8348 59.4976C50.7538 60.0522 50.6679 60.6221 50.7197 61.1844C50.7222 61.2124 50.7286 61.2391 50.7374 61.2658C50.0798 62.2682 49.3652 63.2287 48.6128 64.1598C48.6039 64.1471 48.5951 64.1331 48.5837 64.1204C48.1979 63.6904 47.964 63.1294 47.7743 62.5888ZM59.8355 57.5118C61.2608 56.8745 62.7227 56.3097 64.2214 55.8759C64.9878 55.6546 65.7567 55.4879 66.5446 55.3633C66.9101 55.306 67.2844 55.2653 67.6436 55.1737C67.9395 55.0974 68.2329 54.9867 68.5364 54.9473C68.6642 54.9307 68.7906 54.9295 68.9146 54.9613C68.9816 54.9791 68.9512 54.9664 69.0094 54.9994C69.0334 55.0134 69.0562 55.0274 69.079 55.0414C69.0815 55.044 69.0853 55.0478 69.0929 55.0541C69.0967 55.0579 69.1005 55.0618 69.1043 55.0656C69.103 55.0656 69.1017 55.0618 69.1017 55.0605C69.1043 55.0618 69.1144 55.0719 69.1194 55.0821C69.1194 55.0834 69.1207 55.0847 69.1207 55.0859C69.1245 55.0987 69.1384 55.1292 69.1346 55.1152H69.1359C69.1359 55.1152 69.1384 55.1177 69.1397 55.1203C69.1447 55.1355 69.1435 55.1788 69.1409 55.161C69.1409 55.175 69.1397 55.189 69.1397 55.203C69.1384 55.2119 69.1359 55.2208 69.1346 55.2297C69.1232 55.2653 69.1131 55.3009 69.103 55.3365C69.1005 55.3416 69.0979 55.3505 69.0942 55.3582C69.0891 55.3709 69.0828 55.3823 69.0777 55.3951C69.0297 55.4866 68.9778 55.5744 68.9196 55.6597C68.8501 55.7614 68.8387 55.7754 68.7653 55.8645C68.6932 55.9497 68.6186 56.0337 68.5427 56.1151C68.2772 56.3975 67.9888 56.6557 67.6967 56.9101C67.1453 57.3884 66.6015 57.8757 66.0539 58.3565C64.8916 59.3767 63.7016 60.3613 62.442 61.2582C61.2532 62.1041 60.0151 62.8763 58.7352 63.5734C57.4313 64.2845 56.0857 64.9473 54.6971 65.4739C53.9636 65.7525 53.2136 65.9917 52.4498 66.1672C51.7314 66.3313 50.9891 66.3262 50.2568 66.3568C50.1316 66.3631 50.0064 66.3695 49.8812 66.3784C50.9385 65.058 51.9679 63.7172 52.9139 62.3128C52.9569 62.3077 53.0024 62.2924 53.048 62.2631C55.3648 60.7532 57.2834 58.6504 59.8355 57.5118ZM57.8335 47.1964C57.7437 48.2051 57.6577 49.2101 57.4351 50.2011C57.2075 51.2086 56.9002 52.2059 56.5853 53.1892C56.2754 54.1586 55.934 55.1177 55.5533 56.0604C54.821 57.8807 53.9079 59.6121 52.8494 61.262C51.8023 62.8928 50.6337 64.441 49.4209 65.9497C48.7885 66.7346 48.1777 67.5411 47.5163 68.3005C47.2254 68.6364 46.9206 68.9595 46.6297 69.2953C46.3452 69.6235 46.0569 69.953 45.7306 70.2405C45.6585 70.3028 45.5851 70.3626 45.508 70.4186C45.2272 70.3626 44.9465 70.299 44.6708 70.2227C44.5076 70.1769 44.3483 70.1184 44.1877 70.0637C45.4966 69.0854 46.478 67.7039 47.5112 66.4535C48.117 65.7207 48.7493 65.0109 49.3399 64.2654C49.9546 63.4894 50.5452 62.6931 51.0966 61.8713C52.2006 60.2278 53.1517 58.4786 53.8624 56.6265C54.2115 55.7156 54.5188 54.7857 54.8299 53.8609C55.1562 52.889 55.4673 51.9108 55.7354 50.9198C56.2615 48.976 56.646 46.9534 56.5827 44.9295C56.5777 44.7501 56.5663 44.5695 56.5536 44.3901C56.9103 44.5059 57.2745 44.5962 57.6463 44.6483C57.7045 44.6585 57.7627 44.6674 57.8196 44.6763C58.0763 45.4816 57.9068 46.3746 57.8335 47.1964ZM90.8377 26.0489C90.5 28.6008 89.8057 31.1539 88.5372 33.4029C87.8859 34.5593 87.0664 35.5884 86.1634 36.5552C85.2794 37.5004 84.3183 38.3756 83.2775 39.1439C81.3703 40.5547 79.2368 41.6004 77.0148 42.4056C74.4918 43.3203 71.8764 44.0924 69.2105 44.4321C66.1588 44.8226 63.0617 44.7336 60.0125 44.357C59.2778 44.2667 58.5455 44.1573 57.8145 44.0352C56.3627 43.8329 55.0145 43.0976 53.7714 42.3535C52.4548 41.566 51.1775 40.6985 49.9128 39.8283C48.5976 38.9239 47.3215 37.9622 46.177 36.8427C45.0767 35.7652 44.0068 34.6471 43.0039 33.478C41.4762 31.6971 40.1344 29.738 39.3528 27.5055C38.9684 26.4064 38.7116 25.2666 38.5371 24.1153C38.3272 22.73 38.2007 21.3154 38.2348 19.9136C38.3107 16.8262 39.1517 13.7528 40.6086 11.0356C41.8999 8.63001 43.7058 6.55903 45.8457 4.88112C47.687 3.43729 49.7813 2.29876 51.9983 1.56475C54.0837 0.872728 56.2868 0.531805 58.4823 0.660287C60.5272 0.778593 62.5621 1.32814 64.3453 2.36109C66.1917 3.4322 67.6992 5.0007 68.7565 6.85924C69.0334 7.34773 69.2838 7.85403 69.5014 8.37305C69.5671 8.53079 69.71 8.64528 69.8896 8.59566C70.0389 8.55369 70.1767 8.36287 70.1109 8.20386C70.0679 8.10209 70.0237 8.00159 69.9794 7.9011C70.0174 7.89346 70.0566 7.8782 70.097 7.85021C72.1357 6.42546 74.6144 5.7169 77.0818 5.63167C79.4114 5.55025 81.8686 5.98785 83.882 7.21416C85.7651 8.36033 87.2435 10.1031 88.3627 11.9896C89.5642 14.0174 90.3925 16.2715 90.8111 18.5918C91.0211 19.7495 91.0944 20.9134 91.0919 22.0876C91.0894 23.4106 91.0109 24.7361 90.8377 26.0489Z" fill="#231F20"/>
<path d="M69.1409 55.1571V55.161C69.1409 55.1749 69.1397 55.1889 69.1397 55.2029C69.1384 55.2118 69.1359 55.2207 69.1346 55.2296C69.1232 55.2653 69.1131 55.3009 69.103 55.3365C69.1005 55.3416 69.0979 55.3505 69.0942 55.3581C69.0891 55.3709 69.0828 55.3823 69.0777 55.395C69.0297 55.4866 68.9778 55.5744 68.9196 55.6596C68.8501 55.7614 68.8387 55.7754 68.7653 55.8644C68.6932 55.9497 68.6186 56.0336 68.5427 56.115C68.2772 56.3974 67.9888 56.6557 67.6967 56.9101C67.1453 57.3884 66.6015 57.8756 66.0539 58.3565C64.8916 59.3767 63.7016 60.3613 62.442 61.2581C61.2532 62.1041 60.0151 62.8763 58.7352 63.5734C57.4313 64.2845 56.0857 64.9472 54.6971 65.4739C53.9636 65.7525 53.2136 65.9916 52.4498 66.1672C51.7314 66.3313 50.9891 66.3262 50.2568 66.3567C50.1316 66.3631 50.0064 66.3694 49.8812 66.3784C50.9385 65.0579 51.9679 63.7171 52.9139 62.3127C52.9569 62.3076 53.0024 62.2924 53.048 62.2631C55.3648 60.7531 57.2834 58.6503 59.8355 57.5118C61.2608 56.8745 62.7227 56.3097 64.2214 55.8759C64.9878 55.6545 65.7567 55.4879 66.5446 55.3632C66.9101 55.306 67.2844 55.2653 67.6436 55.1737C67.9395 55.0973 68.2329 54.9867 68.5364 54.9472C68.6642 54.9307 68.7906 54.9294 68.9146 54.9612C68.9816 54.979 68.9512 54.9663 69.0094 54.9994C69.0334 55.0134 69.0562 55.0274 69.079 55.0414C69.0815 55.0439 69.0853 55.0477 69.0929 55.0541C69.0967 55.0579 69.1005 55.0617 69.1043 55.0655C69.103 55.0655 69.1017 55.0617 69.1017 55.0605C69.1043 55.0617 69.1144 55.0719 69.1194 55.0821C69.1194 55.0834 69.1207 55.0846 69.1207 55.0859C69.1245 55.0986 69.1384 55.1292 69.1346 55.1152H69.1359C69.1359 55.1152 69.1384 55.1177 69.1397 55.1202C69.1409 55.133 69.1422 55.1444 69.1409 55.1571Z" fill="#47C3CE"/>
<path d="M51.1446 55.8606C51.1434 56.4737 51.1434 57.0945 51.0865 57.7064C51.0308 58.3068 50.9208 58.9009 50.8348 59.4975C50.7538 60.0521 50.6679 60.622 50.7197 61.1843C50.7222 61.2123 50.7286 61.239 50.7374 61.2657C50.0798 62.2681 49.3652 63.2286 48.6128 64.1598C48.6039 64.147 48.5951 64.133 48.5837 64.1203C48.1979 63.6904 47.964 63.1294 47.7743 62.5887C47.558 61.9717 47.3911 61.3382 47.2292 60.7047C46.8435 59.2049 46.583 57.6746 46.5349 56.1239C46.5109 55.3454 46.5349 54.5643 46.5336 53.7845C46.5324 53.0021 46.5324 52.2198 46.5716 51.4375C46.6095 50.6767 46.6841 49.9186 46.8359 49.1718C46.951 48.6019 47.0989 48.0346 47.2608 47.4761C47.4417 46.8528 47.6529 46.2346 47.9463 45.6545C48.1777 45.194 48.4661 44.7309 48.8493 44.3811C49.4082 44.9574 49.6359 45.8033 49.8256 46.5653C50.1101 47.7 50.3997 48.8347 50.6173 49.986C50.8613 51.2734 51.0245 52.5734 51.0953 53.8824C51.132 54.5414 51.1472 55.2003 51.1446 55.8606Z" fill="#47C3CE"/>
<path d="M57.8336 47.1964C57.7438 48.2052 57.6578 49.2101 57.4352 50.2011C57.2076 51.2086 56.9002 52.2059 56.5853 53.1893C56.2755 54.1586 55.934 55.1178 55.5534 56.0604C54.8211 57.8808 53.908 59.6121 52.8495 61.262C51.8023 62.8929 50.6338 64.441 49.421 65.9497C48.7886 66.7346 48.1778 67.5411 47.5164 68.3006C47.2255 68.6364 46.9207 68.9595 46.6298 69.2954C46.3453 69.6236 46.0569 69.953 45.7306 70.2405C45.6586 70.3029 45.5852 70.3627 45.5081 70.4186C45.2273 70.3627 44.9465 70.2991 44.6709 70.2227C44.5077 70.1769 44.3484 70.1184 44.1877 70.0637C45.4967 69.0855 46.4781 67.704 47.5113 66.4535C48.1171 65.7208 48.7494 65.0109 49.34 64.2655C49.9547 63.4895 50.5453 62.6931 51.0967 61.8714C52.2007 60.2278 53.1518 58.4787 53.8625 56.6265C54.2115 55.7157 54.5189 54.7858 54.83 53.8609C55.1563 52.8891 55.4674 51.9108 55.7355 50.9198C56.2616 48.9761 56.646 46.9534 56.5828 44.9295C56.5778 44.7501 56.5664 44.5695 56.5537 44.3901C56.9104 44.5059 57.2746 44.5962 57.6464 44.6484C57.7046 44.6586 57.7628 44.6675 57.8197 44.6764C58.0764 45.4816 57.9069 46.3746 57.8336 47.1964Z" fill="#129299"/>
<path d="M90.8112 18.5918C90.3926 16.2715 89.5642 14.0173 88.3628 11.9896C87.2436 10.1031 85.7652 8.36027 83.8821 7.21411C81.8687 5.9878 79.4114 5.5502 77.0819 5.63161C74.6145 5.71684 72.1358 6.4254 70.0971 7.85016C70.0566 7.87814 70.0174 7.89341 69.9795 7.90104C70.0238 8.00154 70.068 8.10203 70.111 8.2038C70.1768 8.36281 70.0389 8.55363 69.8897 8.59561C69.7101 8.64522 69.5672 8.53073 69.5014 8.37299C69.2839 7.85397 69.0335 7.34768 68.7565 6.85919C67.6993 5.00065 66.1918 3.43214 64.3454 2.36103C62.5622 1.32809 60.5273 0.778537 58.4823 0.660232C56.2869 0.531749 54.0838 0.872673 51.9984 1.5647C49.7814 2.2987 47.6871 3.43723 45.8457 4.88107C43.7059 6.55897 41.8999 8.62996 40.6087 11.0355C39.1518 13.7527 38.3108 16.8261 38.2349 19.9135C38.2008 21.3154 38.3272 22.7299 38.5372 24.1153C38.7117 25.2665 38.9684 26.4063 39.3529 27.5054C40.1345 29.738 41.4763 31.697 43.004 33.4779C44.0069 34.647 45.0768 35.7652 46.1771 36.8427C47.3216 37.9621 48.5977 38.9238 49.9129 39.8283C51.1776 40.6984 52.4549 41.566 53.7714 42.3534C55.0146 43.0976 56.3627 43.8329 57.8146 44.0351C58.5456 44.1572 59.2778 44.2666 60.0126 44.357C63.0617 44.7335 66.1589 44.8226 69.2106 44.432C71.8765 44.0924 74.4918 43.3202 77.0149 42.4056C79.2369 41.6003 81.3704 40.5546 83.2775 39.1439C84.3184 38.3755 85.2795 37.5003 86.1635 36.5552C87.0665 35.5884 87.886 34.5592 88.5373 33.4029C89.8058 31.1538 90.5001 28.6007 90.8378 26.0489C91.011 24.7361 91.0894 23.4105 91.092 22.0875C91.0945 20.9134 91.0211 19.7494 90.8112 18.5918ZM72.1206 17.5194C71.9423 17.5194 71.8158 17.3731 71.8044 17.2014C71.7741 16.7193 71.7412 16.2384 71.6982 15.7575C71.6097 14.7717 71.4819 13.7845 71.2454 12.8228C71.0431 12.0061 70.7535 11.1144 70.2109 10.5076C69.939 10.2035 70.3855 9.75195 70.6586 10.0573C71.0051 10.4452 71.248 10.8994 71.4465 11.379C71.8348 12.3178 72.0295 13.3342 72.1686 14.3379C72.3014 15.2881 72.376 16.2448 72.4368 17.2014C72.4481 17.3731 72.2837 17.5194 72.1206 17.5194Z" fill="#E71A74"/>
<path d="M72.4367 17.2013C72.4481 17.373 72.2837 17.5193 72.1205 17.5193C71.9422 17.5193 71.8157 17.373 71.8044 17.2013C71.774 16.7191 71.7411 16.2383 71.6981 15.7574C71.6096 14.7716 71.4819 13.7844 71.2454 12.8227C71.043 12.006 70.7534 11.1143 70.2109 10.5075C69.939 10.2034 70.3854 9.75184 70.6586 10.0571C71.0051 10.4451 71.2479 10.8993 71.4465 11.3789C71.8347 12.3177 72.0295 13.3341 72.1686 14.3378C72.3014 15.288 72.376 16.2447 72.4367 17.2013Z" fill="#AA1E54"/>
<path d="M42.0428 16.4978C40.978 20.1208 41.3548 23.446 42.4804 26.9532C43.3189 29.5674 45.6143 33.53 48.7633 33.6763C53.0253 33.8747 49.6562 28.668 48.6685 27.0448C47.2115 24.6494 46.5375 22.0531 46.3048 19.257C46.2011 18.0078 46.2251 15.4827 44.8871 14.797C43.4416 14.0566 42.5234 15.5399 42.0428 16.6416" fill="#E45D9D"/>
<path d="M57.4857 44.2666C56.2957 39.9071 51.7732 36.2549 48.6001 33.3545C45.4422 30.4668 41.246 28.9619 39.3844 24.8085C38.9557 23.8519 38.054 20.7747 37.3812 23.2324C36.8121 25.3135 37.3546 27.8068 37.753 29.86C38.6939 34.6991 42.5196 39.2469 46.5551 41.9043C49.5929 43.904 53.6841 45.3937 57.2619 44.3785" fill="#853A8F"/>
<path d="M57.7905 44.1814C57.2125 42.085 55.9491 40.2519 54.5403 38.6312C53.096 36.9686 51.4532 35.4967 49.818 34.0287C49.0503 33.3393 48.2966 32.6421 47.4796 32.0125C46.6626 31.3828 45.8229 30.8129 44.9844 30.2277C43.358 29.093 41.7152 27.887 40.5631 26.2397C40.2596 25.8046 39.9902 25.3466 39.76 24.8671C39.7158 24.7742 39.6728 24.6813 39.6323 24.5885C39.5982 24.5096 39.6399 24.6075 39.6184 24.5554C39.602 24.516 39.5855 24.4752 39.5703 24.4358C39.5096 24.2844 39.4515 24.133 39.392 23.9829C39.2516 23.6255 39.1087 23.268 38.938 22.9246C38.8052 22.6587 38.6509 22.3699 38.422 22.174C38.164 21.9539 37.8276 21.9158 37.5633 22.1524C37.2598 22.4246 37.1384 22.8978 37.0435 23.2782C36.7375 24.5045 36.7855 25.7944 36.9436 27.0373C37.0258 27.6784 37.1346 28.3145 37.256 28.948C37.3635 29.5166 37.4659 30.0878 37.6076 30.6488C37.8896 31.7644 38.3145 32.8444 38.8343 33.8697C39.9004 35.9738 41.3776 37.8705 43.0672 39.5039C44.7568 41.1373 46.6222 42.4895 48.7038 43.4843C50.7855 44.4791 53.2528 45.1953 55.6431 44.9892C56.2185 44.9396 56.7889 44.8403 57.3453 44.6851C57.7374 44.5757 57.5704 43.9613 57.1771 44.072C54.9665 44.6928 52.618 44.3315 50.4933 43.5555C48.394 42.7897 46.4502 41.5939 44.7378 40.1577C42.9976 38.6986 41.4509 36.9851 40.2356 35.0591C39.6374 34.1114 39.1151 33.1103 38.7154 32.0621C38.3158 31.0139 38.0831 29.9338 37.8731 28.8347C37.643 27.6301 37.4394 26.4101 37.4495 25.1787C37.4545 24.5872 37.5102 23.9969 37.6569 23.4219C37.71 23.2133 37.7745 22.9894 37.858 22.8215C37.8757 22.7859 37.8934 22.7515 37.9149 22.7172C37.9275 22.6968 37.9832 22.6231 37.9364 22.6778C37.9541 22.6574 37.9794 22.6371 37.9946 22.6154C38.0097 22.5938 38.0401 22.6027 37.9743 22.6294C37.987 22.6243 37.9984 22.6129 38.011 22.6065C38.0464 22.5887 37.9427 22.6294 37.9794 22.6205C38.0249 22.6091 37.9743 22.618 37.9743 22.618C37.9743 22.6243 37.9237 22.6192 37.9693 22.6205C37.9844 22.6205 38.0186 22.6256 37.9642 22.618C37.8807 22.6065 38.03 22.6447 37.9579 22.618C37.9048 22.5976 37.9794 22.6345 37.9933 22.6421C38.0312 22.6612 37.949 22.5925 38.0034 22.651C38.0224 22.6714 38.0439 22.6892 38.0616 22.7108C38.0818 22.7337 38.1008 22.7566 38.1198 22.7795C38.073 22.721 38.1375 22.8062 38.1501 22.8253C38.3348 23.0963 38.4701 23.4016 38.5978 23.7018C38.6117 23.7336 38.6079 23.726 38.6294 23.7781C38.6459 23.8188 38.6623 23.8595 38.6787 23.9003C38.7154 23.9893 38.7508 24.0796 38.7862 24.1699C38.8432 24.3162 38.9001 24.4625 38.9582 24.6088C39.1189 25.0121 39.306 25.4039 39.5198 25.7817C40.5188 27.5423 42.0403 28.8818 43.6514 30.061C45.2626 31.2403 46.9396 32.2732 48.4066 33.6115C49.9521 35.021 51.538 36.3885 52.9949 37.8934C54.4518 39.3983 55.834 41.0686 56.6978 43.0085C56.8913 43.4436 57.0507 43.8952 57.1771 44.3544C57.2859 44.7488 57.8955 44.5808 57.7867 44.1852L57.7905 44.1814Z" fill="#231F20"/>
<path d="M57.9562 44.4372C63.823 37.9533 74.5968 41.089 82.1203 38.2192C83.8744 37.5501 85.4907 36.5591 87.0728 35.5376C87.8543 35.0338 88.6258 34.0251 89.5313 33.7566C90.0751 33.5951 90.0043 33.1791 90.304 33.9767C90.4646 34.4029 90.1826 35.0084 90.0865 35.4269C88.5448 42.1334 81.2806 45.8632 75.2987 47.6836C69.686 49.3908 61.9374 49.5981 58.0675 44.5504" fill="#853A8F"/>
<path d="M58.18 44.6622C59.7684 42.9144 61.8488 41.8064 64.0987 41.1728C66.3485 40.5393 68.8463 40.3142 71.2466 40.1513C73.7178 39.9847 76.2016 39.8804 78.6462 39.4619C79.7882 39.266 80.9201 38.9963 82.0103 38.5981C83.5304 38.0422 84.9494 37.2497 86.319 36.3936C86.6617 36.1786 87.012 35.9699 87.3434 35.7371C87.6166 35.5451 87.8682 35.325 88.1174 35.1036C88.3665 34.8823 88.6258 34.6419 88.904 34.4421C89.1569 34.2602 89.4111 34.1419 89.7007 34.0351C89.8032 33.9969 89.9018 33.9498 89.9941 33.8901C90.0245 33.871 90.0523 33.8493 90.0827 33.8303C90.0941 33.8226 90.1168 33.8137 90.1257 33.8023C90.1573 33.7667 90.0561 33.8252 90.0991 33.8137C90.0043 33.8379 89.8664 33.7883 89.8512 33.7323C89.8614 33.7705 89.898 33.8137 89.9145 33.8493C89.9625 33.9549 90.0258 34.0923 90.0346 34.2208C90.0586 34.5426 89.9145 34.8708 89.8272 35.1736C89.7399 35.4764 89.678 35.7791 89.5869 36.0781C88.9002 38.3564 87.4699 40.3091 85.7208 41.8839C83.9718 43.4588 81.7548 44.7703 79.534 45.7702C77.3133 46.7701 75.1911 47.4914 72.921 47.9608C70.5814 48.4442 68.1393 48.6223 65.7655 48.2992C63.4803 47.9888 61.2064 47.1721 59.47 45.6036C59.0387 45.2143 58.6454 44.7856 58.2913 44.3251C58.1863 44.189 57.9536 44.2144 57.8436 44.3251C57.7108 44.4587 57.7386 44.6381 57.8436 44.7754C59.3422 46.7205 61.5225 47.9671 63.8698 48.5739C66.279 49.1973 68.8235 49.21 71.2782 48.8805C73.733 48.551 75.9879 47.8832 78.2314 47.0016C80.4749 46.1201 82.831 44.9395 84.8393 43.4232C86.8476 41.9068 88.5398 40.0928 89.5869 37.8374C89.8512 37.2688 90.0738 36.6798 90.2458 36.0755C90.3331 35.7702 90.3988 35.4611 90.4912 35.1571C90.5987 34.806 90.7062 34.4371 90.6493 34.0656C90.624 33.9002 90.5544 33.7463 90.4886 33.5937C90.4444 33.4906 90.3963 33.3838 90.3141 33.3049C90.1371 33.1319 89.9145 33.1777 89.7298 33.3023C89.5186 33.4448 89.3302 33.4766 89.0735 33.5975C88.7573 33.7476 88.474 33.9651 88.2046 34.1865C87.9353 34.4078 87.6747 34.6533 87.4066 34.8836C87.1385 35.1138 86.854 35.3021 86.558 35.4904C85.8485 35.9445 85.1315 36.3859 84.3954 36.7943C83.1396 37.4888 81.8294 38.0536 80.4433 38.4238C78.067 39.0586 75.5958 39.2342 73.1512 39.3932C70.7066 39.5522 68.0963 39.6794 65.6112 40.1641C63.2476 40.6246 60.9408 41.4629 59.04 42.983C58.5721 43.357 58.1357 43.7692 57.7323 44.2132C57.4579 44.5147 57.9043 44.9663 58.18 44.6635V44.6622Z" fill="#231F20"/>
</g>
<defs>
<clipPath id="clip0_15_10599">
<rect width="91.7293" height="100" fill="white"/>
</clipPath>
</defs>
</svg>
