<svg width="87" height="100" viewBox="0 0 87 100" fill="none" xmlns="http://www.w3.org/2000/svg">
<g clip-path="url(#clip0_15_6653)">
<path d="M47.7115 46.879C46.7231 47.4576 45.7134 48.0148 44.7506 48.6348C44.1035 49.052 43.4849 49.5178 42.7709 49.8164C42.4538 49.9493 42.1111 50.0478 41.7641 50.0164C41.3559 49.9807 40.9748 49.8378 40.6064 49.6635C39.8769 49.3163 39.2184 48.8363 38.5074 48.4577C37.6242 47.9876 36.7652 47.4719 35.9589 46.879C35.8039 46.7647 35.7257 46.5718 35.8309 46.3903C35.9219 46.236 36.1622 46.1489 36.3173 46.2632C37.1919 46.9047 38.1262 47.4404 39.0791 47.9534C39.7574 48.3177 40.3775 48.792 41.0857 49.1006C41.3801 49.2306 41.693 49.3335 42.0101 49.3035C42.2519 49.2806 42.5946 49.1292 42.852 48.992C43.4792 48.6606 44.0409 48.222 44.6496 47.8591C45.547 47.3219 46.4486 46.7904 47.3517 46.2632C47.7484 46.0303 48.1068 46.6489 47.7115 46.879Z" fill="#231F20"/>
<path d="M52.1428 42.0955C51.3208 41.8298 50.4192 41.8098 49.5716 42.0055C48.7411 42.1984 47.9262 42.6127 47.4626 43.3442C47.2165 43.7314 46.6022 43.3728 46.8482 42.9842C47.0942 42.5956 47.4128 42.2741 47.7868 42.0084C49.0482 41.1112 50.88 40.9383 52.332 41.4069C52.7672 41.5483 52.5794 42.237 52.1428 42.0955Z" fill="#231F20"/>
<path d="M34.4969 42.3442C34.4969 43.41 33.9366 44.2744 33.2468 44.2744C32.5571 44.2744 31.9954 43.41 31.9954 42.3442C31.9954 41.2784 32.5557 40.4126 33.2468 40.4126C33.938 40.4126 34.4969 41.277 34.4969 42.3442Z" fill="#231F20"/>
<path d="M74.0823 39.3596C74.0794 39.1267 74.0709 38.8938 74.0424 38.6638C74.0168 38.4609 73.9671 38.2638 73.9528 38.0609C73.9372 37.8337 73.9585 37.608 73.9201 37.3822C73.8817 37.1637 73.8391 36.9451 73.8035 36.725C73.7367 36.3021 73.7381 35.8564 73.6457 35.4406C73.6229 35.3363 73.5973 35.2335 73.5703 35.132C73.485 35.1377 73.3939 35.1135 73.3129 35.0463C73.064 34.8391 72.7881 34.6677 72.5051 34.512C71.0687 33.7262 69.4191 33.3318 67.8419 32.9418C66.114 32.5161 64.4032 32.0631 62.688 31.5931C60.4937 30.993 58.2751 30.4816 56.0338 30.0987C53.7655 29.7101 51.4915 29.5115 49.199 29.35C44.5316 29.0186 39.8584 28.5528 35.1838 29.0314C30.7794 29.4829 26.3665 29.8958 21.9991 30.6416C17.7284 31.3702 13.5032 32.4275 9.49422 34.0948C9.48995 34.1162 9.48569 34.1376 9.48 34.1591C9.38614 34.5791 9.25246 34.9863 9.15433 35.4049C9.05478 35.8321 9.0562 36.2907 8.98794 36.725C8.95238 36.9451 8.90972 37.1637 8.87132 37.3822C8.83435 37.5937 8.85283 37.8051 8.84146 38.0195C8.82866 38.2495 8.77177 38.4724 8.74475 38.7024C8.722 38.9067 8.71346 39.1139 8.71062 39.321C8.69498 40.2025 8.68644 41.0898 8.78173 41.967C8.82581 42.3842 8.84715 42.7985 8.94243 43.2085C9.04198 43.64 9.13015 44.0758 9.24108 44.5044C9.46436 45.3759 9.84122 46.2131 10.147 47.0589C10.2977 47.4747 10.4271 47.9062 10.612 48.3091C10.7898 48.7005 11.0188 49.0591 11.2307 49.432C11.5137 49.9321 11.7768 50.4393 12.0839 50.9222C12.8846 50.5136 13.8133 50.3364 14.6808 50.635C15.6237 50.9593 16.2309 51.7751 17.0842 52.2452C17.3117 52.3695 17.5492 52.458 17.8109 52.4666C18.0968 52.4752 18.3755 52.4123 18.65 52.338C19.27 52.168 19.8673 51.9637 20.5201 51.9766C21.1586 51.9894 21.7502 52.1937 22.3305 52.4452C22.8254 52.6595 23.2549 52.9681 23.599 53.3867C23.8934 53.7439 24.1252 54.1482 24.4225 54.5011C24.576 54.6826 24.7467 54.8597 24.9401 54.9969C25.0212 55.0554 25.1065 55.1069 25.1933 55.1526C25.2686 55.194 25.3625 55.2369 25.4023 55.2512C26.8358 55.8169 29.08 55.4855 29.8479 57.1599C30.3585 58.2715 29.9916 59.5588 30.4993 60.6689C30.7425 61.2032 31.0895 61.6804 31.3838 62.1847C31.6853 62.7034 31.9584 63.2491 32.1475 63.8192C32.3338 64.3835 32.4362 65.0193 32.2627 65.6008C32.1262 66.058 31.8304 66.4323 31.4635 66.7295C31.1264 67.0024 30.751 67.2181 30.4495 67.5053C30.1508 67.7896 29.9802 68.151 29.8835 68.5625C29.6858 69.3926 29.8152 70.3198 29.6915 71.1913C29.6303 71.6314 29.4995 72.0657 29.2606 72.4415C28.9676 72.9029 28.5481 73.2416 28.0802 73.5102C27.9081 73.6102 27.7318 73.6987 27.554 73.7873C27.4829 73.823 27.4118 73.8588 27.3435 73.8973C27.3122 73.9159 27.2824 73.9345 27.2525 73.953C27.244 73.9588 27.2198 73.9759 27.2056 73.9859C27.1899 73.9988 27.153 74.0316 27.143 74.0416C27.1203 74.0645 27.1003 74.0873 27.079 74.1102C27.079 74.1116 27.0776 74.1116 27.0776 74.1131C27.0676 74.1274 27.0577 74.1402 27.0477 74.1559C27.0264 74.1874 27.0079 74.2202 26.988 74.2531C26.8813 74.4417 26.8145 74.6331 26.7405 74.8389C26.4007 75.7875 25.9712 76.8205 25.1335 77.432C24.6486 77.7863 24.0555 77.8534 23.4739 77.7849C22.9946 77.7277 22.4699 77.5748 21.9892 77.6891C22.1328 78.0749 22.2494 78.4706 22.3404 78.8735C22.6121 80.0637 22.7145 81.2866 22.814 82.501C22.9136 83.7326 23.0387 84.9484 23.252 86.1657C23.5066 87.6173 23.8067 89.0603 24.121 90.5004C24.3869 91.7177 24.6272 92.9478 24.9771 94.1436C25.2757 95.1637 25.6739 96.1967 26.3537 97.0268C27.1018 97.9383 28.1641 98.5341 29.2762 98.8841C30.4794 99.2627 31.7436 99.337 32.9937 99.2627C34.0077 99.2027 35.0515 99.1127 36.0414 98.877C36.8932 98.6741 37.6768 98.3083 38.2741 97.6511C38.6211 97.2697 38.8757 96.8196 39.0904 96.3524C39.3877 95.7095 39.6508 95.0537 39.8982 94.3908C40.1115 93.8207 40.2879 93.2307 40.5453 92.6792C40.7046 92.3406 40.915 92.0291 41.2165 91.802C41.4839 91.602 41.8096 91.4948 42.131 91.4162C42.596 91.3034 43.0696 91.2233 43.5375 91.1248C45.7461 90.6576 47.9504 90.0589 50.0182 89.1374C52.0703 88.2231 54.0059 86.9844 55.4522 85.2356C57.1872 83.1411 58.4742 80.7166 59.7627 78.3306C60.8535 76.3104 61.4693 74.0245 62.8118 72.1457C62.1903 71.7957 61.6798 71.2728 61.3669 70.6113C61.1578 70.1698 61.0384 69.7041 60.9331 69.2297C60.9161 69.1569 60.9004 69.0854 60.8805 69.014C60.872 68.984 60.8606 68.9554 60.8535 68.9268C60.8535 68.9225 60.8506 68.9211 60.8506 68.9168C60.8506 68.9168 60.8502 68.9164 60.8492 68.9154C60.835 68.8968 60.8194 68.8711 60.8094 68.8483V68.8468C60.8051 68.8411 60.8009 68.8354 60.7938 68.8283C60.7852 68.8197 60.7724 68.8097 60.761 68.8025C60.744 68.7911 60.7269 68.7782 60.707 68.7682C60.6914 68.7597 60.6231 68.7311 60.6231 68.7297C60.5918 68.7182 60.5605 68.7068 60.5292 68.6954C60.4325 68.664 60.3344 68.6382 60.2349 68.6154C59.9689 68.5511 59.7001 68.5068 59.4399 68.4211C58.9066 68.2482 58.4074 67.9653 58.012 67.561C57.6067 67.1452 57.2697 66.5966 57.1673 66.018C57.1161 65.7208 57.1047 65.4136 57.0109 65.125C56.9753 65.0207 56.917 64.9164 56.8359 64.8407C56.8046 64.8107 56.8203 64.8221 56.7634 64.7936C56.7577 64.7893 56.7534 64.7878 56.7492 64.785C56.7321 64.7793 56.7165 64.7736 56.6994 64.7664C56.1988 64.5793 55.8262 64.1964 55.6186 63.712C54.5961 64.1421 53.5991 64.6378 52.5126 64.8864C52.0661 64.9879 51.8769 64.2992 52.3235 64.1978C53.4143 63.9478 54.414 63.4491 55.4408 63.0177C55.391 62.5719 55.4365 62.1104 55.4991 61.6747C55.6001 60.966 55.8959 60.2931 56.2429 59.6731C56.415 59.3644 56.6055 59.0658 56.8018 58.7715C56.9483 58.5515 57.0919 58.3286 57.1573 58.0815C57.1616 58.0672 57.1787 57.9686 57.1801 57.9672C57.1844 57.9272 57.1858 57.8857 57.1858 57.8443C57.1858 57.7986 57.1829 57.7529 57.1787 57.7071C57.1772 57.7 57.1772 57.6943 57.1772 57.69C57.1758 57.6843 57.1744 57.6771 57.1744 57.6714C57.1716 57.6557 57.1687 57.64 57.1659 57.6243C57.1232 57.3742 57.0592 57.1285 57.0165 56.8785C56.9184 56.3041 56.8715 55.7184 56.9796 55.1426C57.1374 54.2954 57.7177 53.7182 58.4373 53.3053C59.1327 52.9067 59.8751 52.5852 60.4994 52.088C60.3685 51.5237 60.5719 50.8893 60.8051 50.385C61.0583 49.8392 61.4337 49.3177 61.9087 48.9448C62.1334 48.7691 62.3851 48.6134 62.6667 48.5505C62.9511 48.4862 63.2384 48.5119 63.5229 48.5591C64.1258 48.6562 64.7047 48.8791 65.2863 49.0577C65.565 49.1434 65.8466 49.2249 66.1339 49.272C66.1481 49.2749 66.1552 49.2763 66.1609 49.2777C66.1638 49.2777 66.1709 49.2777 66.1823 49.2792C66.2164 49.282 66.2505 49.2863 66.2846 49.2877C66.3344 49.2906 66.3828 49.2892 66.4326 49.2877C66.4368 49.2877 66.4411 49.2849 66.4454 49.2834C66.4667 49.2777 66.4766 49.2749 66.4809 49.2734C66.4837 49.272 66.4866 49.2706 66.4909 49.2692C66.525 49.252 66.5591 49.2334 66.5918 49.2149C66.6658 49.1706 66.7383 49.1206 66.8066 49.0677C66.936 48.9691 67.1095 48.812 67.2489 48.6834C67.5902 48.3691 67.9144 48.0362 68.2728 47.7419C68.698 47.3918 69.1816 47.1132 69.6864 46.8989C70.6378 46.4932 71.7827 46.3874 72.7028 46.9032C72.8407 46.5246 72.9773 46.146 73.1195 45.7702C73.2716 45.3645 73.4323 44.963 73.5433 44.5415C73.6542 44.1144 73.7395 43.6786 73.8419 43.2486C73.9415 42.8242 73.9656 42.3985 74.0126 41.967C74.0581 41.5355 74.0823 41.1083 74.0823 40.674C74.0823 40.2397 74.0894 39.7982 74.0837 39.3596H74.0823ZM33.2468 44.2744C32.5557 44.2744 31.9954 43.41 31.9954 42.3442C31.9954 41.2784 32.5557 40.4126 33.2468 40.4126C33.938 40.4126 34.4969 41.2769 34.4969 42.3442C34.4969 43.4114 33.9366 44.2744 33.2468 44.2744ZM38.5074 48.4576C37.6242 47.9876 36.7652 47.4718 35.9589 46.8789C35.8039 46.7646 35.7256 46.5717 35.8309 46.3903C35.9219 46.236 36.1622 46.1488 36.3173 46.2631C37.1919 46.9046 38.1262 47.4404 39.0791 47.9533C39.7574 48.3176 40.3775 48.792 41.0857 49.1006C41.3801 49.2306 41.693 49.3334 42.0101 49.3034C42.2519 49.2806 42.5946 49.1291 42.852 48.992C43.4792 48.6605 44.0409 48.2219 44.6496 47.859C45.547 47.3218 46.4486 46.7903 47.3517 46.2631C47.7484 46.0303 48.1068 46.6489 47.7115 46.8789C46.7231 47.4575 45.7134 48.0147 44.7506 48.6348C44.1035 49.052 43.4849 49.5177 42.7709 49.8163C42.4538 49.9492 42.1111 50.0478 41.7641 50.0164C41.3559 49.9806 40.9748 49.8378 40.6064 49.6635C39.8769 49.3163 39.2184 48.8363 38.5074 48.4576ZM53.4669 76.7833C54.0144 77.552 54.4226 78.4335 54.6046 79.3636C54.7852 80.2837 54.7909 81.2281 54.8321 82.161C54.8535 82.6211 54.1424 82.6182 54.1211 82.161C54.1111 81.9196 54.1012 81.6781 54.0912 81.4381C54.0571 80.6066 54.0172 79.7722 53.7755 78.9707C53.5366 78.1778 53.1085 77.3777 52.5524 76.779C51.5541 75.7032 50.0552 75.2246 48.6188 75.1475C47.1142 75.0674 45.564 75.3746 44.2713 76.1504C43.5787 76.5662 42.9516 77.1034 42.5278 77.7949C42.1665 78.3835 41.9745 79.0278 41.8579 79.7236C41.7413 80.4123 41.7072 81.1666 41.656 81.8938C41.5977 82.7054 41.518 83.5154 41.346 84.3098C41.2478 84.7598 40.5624 84.5684 40.6605 84.1198C40.7046 83.9141 40.7444 83.7069 40.7771 83.4983C41.0246 81.9524 40.9108 80.3408 41.326 78.8207C41.5351 78.0577 41.8949 77.3534 42.4126 76.7562C42.9885 76.0918 43.7465 75.5675 44.5387 75.1989C46.0461 74.4988 47.7627 74.2802 49.401 74.5117C50.9795 74.736 52.5211 75.4546 53.4669 76.7833ZM52.1429 42.0956C51.3209 41.8298 50.4192 41.8098 49.5716 42.0056C48.7411 42.1984 47.9262 42.6128 47.4626 43.3443C47.2166 43.7315 46.6022 43.3728 46.8482 42.9842C47.0943 42.5956 47.4128 42.2742 47.7868 42.0084C49.0483 41.1112 50.88 40.9383 52.332 41.4069C52.7672 41.5484 52.5795 42.237 52.1429 42.0956Z" fill="white"/>
<path d="M83.2381 28.8158C83.1286 29.0758 82.9209 29.2458 82.6792 29.3287C82.2966 29.4601 81.9724 29.4744 81.5813 29.5201C80.2701 29.6687 78.956 29.8488 77.6562 30.0773C76.8953 30.2102 76.1416 30.3774 75.3736 30.4745C74.637 30.5674 73.8974 30.636 73.1608 30.7217C73.0968 30.5945 73.0356 30.466 72.983 30.3317C72.818 29.9073 72.6972 29.4901 72.4696 29.0915C72.2591 28.7229 72.0245 28.3686 71.8126 28.0014C71.6007 27.6357 71.3035 27.3399 71.0745 26.9885C71.0716 26.9842 71.0702 26.9799 71.0674 26.9756C71.2793 26.8927 71.3262 26.6127 71.2124 26.4356C71.7955 25.9212 72.4881 25.5383 73.1608 25.1511C74.1421 24.5868 75.0593 23.9239 76.0036 23.2995C76.9664 22.6637 77.9463 22.0551 78.8863 21.3865C79.1352 21.2079 79.3869 21.0322 79.6415 20.8621C79.7254 20.8407 79.7993 20.7936 79.8491 20.7264C79.9686 20.6507 80.088 20.5778 80.2103 20.5078C80.5801 20.2949 81.048 20.0406 81.4647 20.0121C81.5784 20.0035 81.6311 20.0106 81.7121 20.0335C81.7847 20.0535 81.8358 20.0763 81.9226 20.1335C82.0364 20.2092 82.143 20.3521 82.2241 20.5135C82.372 20.8107 82.3976 21.175 82.3251 21.5165C82.318 21.5236 82.3094 21.5279 82.3023 21.5351C82.1572 21.6808 82.1757 21.8937 82.3023 22.0408C82.6351 22.4294 82.7873 22.9366 82.8911 23.431C83.002 23.9624 83.0589 24.5039 83.1528 25.0383C83.2708 25.7126 83.3846 26.3898 83.4158 27.0756C83.4414 27.6371 83.4599 28.2857 83.2381 28.8158Z" fill="#DF3755"/>
<path d="M83.9149 35.9549C83.9135 35.9621 83.9135 35.9649 83.9135 35.9706C83.9135 35.9735 83.9121 35.9749 83.9106 35.9806C83.905 36.0063 83.8964 36.0321 83.8879 36.0578C83.8836 36.0663 83.8765 36.0849 83.8751 36.0878C83.8509 36.1378 83.8225 36.1864 83.7926 36.2321C83.5964 36.5364 83.3404 36.8093 83.1086 37.085C82.8184 37.4322 82.5184 37.7694 82.2197 38.1094C81.9097 38.4609 81.5812 38.8081 81.311 39.1909C80.9085 39.7581 80.8459 40.4311 80.6483 41.0797C80.6056 41.2197 80.5487 41.3883 80.4961 41.5069C80.4705 41.5655 80.442 41.6226 80.4107 41.6755C80.3965 41.6998 80.3809 41.7241 80.3652 41.7455C80.3581 41.7526 80.3496 41.7626 80.3425 41.7683C80.334 41.7741 80.3297 41.7783 80.3254 41.7798C80.3254 41.7783 80.3155 41.7798 80.3169 41.7812C80.314 41.7826 80.3126 41.7826 80.3112 41.7826C80.2913 41.7812 80.2444 41.7812 80.2273 41.7812C80.2102 41.7783 80.1889 41.7755 80.1875 41.7755C80.1548 41.7683 80.1221 41.7612 80.0908 41.7541C78.279 41.3083 76.6079 40.3725 74.9725 39.5024C74.9668 39.4981 74.9597 39.4967 74.9526 39.4938C74.9511 39.4238 74.9511 39.3524 74.9497 39.2824C74.944 39.0752 74.9341 38.8681 74.9113 38.6637C74.8843 38.4337 74.8246 38.2066 74.8175 37.9765C74.8104 37.7408 74.8175 37.5093 74.7791 37.275C74.7421 37.0407 74.6937 36.8093 74.6553 36.575C74.58 36.1221 74.5814 35.6549 74.4833 35.2077C74.3908 34.7905 74.2515 34.3848 74.1576 33.9676C74.0595 33.5361 73.9812 33.1032 73.8433 32.6817C73.711 32.276 73.6115 31.8659 73.4863 31.4587C73.4806 31.4402 73.4735 31.4202 73.4664 31.4016C73.7637 31.3687 74.0623 31.3359 74.3595 31.3044C74.388 31.323 74.4164 31.3402 74.4491 31.353C76.1941 32.0688 77.9476 32.766 79.7025 33.4575C80.442 33.749 81.1915 34.0204 81.9054 34.3719C82.2695 34.5505 82.6236 34.7491 82.9592 34.9762C83.255 35.1763 83.5964 35.4063 83.8111 35.6977C83.8381 35.732 83.8623 35.772 83.8822 35.812C83.8822 35.8135 83.8922 35.8363 83.8964 35.8449C83.9007 35.8635 83.9092 35.9006 83.9135 35.9063C83.9135 35.922 83.9149 35.9392 83.9149 35.9549Z" fill="#DF3755"/>
<path d="M79.1124 20.3607C78.727 20.6236 78.3515 20.9007 77.9661 21.1651C77.4513 21.5179 76.9194 21.848 76.3961 22.1894C75.8457 22.5495 75.2968 22.9109 74.7521 23.2796C74.2515 23.6167 73.7609 23.9682 73.2418 24.2768C72.3217 24.8254 71.3247 25.3183 70.5497 26.0727C70.5127 26.0098 70.4757 25.947 70.4359 25.8855C70.2937 25.6684 70.1557 25.4483 70.0164 25.2283C71.1825 23.5867 72.6459 22.1737 74.105 20.7979C74.7706 20.1678 75.4347 19.5392 76.0875 18.8963C76.3406 18.6462 76.6307 18.3562 76.9621 18.2305C77.265 18.1148 77.5025 18.2148 77.7514 18.4348C78.0941 18.7348 78.3814 19.0963 78.6317 19.4763C78.8137 19.7563 78.9872 20.0492 79.1124 20.3607Z" fill="#C6284B"/>
<path d="M73.3129 34.1678C72.1994 33.4234 70.8498 33.0162 69.5826 32.6605C67.9614 32.2033 66.306 31.879 64.6862 31.4204C60.2733 30.1717 55.8248 29.1444 51.2441 28.7772C48.8904 28.5872 46.5311 28.4201 44.1746 28.27C41.8039 28.1186 39.4232 28.0315 37.0497 28.1658C34.7871 28.2929 32.5259 28.5815 30.2732 28.8244C28.0532 29.063 25.8361 29.3273 23.6275 29.6616C19.2132 30.3274 14.8216 31.2818 10.6391 32.8734C10.3205 32.9934 10.0034 33.1205 9.68909 33.2491C9.71753 33.1362 9.75024 33.0248 9.78579 32.9134C9.91805 32.509 10.0176 32.0976 10.1428 31.6918C10.2608 31.3046 10.4869 30.9746 10.632 30.5989C10.7059 30.4103 10.76 30.2131 10.8296 30.0217C10.9008 29.8245 11.0074 29.643 11.1127 29.463C11.326 29.0958 11.5535 28.7387 11.7683 28.3729C11.9745 28.0243 12.2703 27.74 12.4864 27.3971C12.7126 27.0371 12.8918 26.6485 13.1278 26.2927C13.2999 26.0327 13.462 25.7698 13.6284 25.5069C17.1838 23.9568 20.9965 23.0781 24.8221 22.5352C28.7387 21.9808 32.6951 21.7808 36.6415 21.598C38.6069 21.5079 40.5766 21.3708 42.5448 21.3294C44.7065 21.2851 46.871 21.4008 49.0213 21.6437C53.3218 22.1294 57.5527 23.1338 61.7011 24.3525C63.5911 24.9083 65.4997 25.4555 67.3271 26.1956C68.3567 26.6127 69.4049 27.0271 70.3876 27.5471C70.4004 27.5543 70.4117 27.5614 70.4245 27.5671C70.6222 27.8386 70.8526 28.0829 71.0233 28.3729C71.2451 28.7501 71.4812 29.1187 71.6988 29.4973C71.905 29.8531 72.0116 30.2188 72.1595 30.5989C72.3103 30.986 72.5407 31.3261 72.6601 31.7261C72.7768 32.1233 72.8777 32.5205 73.0057 32.9134C73.1394 33.3248 73.219 33.7463 73.3129 34.1678Z" fill="#DF3755"/>
<path d="M59.9803 39.7755C58.3775 39.5269 56.6752 40.0284 55.4621 41.1085C54.2491 42.1886 53.5465 43.8259 53.6006 45.4546C53.6546 47.0905 54.4908 48.7078 55.8618 49.5936C56.5728 50.0537 57.3963 50.3094 58.2296 50.4594C59.1455 50.6237 60.0941 50.6609 61.0057 50.4694C62.8089 50.0879 64.3904 48.7478 65.0417 47.0162C65.693 45.2846 65.3802 43.213 64.2254 41.77C63.0706 40.327 61.145 39.3212 59.2934 39.9084" fill="#FACED6"/>
<path d="M57.6807 44.4544C57.6793 45.0616 57.6765 45.6702 57.675 46.2774C57.675 46.4646 57.8386 46.6432 58.0306 46.6346C58.2226 46.626 58.3861 46.4775 58.3861 46.2774C58.3875 45.6702 58.3904 45.0616 58.3918 44.4544C58.3918 44.2672 58.2283 44.0886 58.0363 44.0972C57.8443 44.1058 57.6807 44.2544 57.6807 44.4544Z" fill="#F6A4B4"/>
<path d="M60.1638 44.2674C60.1609 44.9403 60.1567 45.6132 60.1538 46.2862C60.1538 46.4733 60.3174 46.6519 60.5093 46.6433C60.7013 46.6348 60.8635 46.4862 60.8649 46.2862C60.8677 45.6132 60.872 44.9403 60.8748 44.2674C60.8748 44.0802 60.7113 43.9016 60.5193 43.9102C60.3273 43.9188 60.1652 44.0674 60.1638 44.2674Z" fill="#F6A4B4"/>
<path d="M85.4979 63.9606C85.2902 64.2935 84.9333 64.4678 84.5806 64.6264C84.1923 64.8007 83.8027 64.9564 83.4699 65.2293C82.8669 65.7236 82.5938 66.5066 82.4189 67.2409C82.335 67.5938 82.2667 67.951 82.17 68.2996C82.0691 68.6625 81.9766 68.9239 81.769 69.234C81.5884 69.5026 81.3082 69.7355 80.9811 69.8969C80.637 70.0669 80.2573 70.1426 79.8904 70.2498C79.5889 70.3369 79.3229 70.4827 79.1139 70.7213C78.8223 71.0556 78.6204 71.4556 78.3743 71.8214C77.9136 72.5014 77.2125 73.3972 76.2852 73.2329C75.7832 73.1444 75.3338 72.8829 74.8375 72.7743C74.3042 72.6586 73.8093 72.7586 73.3243 72.9958C72.8507 73.2272 72.4341 73.5544 71.969 73.8016C71.7415 73.923 71.4983 74.0159 71.2579 74.1073C71.0261 74.1959 70.7815 74.2845 70.5326 74.3145C69.6068 74.4259 68.708 73.6644 68.1235 73.0258C67.8363 72.7115 67.5646 72.3486 67.4438 71.9371C67.3897 71.7528 67.1935 71.6328 67.0057 71.6871C66.1525 71.93 65.2195 72.0557 64.3648 71.9228C63.4973 71.7871 62.7038 71.407 62.216 70.6684C61.9486 70.2641 61.7979 69.8112 61.6869 69.3426C61.6187 69.0568 61.5845 68.7282 61.4181 68.4782C61.2176 68.1753 60.8806 68.0453 60.5421 67.9567C60.0387 67.8224 59.5338 67.7524 59.0744 67.4881C58.6393 67.2381 58.2994 66.8723 58.0619 66.4308C57.7888 65.9236 57.8642 65.345 57.6509 64.8221C57.5456 64.5606 57.3721 64.3135 57.1204 64.1763C57.0294 64.1263 56.9284 64.0977 56.8331 64.0577C56.8331 64.0577 56.8322 64.0573 56.8303 64.0563H56.8289C56.8118 64.0463 56.7535 64.0177 56.7379 64.0077C56.6824 63.9749 56.6397 63.9392 56.5928 63.8949C56.2102 63.5334 56.1207 63.0291 56.132 62.5219C56.1463 61.8775 56.2728 61.2532 56.5359 60.6645C56.8175 60.0359 57.2129 59.4887 57.5627 58.9001C57.8258 58.4586 57.9382 58.0157 57.8614 57.5071C57.7846 56.997 57.6466 56.507 57.6281 55.9884C57.6196 55.7541 57.6295 55.5069 57.6679 55.3126C57.685 55.2197 57.7092 55.1297 57.7376 55.0397C57.7774 54.9125 57.776 54.9183 57.8258 54.8225C57.8656 54.7454 57.9111 54.6711 57.9609 54.5997C57.9694 54.5854 57.9794 54.5725 57.9908 54.5582C57.9936 54.5554 57.9965 54.5511 58.0007 54.5454C58.032 54.5096 58.0633 54.4739 58.096 54.4396C58.1501 54.3811 58.2084 54.3268 58.2681 54.2753C58.2752 54.2696 58.325 54.2296 58.3349 54.221C58.3733 54.191 58.4131 54.1625 58.453 54.1353C59.1228 53.6738 59.8979 53.391 60.5677 52.9266C60.7739 52.7838 60.9716 52.628 61.1607 52.4637C61.2461 52.388 61.2958 52.2237 61.2517 52.1151C61.1622 51.898 61.1536 51.7565 61.1863 51.5051C61.1863 51.5051 61.1934 51.4551 61.1963 51.4465C61.202 51.4136 61.2077 51.3808 61.2162 51.3479C61.229 51.2865 61.2446 51.2265 61.2617 51.1679C61.2987 51.0393 61.3499 50.895 61.3996 50.7864C61.6215 50.2878 61.9429 49.8077 62.3795 49.4734C62.5303 49.3577 62.6924 49.2663 62.9 49.2305C62.9085 49.2305 63.0038 49.2248 63.0209 49.2248C63.0735 49.2234 63.1276 49.2263 63.1802 49.2305C63.3082 49.2391 63.3835 49.2534 63.5329 49.2848C64.1088 49.4077 64.662 49.6177 65.2252 49.7849C65.7599 49.9449 66.4042 50.1392 66.9375 49.8777C66.9872 49.8535 67.0256 49.8135 67.0541 49.7677C67.2546 49.6363 67.4366 49.472 67.6087 49.3177C67.9472 49.0148 68.2658 48.6905 68.6071 48.3905C69.3238 47.7575 70.3819 47.2175 71.3916 47.2632C71.8567 47.2846 72.3103 47.4404 72.6701 47.739C73.0029 48.0161 73.2632 48.369 73.5334 48.7048C73.8135 49.0534 74.1122 49.3834 74.4834 49.6377C74.9541 49.9606 75.5272 50.0178 76.0833 49.9863C76.6009 49.9563 77.12 49.8706 77.6362 49.972C78.134 50.0706 78.5635 50.3078 78.9788 50.5935C79.394 50.8793 79.6998 51.2107 79.9259 51.6636C80.1335 52.0823 80.28 52.5309 80.5246 52.9323C80.9797 53.6796 81.668 54.0739 82.4516 54.3996C82.6266 54.4725 82.8015 54.5396 82.9778 54.6097C83.1513 54.6782 83.3291 54.7482 83.4699 54.8097C83.6363 54.8825 83.8012 54.9611 83.9591 55.0497C84.0302 55.0897 84.0999 55.1311 84.1682 55.1754C84.2037 55.1983 84.2393 55.224 84.2748 55.2483C84.3303 55.2869 84.2933 55.2583 84.3459 55.3026C84.4099 55.3569 84.4711 55.4126 84.5294 55.4726C84.5578 55.5026 84.5848 55.5326 84.6119 55.564C84.6119 55.564 84.6204 55.5755 84.6275 55.5826C84.636 55.5955 84.6616 55.6326 84.6631 55.6326C84.7697 55.7926 84.8095 55.8755 84.8565 56.0441C84.9958 56.547 84.8892 57.0999 84.8138 57.6042C84.7214 58.2172 84.6631 58.8058 84.7896 59.4187C84.9048 59.9702 85.1366 60.4874 85.3187 61.0189C85.4879 61.5132 85.6372 62.0318 85.7012 62.5519C85.7581 63.0248 85.7595 63.5463 85.4979 63.9606Z" fill="#F8B9CE"/>
<path d="M31.59 65.365C31.371 66.1822 30.4537 66.4822 29.8892 67.0566C29.2407 67.7167 29.0899 68.6625 29.0629 69.5525C29.0373 70.3726 29.1127 71.2399 28.723 71.9514C28.5011 72.3543 28.157 72.6386 27.7631 72.8686C27.4658 73.0429 27.1316 73.1672 26.85 73.3658C26.5315 73.5901 26.3494 73.9044 26.203 74.2602C26.0252 74.6859 25.8901 75.1274 25.6896 75.5446C25.4819 75.9746 25.2359 76.4004 24.8804 76.7247C24.4964 77.0747 24.0328 77.1304 23.5308 77.0762C22.9591 77.0147 22.3902 76.8576 21.8156 76.9947C21.7147 77.019 21.6165 77.0533 21.5213 77.0933C21.4544 77.0933 21.3876 77.1076 21.3335 77.139C21.2838 77.169 21.2468 77.2062 21.2198 77.2476C20.9609 77.4033 20.7263 77.6005 20.5087 77.8019C20.1461 78.1377 19.8147 78.5163 19.4037 78.7963C19.0083 79.0649 18.5973 79.3735 18.1295 79.495C17.6744 79.6136 17.1852 79.5021 16.7457 79.3392C16.275 79.1635 15.8284 78.9063 15.4231 78.6092C15.0662 78.3491 14.7277 78.032 14.5186 77.6376C14.4248 77.4619 14.1972 77.4233 14.0323 77.5091C12.411 78.3606 10.1356 78.8592 8.74616 77.3705C8.402 77.0019 8.16592 76.5518 7.95829 76.0961C7.83598 75.8275 7.73075 75.526 7.49894 75.3288C7.19175 75.0674 6.7708 75.0417 6.3854 75.0302C5.82223 75.0145 5.29604 75.0145 4.76131 74.8102C4.27067 74.6231 3.83976 74.2687 3.52974 73.8473C3.17989 73.3701 3.15145 72.7343 2.77173 72.2714C2.6025 72.0628 2.37496 71.8942 2.10901 71.8399C1.87578 71.7928 1.69375 71.7613 1.4918 71.6228C1.08365 71.3442 0.905882 70.8641 0.812021 70.3955C0.688294 69.7769 0.672651 69.1368 0.787844 68.5167C0.918681 67.8195 1.16329 67.1552 1.42639 66.5008C1.6326 65.9865 1.75206 65.4464 1.56718 64.9064C1.37946 64.3549 1.10214 63.8477 0.958501 63.2776C0.850418 62.8447 0.809176 62.3875 0.910148 62.0032C0.996899 61.6775 1.17609 61.406 1.4079 61.1589C2.00378 60.5231 2.75751 60.0616 3.35766 59.4287C3.54111 59.2372 3.70893 59.0315 3.86963 58.82C3.93931 58.7258 3.93362 58.5529 3.86963 58.4586C3.83692 58.4114 3.80848 58.3614 3.78145 58.31C3.77861 58.3043 3.77434 58.2914 3.77008 58.2814C3.7587 58.2528 3.74875 58.2243 3.74021 58.1957C3.72457 58.1414 3.71035 58.0843 3.70039 58.0285C3.69613 58.01 3.69328 57.99 3.69044 57.9714C3.69044 57.9671 3.68048 57.88 3.68048 57.8685C3.66057 57.5814 3.68617 57.3356 3.74163 57.077C3.85683 56.5298 4.0929 55.9469 4.42711 55.544C4.59634 55.3411 4.71722 55.2168 4.93908 55.1211C4.94619 55.1211 5.03578 55.0897 5.05143 55.0854C5.10689 55.0711 5.16236 55.0597 5.21924 55.0497C5.24768 55.044 5.27186 55.0411 5.34581 55.0354C5.42545 55.0297 5.50367 55.0268 5.58331 55.0254C6.22896 55.0154 6.87035 55.1197 7.51031 55.1754C8.10619 55.2268 8.80162 55.2854 9.30221 54.8954C9.34346 54.8625 9.37048 54.8196 9.38612 54.7711C9.56815 54.5882 9.72317 54.371 9.86823 54.1739C10.1569 53.7824 10.42 53.3724 10.713 52.9852C11.2904 52.2237 12.1707 51.5179 13.115 51.2822C13.6028 51.1607 14.1347 51.1693 14.6025 51.365C15.0036 51.5322 15.3449 51.8151 15.6763 52.0908C16.0389 52.3923 16.4058 52.7037 16.8296 52.9166C17.4042 53.2038 17.9872 53.2281 18.6059 53.0852C19.1847 52.9523 19.7379 52.7123 20.3395 52.6923C20.9112 52.6723 21.4487 52.838 21.9721 53.0623C22.4357 53.2609 22.8083 53.5309 23.1254 53.9267C23.407 54.2796 23.6403 54.6782 23.9361 55.024C24.2304 55.3697 24.5903 55.6654 25.0041 55.8526C25.381 56.0212 25.7749 56.1269 26.1788 56.2055C26.5884 56.2855 27.0022 56.3441 27.4118 56.427C27.6095 56.467 27.8071 56.5127 28.0005 56.5712C28.0873 56.597 28.1741 56.6255 28.2594 56.6584C28.3376 56.687 28.3845 56.707 28.4855 56.7584C28.8112 56.927 29.0344 57.127 29.1994 57.4471C29.4326 57.9028 29.4469 58.5172 29.4767 59.0472C29.5094 59.6416 29.5564 60.2316 29.7825 60.7902C30.0015 61.3332 30.3258 61.8146 30.6301 62.3118C30.9216 62.7876 31.1961 63.2891 31.3924 63.8134C31.573 64.2963 31.7266 64.8507 31.59 65.365Z" fill="#F8B9CE"/>
<path d="M69.7704 26.4656C69.4134 26.3042 69.055 26.1499 68.6952 25.997C67.1877 25.3569 65.6561 24.8112 64.0889 24.3297C59.8708 23.0324 55.6058 21.8823 51.237 21.2222C49.0512 20.8922 46.8483 20.6765 44.6383 20.6208C42.5306 20.5665 40.4287 20.7093 38.3254 20.8065C34.2879 20.9937 30.2462 21.1565 26.2315 21.638C22.2409 22.1166 18.2575 22.901 14.5031 24.3754C14.5258 24.3511 14.5486 24.3254 14.5713 24.2997C14.8501 23.9925 15.1203 23.6711 15.4132 23.3767C15.9949 22.7967 16.706 22.3795 17.3388 21.8666C17.6446 21.6194 17.9233 21.3423 18.2461 21.1165C18.6145 20.8594 18.9842 20.6079 19.3469 20.345C19.7067 20.0836 20.0594 19.8107 20.3936 19.5178C20.5713 19.3635 20.5514 19.0592 20.3936 18.9006C20.3779 18.8849 20.3594 18.872 20.3424 18.8591C19.947 17.5519 19.6057 16.2275 19.408 14.8745C19.2146 13.5415 19.1407 12.117 19.3341 10.7783C19.4237 10.1497 19.6612 9.53679 19.8219 8.92244C19.9897 8.27809 20.0608 7.62803 20.3708 7.0294C20.678 6.43362 21.0449 5.85071 21.4161 5.29494C21.7389 4.81203 22.1172 4.37056 22.5325 3.96623C23.3701 3.14901 24.3798 2.48323 25.4706 2.06033C26.0978 1.81744 26.7107 1.55885 27.3564 1.37026C28.0035 1.18167 28.6676 1.03451 29.3374 0.95593C31.8745 0.654472 34.6449 1.16738 36.6529 2.83326C37.118 3.22044 37.5475 3.64763 37.9599 4.09053C38.3751 4.53772 38.8444 4.99348 39.1843 5.5021C39.884 6.54506 40.1414 7.78233 40.514 8.96245C40.6051 9.25105 40.7046 9.53536 40.8184 9.81396C40.8283 9.83968 40.8411 9.86396 40.8539 9.88825C40.8539 9.89682 40.8511 9.90397 40.8511 9.91254C40.8497 10.0868 40.881 10.2669 40.9293 10.4355C40.9535 10.5226 40.9876 10.6098 41.0303 10.6898C41.0388 10.7055 41.0488 10.7212 41.0573 10.7369V10.7412C41.0559 10.8483 41.1042 10.9626 41.1782 11.0412C41.1398 11.2641 41.1028 11.487 41.0886 11.7141C41.0658 12.0742 41.0502 12.4242 41.0061 12.7828C40.9649 13.1086 40.989 13.4443 40.989 13.7729C40.989 14.123 40.9876 14.473 40.989 14.823C40.9905 15.1631 41.0545 15.496 41.0573 15.836C41.063 16.5146 41.2621 17.1747 41.2635 17.8533C41.2649 18.4148 42.1339 18.4162 42.1324 17.8533C42.131 17.1876 41.9376 16.5403 41.9262 15.876C41.9191 15.5231 41.8594 15.1759 41.8565 14.823C41.8551 14.473 41.8565 14.123 41.8565 13.7729C41.8565 13.46 41.8281 13.1314 41.8708 12.8214C41.9191 12.4642 41.9348 12.1156 41.9547 11.7556C41.9717 11.4198 42.0528 11.0927 42.0997 10.7598C42.1239 10.5926 42.1196 10.4283 42.1339 10.2626C42.1452 10.1211 42.1964 9.98826 42.2007 9.84253C42.2007 9.82825 42.1993 9.81682 42.1979 9.80253C42.1993 9.79681 42.2021 9.79253 42.2035 9.78539C42.5178 8.38524 42.9288 6.99796 43.6854 5.76784C44.4121 4.58629 45.4816 3.59048 46.6079 2.79754C47.181 2.39465 47.7855 2.03747 48.4098 1.72172C48.9417 1.45169 49.4835 1.27882 50.0637 1.14738C51.1758 0.897353 52.3221 0.833061 53.4584 0.921641C55.7239 1.0988 57.9609 1.92888 59.767 3.31902C60.6615 4.00624 61.4508 4.84918 62.0638 5.79784C62.8317 6.98511 63.2939 8.36239 63.557 9.74824C64.1031 12.6271 63.6836 15.6274 62.772 18.3848C62.7279 18.5177 62.6824 18.6506 62.6355 18.782C62.5501 18.7949 62.4662 18.832 62.398 18.9006C62.2458 19.0535 62.223 19.3421 62.3823 19.5006C62.3582 19.7021 62.5174 19.9107 62.7037 19.9621C62.7862 19.985 62.8644 19.9821 62.9355 19.9621C63.4674 20.375 64.0263 20.7536 64.5781 21.1408C64.8896 21.3594 65.1569 21.6294 65.4527 21.868C65.7713 22.1252 66.1197 22.3381 66.4411 22.5938C66.7682 22.8538 67.1095 23.1067 67.4039 23.4053C67.6969 23.7025 67.9685 24.0211 68.2472 24.3311C68.5146 24.6297 68.7962 24.9412 69.0152 25.2769C69.2427 25.6241 69.4589 25.9784 69.6865 26.327C69.7149 26.3728 69.7419 26.4199 69.7704 26.4671V26.4656Z" fill="white"/>
<path d="M54.8321 82.1612C54.8534 82.6212 54.1424 82.6184 54.121 82.1612C54.1111 81.9197 54.1011 81.6783 54.0912 81.4382C54.057 80.6067 54.0172 79.7724 53.7755 78.9709C53.5365 78.1779 53.1085 77.3778 52.5524 76.7792C51.5541 75.7034 50.0551 75.2248 48.6188 75.1476C47.1141 75.0676 45.564 75.3748 44.2713 76.1506C43.5787 76.5663 42.9515 77.1035 42.5277 77.795C42.1665 78.3837 41.9745 79.028 41.8579 79.7238C41.7413 80.4124 41.7072 81.1668 41.656 81.894C41.5977 82.7055 41.518 83.5156 41.3459 84.31C41.2478 84.76 40.5623 84.5686 40.6605 84.1199C40.7045 83.9142 40.7444 83.707 40.7771 83.4985C41.0245 81.9526 40.9108 80.341 41.326 78.8208C41.5351 78.0579 41.8949 77.3535 42.4125 76.7563C42.9885 76.092 43.7465 75.5677 44.5386 75.1991C46.0461 74.499 47.7626 74.2804 49.401 74.5118C50.9795 74.7362 52.5211 75.4548 53.4669 76.7835C54.0144 77.5521 54.4225 78.4337 54.6046 79.3638C54.7852 80.2838 54.7909 81.2282 54.8321 82.1612Z" fill="#231F20"/>
<path d="M65.7869 79.1436C65.5764 79.1436 65.4527 79.3079 65.4313 79.5007C65.3033 80.6194 65.0303 81.7238 64.6932 82.7953C64.3363 83.9312 63.8926 85.0413 63.3337 86.0928C63.0435 86.6372 62.7221 87.1658 62.351 87.6601C62.2358 87.8144 62.3268 88.0602 62.479 88.1487C62.661 88.2559 62.8501 88.1745 62.9653 88.0202C63.6622 87.0915 64.1955 86.0428 64.6463 84.9741C65.1341 83.8183 65.5295 82.6239 65.811 81.4009C65.9561 80.7737 66.0684 80.1394 66.141 79.5007C66.1623 79.3093 65.9618 79.1436 65.7854 79.1436H65.7869Z" fill="#231F20"/>
<path d="M69.5215 78.535C69.5001 79.3751 69.2697 80.2037 68.991 80.9895C68.6852 81.8467 68.2927 82.6754 67.8334 83.4598C67.6115 83.8369 67.3555 84.237 67.0996 84.567C66.9815 84.7184 66.9516 84.9242 67.0996 85.0728C67.2219 85.1956 67.4835 85.2256 67.603 85.0728C68.1548 84.3641 68.6113 83.5869 69.0038 82.7797C69.4319 81.8982 69.7974 80.9738 70.0249 80.0194C70.1401 79.5336 70.2212 79.035 70.234 78.535C70.2453 78.0749 69.5343 78.0749 69.5229 78.535H69.5215Z" fill="#231F20"/>
<path d="M13.6853 84.0985C13.3255 83.1227 13.0638 82.1126 12.8349 81.0996C12.7339 80.651 12.0484 80.841 12.1494 81.2896C12.3869 82.3397 12.66 83.3856 13.0397 84.3928C13.4265 85.4186 13.9143 86.423 14.6467 87.2488C14.9524 87.5931 15.453 87.0859 15.1501 86.7431C14.4789 85.9873 14.0337 85.04 13.6867 84.0985H13.6853Z" fill="#231F20"/>
<path d="M18.411 87.4917C18.0242 86.5145 17.6004 85.5458 17.2776 84.5443C17.0685 83.8928 16.8978 83.2284 16.8026 82.5498C16.7755 82.3583 16.5338 82.254 16.3645 82.2997C16.1597 82.3569 16.0901 82.5469 16.1157 82.7398C16.2877 83.9728 16.7002 85.1643 17.1766 86.3087C17.5392 87.1817 17.8663 88.1532 18.3143 89.0233C18.5475 89.4762 18.8277 89.9348 19.2159 90.2705C19.361 90.3963 19.5757 90.4148 19.7194 90.2705C19.8474 90.142 19.8659 89.8919 19.7194 89.7648C19.0638 89.2004 18.7239 88.2818 18.411 87.4917Z" fill="#231F20"/>
<path d="M24.3514 40.4754C22.7486 40.2268 21.0463 40.7283 19.8332 41.8084C18.6202 42.8885 17.9176 44.5258 17.9717 46.1546C18.0257 47.7905 18.8619 49.4078 20.2329 50.2936C20.9439 50.7536 21.7674 51.0093 22.6007 51.1594C23.5166 51.3237 24.4652 51.3608 25.3768 51.1694C27.18 50.7879 28.7615 49.4478 29.4128 47.7162C30.0641 45.9831 29.7513 43.9129 28.5965 42.4699C27.4417 41.0269 25.5161 40.0211 23.6645 40.6083" fill="#FACED6"/>
<path d="M22.0517 45.1546C22.0503 45.7618 22.0474 46.3704 22.046 46.9776C22.046 47.1648 22.2096 47.3434 22.4016 47.3348C22.5935 47.3262 22.7571 47.1777 22.7571 46.9776C22.7585 46.3704 22.7614 45.7618 22.7628 45.1546C22.7628 44.9674 22.5992 44.7888 22.4072 44.7974C22.2153 44.806 22.0517 44.9546 22.0517 45.1546Z" fill="#F6A4B4"/>
<path d="M24.5334 44.9673C24.5305 45.6403 24.5263 46.3132 24.5234 46.9861C24.5234 47.1733 24.687 47.3519 24.879 47.3433C25.071 47.3347 25.2331 47.1861 25.2345 46.9861C25.2374 46.3132 25.2416 45.6403 25.2445 44.9673C25.2445 44.7802 25.0809 44.6016 24.8889 44.6102C24.6969 44.6187 24.5348 44.7673 24.5334 44.9673Z" fill="#F6A4B4"/>
<path d="M86.4311 62.7551C86.3927 62.2022 86.2619 61.6607 86.1026 61.1321C85.9305 60.5677 85.6817 60.0277 85.5309 59.4576C85.3759 58.8776 85.42 58.3189 85.5096 57.7317C85.5978 57.1374 85.7002 56.5245 85.5622 55.9301C85.1768 54.2657 83.136 54.0828 81.9343 53.3627C81.7651 53.2613 81.6769 53.2013 81.5475 53.0813C81.3797 52.9255 81.2432 52.7455 81.1251 52.5498C80.8805 52.1398 80.7355 51.6826 80.5179 51.2597C80.2605 50.7568 79.8935 50.3681 79.4342 50.0453C78.9976 49.7367 78.5326 49.4638 78.012 49.3266C77.446 49.178 76.8871 49.2095 76.3126 49.2552C75.7907 49.2966 75.2702 49.3195 74.8222 49.008C74.4723 48.7623 74.2007 48.4065 73.9362 48.0751C73.7698 47.8665 73.6006 47.6636 73.4171 47.4736C73.4441 47.3993 73.4697 47.325 73.4967 47.2507C73.811 46.382 74.2007 45.522 74.4169 44.6219C74.5179 44.2047 74.6117 43.7818 74.7056 43.3617C74.8065 42.9017 74.8293 42.4345 74.8791 41.9673C74.9388 41.4158 74.9587 40.8586 74.9601 40.3029C76.4719 41.1029 77.9936 41.8716 79.6376 42.3674C79.8864 42.4431 80.1495 42.5231 80.4126 42.4874C80.6871 42.4488 80.8862 42.2702 81.0256 42.0373C81.3953 41.4144 81.4081 40.6729 81.6684 40.0128C81.8106 39.6528 82.0708 39.3642 82.3211 39.0742C82.6454 38.6984 82.9782 38.3284 83.3038 37.9526C83.5925 37.6183 83.8784 37.2811 84.1529 36.9354C84.3733 36.6582 84.6023 36.3567 84.6236 35.9896C84.6463 35.6052 84.4174 35.2738 84.1543 35.0195C83.8443 34.7194 83.483 34.4594 83.1204 34.2294C82.3809 33.7622 81.5688 33.425 80.7582 33.1064C79.0986 32.4535 77.4389 31.7991 75.7864 31.1305C76.341 31.0476 76.89 30.9433 77.4432 30.8391C78.7957 30.5833 80.1694 30.3976 81.5375 30.239C82.3595 30.1447 83.3209 30.099 83.7888 29.296C84.0803 28.7946 84.123 28.1631 84.1344 27.5973C84.15 26.8472 84.049 26.0986 83.9267 25.3599C83.8158 24.6899 83.7276 24.0141 83.5982 23.3483C83.4902 22.7897 83.3124 22.2496 82.9924 21.7839C83.2086 20.9666 82.991 19.9194 82.2159 19.4765C81.7893 19.2322 81.3143 19.2736 80.8634 19.4251C80.461 19.5579 80.0827 19.7508 79.7186 19.968C79.4299 19.2922 78.9777 18.6593 78.4799 18.1449C78.1898 17.8449 77.8457 17.5449 77.4219 17.4806C76.9853 17.4149 76.57 17.5834 76.2216 17.8392C75.8504 18.1106 75.5347 18.4421 75.2133 18.7664C74.8563 19.1279 74.478 19.4693 74.1068 19.8165C73.3161 20.5595 72.5254 21.3052 71.7688 22.0839C70.9966 22.8768 70.2599 23.7055 69.6015 24.597C69.1606 23.9812 68.6145 23.4112 68.0983 22.8697C67.501 22.2425 66.7572 21.7896 66.0803 21.261C65.7589 21.0109 65.473 20.7195 65.1445 20.4766C64.7861 20.2123 64.4107 19.9694 64.048 19.7108C63.8276 19.5522 63.6114 19.3879 63.3995 19.2193C64.3893 16.4762 64.907 13.4973 64.5572 10.5856C64.3709 9.02687 63.9584 7.46957 63.2346 6.07086C62.6686 4.9779 61.8579 3.98637 60.9421 3.17057C59.1132 1.53612 56.7766 0.49316 54.3575 0.151698C53.1231 -0.0226056 51.8873 -0.0283205 50.6543 0.154555C50.0669 0.240278 49.4853 0.373148 48.9193 0.554595C48.2438 0.770331 47.5981 1.14465 46.9923 1.50898C45.7209 2.2762 44.5604 3.24058 43.609 4.38641C42.6434 5.54795 42.0489 6.97095 41.6479 8.41824C41.5853 8.64398 41.5284 8.86971 41.4744 9.09688C41.1018 8.03106 40.8699 6.91666 40.395 5.88656C40.0977 5.24506 39.6881 4.72501 39.226 4.19782C38.795 3.70777 38.357 3.22343 37.8863 2.77196C37.4241 2.32763 36.9263 1.91759 36.393 1.56184C36.12 1.37896 35.8398 1.20895 35.5369 1.07893C35.2411 0.953206 34.9396 0.841767 34.6481 0.707467C34.0038 0.408866 33.2586 0.257422 32.5604 0.147411C31.8393 0.0359717 31.1126 -0.0168908 30.3831 0.00596867C28.9567 0.0474014 27.5359 0.340288 26.1991 0.836052C24.9476 1.29896 23.7559 1.84187 22.6992 2.66909C22.21 3.05199 21.7578 3.47917 21.3539 3.95065C20.9144 4.46356 20.5603 5.02504 20.2048 5.59796C19.8279 6.20802 19.4326 6.82522 19.242 7.52529C19.1481 7.87104 19.1012 8.22965 19.013 8.57683C18.9306 8.90829 18.8338 9.23689 18.74 9.5655C18.649 9.88553 18.5508 10.2098 18.4954 10.5385C18.4314 10.9128 18.4129 11.3014 18.393 11.68C18.3546 12.4086 18.3674 13.1387 18.4271 13.8645C18.5452 15.3089 18.8395 16.7319 19.2249 18.1278C19.3174 18.4607 19.4155 18.7921 19.5151 19.1236C18.9064 19.6151 18.2451 20.0294 17.6179 20.498C17.2965 20.7395 17.0163 21.0266 16.6978 21.2724C16.3522 21.5381 15.9867 21.7739 15.6454 22.0482C15.3183 22.3111 14.9841 22.5654 14.694 22.8697C14.3968 23.1811 14.1081 23.5055 13.8265 23.8312C13.5492 24.1512 13.259 24.4798 13.0272 24.8356C12.7926 25.1928 12.5665 25.5585 12.3347 25.9186C12.1057 26.2757 11.9322 26.6658 11.6961 27.0187C11.47 27.3587 11.1856 27.6473 10.9808 28.0016C10.7603 28.3788 10.5186 28.7446 10.3038 29.126C10.0848 29.5132 9.96821 29.9204 9.80893 30.3319C9.73925 30.5119 9.63116 30.6733 9.54726 30.8476C9.44771 31.0562 9.36096 31.2734 9.29411 31.4948C9.17323 31.9034 9.06799 32.3121 8.93716 32.7192C8.80063 33.1407 8.72383 33.5765 8.62571 34.0079C8.53042 34.4237 8.38821 34.828 8.30146 35.2438C8.21044 35.681 8.21044 36.1339 8.13791 36.5753C8.10094 36.7954 8.05543 37.014 8.01987 37.234C7.97579 37.4969 7.98859 37.754 7.97294 38.0198C7.94877 38.4427 7.85206 38.8541 7.84353 39.2828C7.83357 39.7457 7.84353 40.21 7.84353 40.6743C7.84353 42.4602 8.17773 44.2547 8.80774 45.922C9.14479 46.8135 9.42495 47.7336 9.80182 48.608C9.97105 49.0037 10.1872 49.3695 10.4048 49.7381C10.6167 50.0981 10.8002 50.4739 11.0078 50.8353C11.1159 51.0239 11.2325 51.2068 11.3534 51.3868C10.9566 51.6854 10.574 52.0212 10.2654 52.4112C9.94688 52.8127 9.66672 53.2427 9.36949 53.6585C9.24576 53.8299 9.12346 53.9957 8.98409 54.1528C8.9272 54.2185 8.86747 54.2814 8.80348 54.34C8.79352 54.3485 8.73806 54.3914 8.73379 54.3957C8.70961 54.4114 8.68686 54.4271 8.66268 54.44C8.65415 54.4428 8.64704 54.4457 8.63851 54.4471C8.593 54.46 8.54749 54.4671 8.50198 54.4743C8.48491 54.4771 8.4451 54.4814 8.44083 54.4814C8.39248 54.4857 8.34412 54.4886 8.29577 54.4914C7.99001 54.5028 7.68283 54.4786 7.37849 54.4486C6.72572 54.3871 6.06301 54.2771 5.40598 54.3171C4.79872 54.3557 4.30382 54.5771 3.91415 55.0543C3.49462 55.5687 3.21019 56.1987 3.06655 56.8459C2.94283 57.4017 2.88878 58.0704 3.13624 58.6061C2.58302 59.2805 1.86484 59.7748 1.21777 60.3534C0.55647 60.9449 0.109917 61.6807 0.144048 62.5951C0.165381 63.2066 0.347415 63.8066 0.579224 64.3696C0.683041 64.6239 0.801078 64.8553 0.883563 65.0968C0.953248 65.2996 0.976002 65.4354 0.947559 65.6354C0.90205 65.9597 0.758414 66.2655 0.638954 66.5683C0.503851 66.9098 0.380124 67.257 0.27773 67.6099C0.0743635 68.3099 -0.0450965 69.04 0.0188999 69.7687C0.0715192 70.3673 0.15827 70.9902 0.462608 71.5188C0.741348 72.006 1.22914 72.4175 1.79089 72.5075C2.01701 72.5447 2.12225 72.5718 2.27015 72.779C2.42659 73.0004 2.49485 73.2804 2.58587 73.5319C2.81341 74.1548 3.21161 74.6534 3.73923 75.0492C4.21422 75.4064 4.78308 75.615 5.36616 75.695C5.67618 75.7378 5.98337 75.7378 6.29482 75.7436C6.40716 75.7436 6.51951 75.7478 6.63044 75.7564C6.67026 75.7607 6.70866 75.7635 6.74706 75.7693C6.75559 75.7693 6.83096 75.785 6.84945 75.7893C6.88216 75.7964 6.91487 75.8078 6.94758 75.8164C6.95611 75.8193 6.96038 75.8193 6.96607 75.8207C6.96891 75.8236 6.97033 75.825 6.97602 75.8293C6.99167 75.8393 7.01015 75.8507 7.02722 75.8607C7.0386 75.8721 7.05282 75.8836 7.06277 75.895C7.06704 75.9007 7.07131 75.905 7.07557 75.9107C7.09122 75.935 7.10828 75.9607 7.12392 75.9864C7.16232 76.0507 7.19361 76.1193 7.2249 76.1879C7.42257 76.6151 7.6103 77.0437 7.88335 77.428C8.53896 78.3495 9.50033 78.8896 10.6153 79.011C11.652 79.1239 12.7172 78.8667 13.6686 78.4667C13.808 78.4081 13.9459 78.3452 14.0825 78.2809C14.3271 78.6238 14.6471 78.9096 14.9798 79.1625C15.4164 79.4954 15.8971 79.7597 16.4034 79.9668C16.8955 80.1697 17.4458 80.3054 17.9791 80.244C18.4996 80.1854 18.9547 79.9468 19.3885 79.6639C19.8649 79.3539 20.2873 79.011 20.694 78.6138C20.9031 78.411 21.1178 78.1881 21.3582 78.0066C21.7094 78.971 21.8602 80.014 21.9697 81.0269C22.1005 82.2428 22.1574 83.4658 22.3067 84.6787C22.4831 86.106 22.7718 87.5233 23.0619 88.9306C23.3449 90.3021 23.6421 91.6737 23.9593 93.0396C24.2152 94.1382 24.5182 95.2398 25.0259 96.2513C25.5393 97.2786 26.2845 98.1415 27.2629 98.743C28.3722 99.4273 29.6265 99.8017 30.915 99.9403C32.1323 100.072 33.3497 99.9674 34.5613 99.8317C35.5213 99.7259 36.4841 99.5816 37.3701 99.1802C38.266 98.773 38.9757 98.0658 39.4563 97.21C40.129 96.0127 40.5329 94.6683 41.0164 93.3896C41.0918 93.1896 41.1757 92.9924 41.2824 92.8053C41.3748 92.6424 41.4175 92.5767 41.5398 92.4595C41.5625 92.4366 41.5881 92.4152 41.6123 92.3938C41.6223 92.3866 41.6436 92.3695 41.6535 92.3638C41.7175 92.3238 41.7815 92.2866 41.8498 92.2538C41.8541 92.2509 41.8669 92.2452 41.8754 92.2423C41.8854 92.2381 41.8953 92.2338 41.9038 92.2295C41.938 92.218 41.9707 92.2052 42.0048 92.1952C42.0958 92.1638 42.1883 92.138 42.2821 92.1152C43.289 91.8637 44.3186 91.698 45.3269 91.448C46.4519 91.1679 47.5654 90.8436 48.6562 90.4493C50.8306 89.6621 52.9397 88.6034 54.6832 87.0575C55.619 86.2275 56.3969 85.2431 57.1151 84.2201C57.9086 83.09 58.6126 81.9013 59.2853 80.6955C59.9224 79.5511 60.5666 78.4067 61.0971 77.208C61.5991 76.0736 62.0471 74.912 62.6245 73.8119C62.8733 73.3376 63.1478 72.869 63.4721 72.4389C63.5048 72.4504 63.5375 72.4632 63.5716 72.4732C64.5216 72.7661 65.5527 72.7275 66.5183 72.5404C66.6392 72.5161 66.7615 72.4889 66.8809 72.4589C67.2464 73.2976 68.0059 73.9991 68.7425 74.4849C69.1948 74.7835 69.7153 75.012 70.2628 75.0363C70.8046 75.0606 71.3152 74.8535 71.8087 74.6534C72.3292 74.442 72.78 74.1434 73.2578 73.8519C73.6461 73.6133 74.0784 73.3762 74.5491 73.4447C75.0597 73.5176 75.5176 73.7962 76.0196 73.9062C76.5657 74.0262 77.1047 73.9491 77.584 73.6548C78.4614 73.119 78.9293 72.2103 79.4939 71.3903C79.548 71.3117 79.565 71.2874 79.629 71.2145C79.6546 71.186 79.6802 71.1588 79.7072 71.1331C79.7186 71.1217 79.7584 71.0902 79.7656 71.0816C79.8096 71.0516 79.8551 71.0259 79.9007 71.0002C79.9035 70.9988 79.9049 70.9974 79.9078 70.9959C79.9163 70.9931 79.9263 70.9888 79.9362 70.9859C79.9703 70.9731 80.0045 70.9616 80.04 70.9502C80.4354 70.8302 80.8322 70.7416 81.2119 70.573C82.0054 70.2244 82.5117 69.5572 82.7805 68.7457C83.0095 68.0499 83.0848 67.2627 83.355 66.6069C83.4887 66.284 83.685 65.9611 83.9751 65.7354C84.2666 65.5068 84.6876 65.3625 85.0403 65.1982C85.4541 65.0039 85.8296 64.7467 86.0884 64.361C86.3999 63.8966 86.471 63.3023 86.4326 62.7551H86.4311ZM79.703 33.4579C80.4425 33.7493 81.192 34.0208 81.9059 34.3723C82.2699 34.5509 82.6241 34.7494 82.9597 34.9766C83.2555 35.1766 83.5968 35.4067 83.8116 35.6981C83.8386 35.7324 83.8627 35.7724 83.8827 35.8124C83.8827 35.8138 83.8926 35.8367 83.8969 35.8453C83.9011 35.8638 83.9097 35.901 83.9139 35.9067C83.9139 35.9224 83.9154 35.9396 83.9154 35.9553C83.9139 35.9624 83.9139 35.9653 83.9139 35.971C83.9139 35.9739 83.9125 35.9753 83.9111 35.981C83.9054 36.0067 83.8969 36.0324 83.8883 36.0581C83.8841 36.0667 83.877 36.0853 83.8755 36.0882C83.8514 36.1382 83.8229 36.1867 83.7931 36.2325C83.5968 36.5368 83.3408 36.8097 83.109 37.0854C82.8189 37.4326 82.5188 37.7697 82.2202 38.1098C81.9101 38.4612 81.5816 38.8084 81.3114 39.1913C80.909 39.7585 80.8464 40.4314 80.6487 41.0801C80.606 41.2201 80.5492 41.3887 80.4965 41.5073C80.4709 41.5658 80.4425 41.623 80.4112 41.6759C80.397 41.7001 80.3813 41.7244 80.3657 41.7459C80.3586 41.753 80.3501 41.763 80.3429 41.7687C80.3344 41.7744 80.3301 41.7787 80.3259 41.7801C80.3259 41.7787 80.3159 41.7801 80.3173 41.7816C80.3145 41.783 80.3131 41.783 80.3117 41.783C80.2917 41.7816 80.2448 41.7816 80.2278 41.7816C80.2107 41.7787 80.1893 41.7759 80.1879 41.7759C80.1552 41.7687 80.1225 41.7616 80.0912 41.7544C78.2794 41.3087 76.6084 40.3729 74.9729 39.5028C74.9672 39.4985 74.9601 39.4971 74.953 39.4942C74.9516 39.4242 74.9516 39.3528 74.9502 39.2828C74.9445 39.0756 74.9345 38.8684 74.9118 38.6641C74.8848 38.4341 74.825 38.2069 74.8179 37.9769C74.8108 37.7412 74.8179 37.5097 74.7795 37.2754C74.7425 37.0411 74.6942 36.8097 74.6558 36.5753C74.5804 36.1224 74.5818 35.6552 74.4837 35.2081C74.3913 34.7909 74.2519 34.3851 74.1581 33.9679C74.0599 33.5365 73.9817 33.1036 73.8438 32.6821C73.7115 32.2763 73.6119 31.8663 73.4868 31.4591C73.4811 31.4405 73.474 31.4205 73.4669 31.402C73.7641 31.3691 74.0628 31.3362 74.36 31.3048C74.3884 31.3234 74.4169 31.3405 74.4496 31.3534C76.1946 32.0692 77.9481 32.7664 79.703 33.4579ZM79.8495 20.7266C79.9689 20.6509 80.0884 20.578 80.2107 20.508C80.5804 20.2951 81.0483 20.0408 81.465 20.0123C81.5788 20.0037 81.6314 20.0108 81.7125 20.0337C81.785 20.0537 81.8362 20.0765 81.9229 20.1337C82.0367 20.2094 82.1434 20.3523 82.2244 20.5137C82.3723 20.8109 82.3979 21.1752 82.3254 21.5167C82.3183 21.5238 82.3098 21.5281 82.3027 21.5353C82.1576 21.681 82.1761 21.8939 82.3027 22.041C82.6354 22.4296 82.7876 22.9368 82.8914 23.4312C83.0023 23.9627 83.0592 24.5041 83.1531 25.0385C83.2711 25.7128 83.3849 26.39 83.4162 27.0758C83.4418 27.6373 83.4603 28.2859 83.2384 28.816C83.1289 29.076 82.9213 29.246 82.6795 29.3289C82.297 29.4603 81.9727 29.4746 81.5816 29.5203C80.2704 29.6689 78.9564 29.849 77.6565 30.0775C76.8957 30.2104 76.1419 30.3776 75.374 30.4747C74.6373 30.5676 73.8978 30.6362 73.1611 30.7219C73.0971 30.5947 73.036 30.4662 72.9834 30.3319C72.8184 29.9075 72.6975 29.4903 72.47 29.0917C72.2595 28.7231 72.0248 28.3688 71.8129 28.0016C71.601 27.6359 71.3038 27.3401 71.0748 26.9887C71.072 26.9844 71.0706 26.9801 71.0677 26.9758C71.2796 26.8929 71.3266 26.6129 71.2128 26.4358C71.7959 25.9214 72.4884 25.5385 73.1611 25.1513C74.1424 24.587 75.0597 23.9241 76.004 23.2997C76.9668 22.6639 77.9466 22.0553 78.8867 21.3867C79.1355 21.2081 79.3873 21.0324 79.6418 20.8623C79.7257 20.8409 79.7997 20.7938 79.8495 20.7266ZM74.1054 20.798C74.771 20.168 75.4351 19.5394 76.0879 18.8964C76.341 18.6464 76.6311 18.3564 76.9625 18.2306C77.2654 18.1149 77.5029 18.2149 77.7518 18.435C78.0945 18.735 78.3818 19.0965 78.6321 19.4765C78.8141 19.7565 78.9876 20.0494 79.1128 20.3609C78.7274 20.6237 78.3519 20.9009 77.9665 21.1652C77.4517 21.5181 76.9198 21.8482 76.3965 22.1896C75.8461 22.5497 75.2972 22.9111 74.7525 23.2797C74.2519 23.6169 73.7613 23.9684 73.2422 24.277C72.3221 24.8256 71.3251 25.3185 70.5501 26.0729C70.5131 26.01 70.4761 25.9471 70.4363 25.8857C70.2941 25.6685 70.1561 25.4485 70.0168 25.2285C71.1829 23.5869 72.6463 22.1739 74.1054 20.798ZM14.5717 24.2998C14.8504 23.9927 15.1206 23.6712 15.4136 23.3769C15.9953 22.7968 16.7063 22.3796 17.3392 21.8667C17.6449 21.6196 17.9237 21.3424 18.2465 21.1167C18.6148 20.8595 18.9846 20.608 19.3472 20.3451C19.707 20.0837 20.0597 19.8108 20.3939 19.5179C20.5717 19.3636 20.5518 19.0593 20.3939 18.9007C20.3783 18.885 20.3598 18.8721 20.3427 18.8593C19.9474 17.552 19.6061 16.2276 19.4084 14.8746C19.215 13.5416 19.141 12.1172 19.3344 10.7785C19.424 10.1498 19.6615 9.53692 19.8222 8.92257C19.9901 8.27822 20.0612 7.62816 20.3712 7.02953C20.6784 6.43375 21.0453 5.85084 21.4165 5.29507C21.7393 4.81216 22.1176 4.37069 22.5328 3.96637C23.3705 3.14914 24.3802 2.48336 25.471 2.06046C26.0982 1.81758 26.7111 1.55898 27.3568 1.37039C28.0038 1.1818 28.668 1.03464 29.3378 0.956064C31.8749 0.654605 34.6452 1.16751 36.6533 2.83339C37.1183 3.22058 37.5478 3.64776 37.9602 4.09066C38.3755 4.53785 38.8448 4.99361 39.1847 5.50223C39.8844 6.54519 40.1418 7.78246 40.5144 8.96258C40.6054 9.25118 40.705 9.53549 40.8187 9.81409C40.8287 9.83981 40.8415 9.8641 40.8543 9.88839C40.8543 9.89696 40.8515 9.9041 40.8515 9.91267C40.85 10.087 40.8813 10.267 40.9297 10.4356C40.9539 10.5227 40.988 10.6099 41.0307 10.6899C41.0392 10.7056 41.0491 10.7213 41.0577 10.737V10.7413C41.0563 10.8485 41.1046 10.9628 41.1786 11.0414C41.1402 11.2642 41.1032 11.4871 41.089 11.7143C41.0662 12.0743 41.0506 12.4244 41.0065 12.783C40.9652 13.1087 40.9894 13.4445 40.9894 13.7731C40.9894 14.1231 40.988 14.4731 40.9894 14.8232C40.9908 15.1632 41.0548 15.4961 41.0577 15.8361C41.0634 16.5148 41.2625 17.1748 41.2639 17.8535C41.2653 18.415 42.1342 18.4164 42.1328 17.8535C42.1314 17.1877 41.938 16.5405 41.9266 15.8761C41.9195 15.5232 41.8598 15.1761 41.8569 14.8232C41.8555 14.4731 41.8569 14.1231 41.8569 13.7731C41.8569 13.4602 41.8285 13.1316 41.8711 12.8215C41.9195 12.4644 41.9351 12.1158 41.955 11.7557C41.9721 11.42 42.0532 11.0928 42.1001 10.7599C42.1243 10.5927 42.12 10.4284 42.1342 10.2627C42.1456 10.1213 42.1968 9.9884 42.2011 9.84267C42.2011 9.82838 42.1996 9.81695 42.1982 9.80266C42.1996 9.79695 42.2025 9.79266 42.2039 9.78552C42.5182 8.38538 42.9292 6.9981 43.6858 5.76797C44.4125 4.58643 45.482 3.59061 46.6083 2.79768C47.1814 2.39478 47.7858 2.0376 48.4101 1.72185C48.942 1.45183 49.4839 1.27895 50.0641 1.14751C51.1762 0.897486 52.3225 0.833194 53.4588 0.921775C55.7242 1.09894 57.9613 1.92902 59.7674 3.31916C60.6619 4.00637 61.4512 4.84931 62.0641 5.79798C62.8321 6.98524 63.2943 8.36252 63.5574 9.74837C64.1035 12.6272 63.684 15.6275 62.7724 18.3849C62.7283 18.5178 62.6828 18.6507 62.6358 18.7821C62.5505 18.795 62.4666 18.8321 62.3983 18.9007C62.2462 19.0536 62.2234 19.3422 62.3827 19.5008C62.3585 19.7022 62.5178 19.9108 62.7041 19.9622C62.7866 19.9851 62.8648 19.9823 62.9359 19.9622C63.4678 20.3751 64.0267 20.7538 64.5785 21.1409C64.8899 21.3595 65.1573 21.6296 65.4531 21.8682C65.7717 22.1253 66.1201 22.3382 66.4415 22.5939C66.7686 22.854 67.1099 23.1069 67.4043 23.4055C67.6972 23.7026 67.9689 24.0212 68.2476 24.3313C68.515 24.6299 68.7966 24.9413 69.0156 25.2771C69.2431 25.6242 69.4593 25.9786 69.6868 26.3272C69.7153 26.3729 69.7423 26.42 69.7707 26.4672C69.4138 26.3057 69.0554 26.1514 68.6956 25.9986C67.1881 25.3585 65.6565 24.8127 64.0893 24.3313C59.8712 23.034 55.6062 21.8839 51.2374 21.2238C49.0515 20.8938 46.8486 20.678 44.6386 20.6223C42.531 20.568 40.4291 20.7109 38.3257 20.808C34.2883 20.9952 30.2465 21.1581 26.2318 21.6396C22.2413 22.1182 18.2579 22.9025 14.5034 24.377C14.5262 24.3527 14.5489 24.327 14.5717 24.3013V24.2998ZM9.78618 32.9135C9.91843 32.5092 10.018 32.0978 10.1431 31.692C10.2612 31.3048 10.4873 30.9748 10.6324 30.599C10.7063 30.4104 10.7603 30.2133 10.83 30.0218C10.9011 29.8247 11.0078 29.6432 11.113 29.4632C11.3264 29.096 11.5539 28.7388 11.7686 28.3731C11.9749 28.0245 12.2707 27.7402 12.4868 27.3973C12.7129 27.0372 12.8921 26.6486 13.1282 26.2929C13.3003 26.0329 13.4624 25.77 13.6288 25.5071C17.1842 23.9569 20.9969 23.0783 24.8225 22.5354C28.7391 21.981 32.6955 21.781 36.6419 21.5981C38.6073 21.5081 40.577 21.371 42.5452 21.3295C44.7069 21.2852 46.8714 21.401 49.0217 21.6438C53.3222 22.1296 57.5531 23.134 61.7015 24.3527C63.5915 24.9085 65.5 25.4557 67.3275 26.1957C68.3571 26.6129 69.4052 27.0272 70.3879 27.5473C70.4007 27.5544 70.4121 27.5616 70.4249 27.5673C70.6226 27.8388 70.853 28.0831 71.0236 28.3731C71.2455 28.7503 71.4816 29.1189 71.6992 29.4975C71.9054 29.8532 72.012 30.219 72.1599 30.599C72.3107 30.9862 72.5411 31.3262 72.6605 31.7263C72.7771 32.1235 72.8781 32.5206 73.0061 32.9135C73.1398 33.325 73.2194 33.7465 73.3133 34.168C72.1998 33.4236 70.8501 33.0164 69.583 32.6607C67.9618 32.2035 66.3064 31.8792 64.6866 31.4205C60.2737 30.1718 55.8252 29.1446 51.2445 28.7774C48.8908 28.5874 46.5315 28.4202 44.175 28.2702C41.8043 28.1188 39.4236 28.0316 37.0501 28.1659C34.7874 28.2931 32.5262 28.5817 30.2736 28.8246C28.0536 29.0632 25.8365 29.3275 23.6279 29.6618C19.2136 30.3276 14.822 31.282 10.6395 32.8735C10.3209 32.9936 10.0038 33.1207 9.68947 33.2493C9.71791 33.1364 9.75062 33.025 9.78618 32.9135ZM21.8161 76.9951C21.7151 77.0194 21.617 77.0537 21.5217 77.0937C21.4549 77.0937 21.388 77.108 21.334 77.1394C21.2842 77.1694 21.2472 77.2066 21.2202 77.248C20.9614 77.4037 20.7267 77.6009 20.5091 77.8023C20.1465 78.1381 19.8151 78.5167 19.4041 78.7967C19.0088 79.0653 18.5978 79.3739 18.1299 79.4953C17.6748 79.6139 17.1856 79.5025 16.7461 79.3396C16.2754 79.1639 15.8289 78.9067 15.4235 78.6096C15.0666 78.3495 14.7281 78.0323 14.5191 77.638C14.4252 77.4623 14.1977 77.4237 14.0327 77.5094C12.4115 78.361 10.136 78.8596 8.74659 77.3708C8.40243 77.0022 8.16636 76.5522 7.95872 76.0964C7.83642 75.8278 7.73118 75.5264 7.49937 75.3292C7.19219 75.0678 6.77123 75.042 6.38583 75.0306C5.82266 75.0149 5.29647 75.0149 4.76175 74.8106C4.27111 74.6234 3.8402 74.2691 3.53017 73.8476C3.18032 73.3705 3.15188 72.7347 2.77217 72.2718C2.60293 72.0632 2.37539 71.8946 2.10945 71.8403C1.87622 71.7932 1.69418 71.7617 1.49224 71.6231C1.08408 71.3445 0.906317 70.8645 0.812456 70.3959C0.688729 69.7772 0.673086 69.1372 0.788279 68.5171C0.919116 67.8199 1.16372 67.1555 1.42682 66.5012C1.63303 65.9869 1.75249 65.4468 1.56761 64.9067C1.37989 64.3553 1.10257 63.8481 0.958936 63.278C0.850853 62.8451 0.809611 62.3879 0.910583 62.0036C0.997334 61.6779 1.17652 61.4064 1.40833 61.1592C2.00421 60.5235 2.75795 60.062 3.35809 59.4291C3.54155 59.2376 3.70936 59.0319 3.87006 58.8204C3.93975 58.7261 3.93406 58.5533 3.87006 58.459C3.83735 58.4118 3.80891 58.3618 3.78189 58.3104C3.77905 58.3047 3.77478 58.2918 3.77051 58.2818C3.75914 58.2532 3.74918 58.2246 3.74065 58.1961C3.725 58.1418 3.71078 58.0846 3.70083 58.0289C3.69656 58.0103 3.69372 57.9903 3.69087 57.9718C3.69087 57.9675 3.68092 57.8803 3.68092 57.8689C3.66101 57.5817 3.68661 57.336 3.74207 57.0774C3.85726 56.5302 4.09334 55.9473 4.42754 55.5444C4.59678 55.3415 4.71766 55.2172 4.93951 55.1215C4.94662 55.1215 5.03622 55.09 5.05186 55.0858C5.10733 55.0715 5.16279 55.06 5.21968 55.05C5.24812 55.0443 5.27229 55.0415 5.34625 55.0358C5.42589 55.03 5.5041 55.0272 5.58374 55.0258C6.2294 55.0158 6.87078 55.1201 7.51075 55.1758C8.10663 55.2272 8.80205 55.2858 9.30265 54.8957C9.34389 54.8629 9.37091 54.82 9.38655 54.7714C9.56859 54.5886 9.7236 54.3714 9.86866 54.1742C10.1574 53.7828 10.4205 53.3727 10.7134 52.9856C11.2908 52.224 12.1711 51.5183 13.1154 51.2825C13.6032 51.1611 14.1351 51.1697 14.603 51.3654C15.004 51.5326 15.3453 51.8154 15.6767 52.0912C16.0393 52.3926 16.4062 52.7041 16.83 52.917C17.4046 53.2041 17.9877 53.2284 18.6063 53.0856C19.1851 52.9527 19.7383 52.7127 20.3399 52.6927C20.9116 52.6727 21.4492 52.8384 21.9725 53.0627C22.4361 53.2613 22.8087 53.5313 23.1259 53.9271C23.4075 54.28 23.6407 54.6786 23.9365 55.0243C24.2309 55.3701 24.5907 55.6658 25.0045 55.853C25.3814 56.0216 25.7753 56.1273 26.1792 56.2059C26.5888 56.2859 27.0026 56.3445 27.4122 56.4273C27.6099 56.4673 27.8076 56.5131 28.001 56.5716C28.0877 56.5973 28.1745 56.6259 28.2598 56.6588C28.338 56.6874 28.385 56.7074 28.4859 56.7588C28.8116 56.9274 29.0349 57.1274 29.1998 57.4474C29.4331 57.9032 29.4473 58.5175 29.4772 59.0476C29.5099 59.6419 29.5568 60.232 29.7829 60.7906C30.0019 61.3335 30.3262 61.815 30.6305 62.3122C30.9221 62.788 31.1965 63.2894 31.3928 63.8138C31.5734 64.2967 31.727 64.851 31.5905 65.3654C31.3715 66.1826 30.4542 66.4826 29.8896 67.057C29.2411 67.717 29.0903 68.6628 29.0633 69.5529C29.0377 70.373 29.1131 71.2402 28.7234 71.9517C28.5016 72.3546 28.1574 72.6389 27.7635 72.869C27.4663 73.0433 27.1321 73.1676 26.8505 73.3662C26.5319 73.5905 26.3499 73.9048 26.2034 74.2605C26.0256 74.6863 25.8905 75.1278 25.69 75.545C25.4824 75.975 25.2363 76.4008 24.8808 76.7251C24.4968 77.0751 24.0332 77.1308 23.5312 77.0765C22.9595 77.0151 22.3906 76.8579 21.8161 76.9951ZM59.7631 78.3309C58.4747 80.7169 57.1876 83.1414 55.4526 85.2359C54.0063 86.9847 52.0707 88.2234 50.0186 89.1377C47.9508 90.0593 45.7465 90.6579 43.5379 91.1251C43.07 91.2237 42.5964 91.3037 42.1314 91.4165C41.81 91.4951 41.4843 91.6023 41.2169 91.8023C40.9155 92.0295 40.705 92.3409 40.5457 92.6795C40.2883 93.231 40.1119 93.8211 39.8986 94.3911C39.6512 95.054 39.3881 95.7098 39.0908 96.3528C38.8761 96.8199 38.6215 97.27 38.2745 97.6515C37.6772 98.3087 36.8936 98.6744 36.0418 98.8773C35.052 99.113 34.0081 99.203 32.9941 99.263C31.7441 99.3373 30.4798 99.263 29.2766 98.8844C28.1645 98.5344 27.1022 97.9386 26.3541 97.0271C25.6744 96.197 25.2762 95.1641 24.9775 94.144C24.6277 92.9481 24.3873 91.718 24.1214 90.5007C23.8071 89.0606 23.507 87.6176 23.2524 86.166C23.0391 84.9488 22.914 83.7329 22.8144 82.5014C22.7149 81.287 22.6125 80.064 22.3409 78.8739C22.2498 78.471 22.1332 78.0752 21.9896 77.6895C22.4703 77.5752 22.995 77.728 23.4743 77.7852C24.056 77.8538 24.649 77.7866 25.1339 77.4323C25.9716 76.8208 26.4011 75.7878 26.741 74.8392C26.8149 74.6334 26.8818 74.442 26.9884 74.2534C27.0083 74.2205 27.0268 74.1877 27.0481 74.1562C27.0581 74.1405 27.0681 74.1277 27.078 74.1134C27.078 74.112 27.0794 74.112 27.0794 74.1105C27.1008 74.0877 27.1207 74.0648 27.1434 74.0419C27.1534 74.0319 27.1904 73.9991 27.206 73.9862C27.2202 73.9762 27.2444 73.9591 27.2529 73.9534C27.2828 73.9348 27.3127 73.9162 27.344 73.8976C27.4122 73.8591 27.4833 73.8234 27.5544 73.7876C27.7322 73.6991 27.9085 73.6105 28.0806 73.5105C28.5485 73.2419 28.968 72.9033 29.261 72.4418C29.4999 72.066 29.6308 71.6317 29.6919 71.1917C29.8156 70.3201 29.6862 69.3929 29.8839 68.5628C29.9806 68.1514 30.1513 67.7899 30.4499 67.5056C30.7514 67.2184 31.1269 67.0027 31.4639 66.7298C31.8308 66.4326 32.1266 66.0583 32.2631 65.6011C32.4366 65.0196 32.3342 64.3838 32.1479 63.8195C31.9588 63.2494 31.6858 62.7037 31.3843 62.185C31.0899 61.6807 30.7429 61.2035 30.4997 60.6692C29.992 59.5591 30.3589 58.2718 29.8483 57.1603C29.0804 55.4858 26.8362 55.8173 25.4027 55.2515C25.3629 55.2372 25.269 55.1943 25.1937 55.1529C25.1069 55.1072 25.0216 55.0558 24.9405 54.9972C24.7471 54.86 24.5765 54.6829 24.4229 54.5014C24.1256 54.1485 23.8938 53.7442 23.5994 53.387C23.2553 52.9684 22.8258 52.6598 22.3309 52.4455C21.7507 52.194 21.159 51.9897 20.5205 51.9769C19.8677 51.964 19.2704 52.1683 18.6504 52.3383C18.3759 52.4126 18.0972 52.4755 17.8113 52.4669C17.5497 52.4584 17.3122 52.3698 17.0846 52.2455C16.2313 51.7754 15.6241 50.9596 14.6812 50.6353C13.8137 50.3367 12.885 50.5139 12.0844 50.9225C11.7772 50.4396 11.5141 49.9324 11.2311 49.4323C11.0192 49.0594 10.7902 48.7008 10.6124 48.3094C10.4276 47.9065 10.2981 47.475 10.1474 47.0592C9.84164 46.2134 9.46477 45.3762 9.2415 44.5047C9.13057 44.0761 9.0424 43.6403 8.94285 43.2089C8.84756 42.7988 8.82623 42.3845 8.78214 41.9673C8.68686 41.0901 8.69539 40.2028 8.71104 39.3213C8.71388 39.1142 8.72241 38.907 8.74517 38.7027C8.77219 38.4727 8.82907 38.2498 8.84187 38.0198C8.85325 37.8055 8.83476 37.594 8.87174 37.3826C8.91014 37.164 8.9528 36.9454 8.98835 36.7254C9.05662 36.291 9.05519 35.8324 9.15475 35.4052C9.25287 34.9866 9.38655 34.5794 9.48042 34.1594C9.4861 34.138 9.49037 34.1165 9.49464 34.0951C13.5037 32.4278 17.7288 31.3705 21.9995 30.6419C26.3669 29.8961 30.7798 29.4832 35.1842 29.0317C39.8588 28.5531 44.532 29.0189 49.1994 29.3503C51.4919 29.5118 53.7659 29.7104 56.0343 30.099C58.2756 30.4819 60.4941 30.9934 62.6885 31.5934C64.4036 32.0635 66.1144 32.5164 67.8423 32.9421C69.4195 33.3322 71.0691 33.7265 72.5055 34.5123C72.7885 34.668 73.0644 34.8395 73.3133 35.0466C73.3944 35.1138 73.4854 35.1381 73.5707 35.1323C73.5977 35.2338 73.6233 35.3366 73.6461 35.4409C73.7385 35.8567 73.7371 36.3025 73.8039 36.7254C73.8395 36.9454 73.8822 37.164 73.9206 37.3826C73.9589 37.6083 73.9376 37.834 73.9533 38.0612C73.9675 38.2641 74.0173 38.4612 74.0429 38.6641C74.0713 38.8941 74.0798 39.127 74.0827 39.3599C74.0884 39.7985 74.0812 40.2371 74.0812 40.6743C74.0812 41.1115 74.0571 41.5358 74.0116 41.9673C73.9646 42.3988 73.9405 42.8245 73.8409 43.2489C73.7385 43.6789 73.6532 44.1147 73.5423 44.5419C73.4313 44.9633 73.2706 45.3648 73.1185 45.7705C72.9762 46.1463 72.8397 46.5249 72.7018 46.9035C71.7816 46.3878 70.6368 46.4935 69.6854 46.8992C69.1805 47.1135 68.697 47.3921 68.2718 47.7422C67.9134 48.0365 67.5892 48.3694 67.2478 48.6837C67.1085 48.8123 66.935 48.9694 66.8056 49.068C66.7373 49.1209 66.6648 49.1709 66.5908 49.2152C66.5581 49.2337 66.524 49.2523 66.4898 49.2695C66.4856 49.2709 66.4827 49.2723 66.4799 49.2738C66.4756 49.2752 66.4657 49.278 66.4443 49.2838C66.4401 49.2852 66.4358 49.288 66.4315 49.288C66.3818 49.2895 66.3334 49.2909 66.2836 49.288C66.2495 49.2866 66.2154 49.2823 66.1812 49.2795C66.1699 49.278 66.1628 49.278 66.1599 49.278C66.1542 49.278 66.1471 49.2752 66.1329 49.2723C65.8456 49.2252 65.564 49.1437 65.2853 49.058C64.7036 48.8794 64.1248 48.6566 63.5218 48.5594C63.2374 48.5122 62.9501 48.4865 62.6657 48.5508C62.3841 48.6137 62.1324 48.7694 61.9077 48.9451C61.4327 49.318 61.0573 49.8395 60.8041 50.3853C60.5709 50.8896 60.3675 51.524 60.4984 52.0883C59.874 52.5855 59.1317 52.907 58.4363 53.3056C57.7166 53.7185 57.1364 54.2957 56.9786 55.1429C56.8705 55.7187 56.9174 56.3045 57.0155 56.8788C57.0582 57.1288 57.1222 57.3746 57.1649 57.6246C57.1677 57.6403 57.1705 57.656 57.1734 57.6717C57.1734 57.6775 57.1748 57.6846 57.1762 57.6903C57.1762 57.6946 57.1762 57.7003 57.1777 57.7075C57.1819 57.7532 57.1848 57.7989 57.1848 57.8446C57.1848 57.886 57.1833 57.9275 57.1791 57.9675C57.1777 57.9689 57.1606 58.0675 57.1563 58.0818C57.0909 58.3289 56.9473 58.5518 56.8008 58.7718C56.6045 59.0662 56.414 59.3648 56.2419 59.6734C55.8949 60.2934 55.5991 60.9664 55.4981 61.675C55.4355 62.1108 55.39 62.5722 55.4398 63.018C54.413 63.4495 53.4132 63.9481 52.3225 64.1981C51.8759 64.2995 52.0651 64.9882 52.5116 64.8867C53.5981 64.6382 54.595 64.1424 55.6176 63.7123C55.8252 64.1967 56.1978 64.5796 56.6984 64.7667C56.7155 64.7739 56.7311 64.7796 56.7482 64.7853C56.7524 64.7882 56.7567 64.7896 56.7624 64.7939C56.8193 64.8225 56.8036 64.811 56.8349 64.841C56.916 64.9167 56.9743 65.021 57.0098 65.1253C57.1037 65.4139 57.1151 65.7211 57.1663 66.0183C57.2687 66.5969 57.6057 67.1455 58.011 67.5613C58.4064 67.9656 58.9056 68.2485 59.4389 68.4214C59.6991 68.5071 59.9679 68.5514 60.2338 68.6157C60.3334 68.6385 60.4315 68.6643 60.5282 68.6957C60.5595 68.7071 60.5908 68.7186 60.6221 68.73C60.6221 68.7314 60.6903 68.76 60.706 68.7686C60.7259 68.7786 60.743 68.7914 60.76 68.8029C60.7714 68.81 60.7842 68.82 60.7927 68.8286C60.7999 68.8357 60.8041 68.8414 60.8084 68.8471V68.8486C60.8183 68.8714 60.834 68.8971 60.8482 68.9157C60.8482 68.9157 60.8487 68.9162 60.8496 68.9171C60.8496 68.9171 60.8511 68.9229 60.8525 68.9271C60.8596 68.9557 60.871 68.9843 60.8795 69.0143C60.8994 69.0857 60.9151 69.1572 60.9321 69.23C61.0374 69.7044 61.1568 70.1701 61.3659 70.6116C61.6787 71.2731 62.1893 71.796 62.8108 72.146C61.4683 74.0248 60.8525 76.3107 59.7617 78.3309H59.7631ZM85.4982 63.9609C85.2906 64.2938 84.9336 64.4681 84.5809 64.6267C84.1927 64.801 83.803 64.9567 83.4702 65.2296C82.8672 65.724 82.5942 66.5069 82.4193 67.2413C82.3354 67.5942 82.2671 67.9513 82.1704 68.2999C82.0694 68.6628 81.977 68.9243 81.7693 69.2343C81.5887 69.5029 81.3086 69.7358 80.9815 69.8972C80.6373 70.0673 80.2576 70.143 79.8907 70.2501C79.5892 70.3373 79.3233 70.483 79.1142 70.7216C78.8227 71.0559 78.6207 71.456 78.3747 71.8217C77.9139 72.5018 77.2128 73.3976 76.2856 73.2333C75.7836 73.1447 75.3342 72.8833 74.8378 72.7747C74.3045 72.659 73.8096 72.759 73.3247 72.9961C72.8511 73.2276 72.4344 73.5548 71.9694 73.8019C71.7418 73.9234 71.4986 74.0162 71.2583 74.1077C71.0265 74.1963 70.7819 74.2848 70.533 74.3148C69.6072 74.4263 68.7084 73.6648 68.1239 73.0261C67.8366 72.7118 67.565 72.3489 67.4441 71.9375C67.3901 71.7532 67.1938 71.6331 67.0061 71.6874C66.1528 71.9303 65.2199 72.056 64.3652 71.9232C63.4977 71.7874 62.7041 71.4074 62.2163 70.6688C61.9489 70.2644 61.7982 69.8115 61.6873 69.3429C61.619 69.0572 61.5849 68.7286 61.4185 68.4785C61.218 68.1756 60.8809 68.0456 60.5424 67.9571C60.039 67.8228 59.5341 67.7527 59.0748 67.4884C58.6396 67.2384 58.2997 66.8727 58.0622 66.4312C57.7892 65.924 57.8646 65.3454 57.6512 64.8224C57.546 64.561 57.3725 64.3138 57.1208 64.1767C57.0298 64.1267 56.9288 64.0981 56.8335 64.0581C56.8335 64.0581 56.8326 64.0576 56.8307 64.0567H56.8292C56.8122 64.0467 56.7539 64.0181 56.7382 64.0081C56.6828 63.9752 56.6401 63.9395 56.5932 63.8952C56.2106 63.5338 56.121 63.0294 56.1324 62.5222C56.1466 61.8779 56.2732 61.2535 56.5363 60.6649C56.8179 60.0363 57.2132 59.4891 57.5631 58.9004C57.8262 58.459 57.9385 58.0161 57.8617 57.5074C57.7849 56.9974 57.647 56.5073 57.6285 55.9887C57.6199 55.7544 57.6299 55.5072 57.6683 55.3129C57.6854 55.2201 57.7095 55.1301 57.738 55.04C57.7778 54.9129 57.7764 54.9186 57.8262 54.8229C57.866 54.7457 57.9115 54.6714 57.9613 54.6C57.9698 54.5857 57.9797 54.5729 57.9911 54.5586C57.994 54.5557 57.9968 54.5514 58.0011 54.5457C58.0324 54.51 58.0637 54.4743 58.0964 54.44C58.1504 54.3814 58.2087 54.3271 58.2684 54.2757C58.2756 54.27 58.3253 54.23 58.3353 54.2214C58.3737 54.1914 58.4135 54.1628 58.4533 54.1357C59.1231 53.6742 59.8982 53.3913 60.568 52.927C60.7743 52.7841 60.9719 52.6284 61.1611 52.4641C61.2464 52.3884 61.2962 52.224 61.2521 52.1155C61.1625 51.8983 61.154 51.7569 61.1867 51.5054C61.1867 51.5054 61.1938 51.4554 61.1966 51.4468C61.2023 51.414 61.208 51.3811 61.2165 51.3482C61.2293 51.2868 61.245 51.2268 61.2621 51.1682C61.299 51.0396 61.3502 50.8953 61.4 50.7868C61.6219 50.2881 61.9433 49.8081 62.3799 49.4738C62.5306 49.358 62.6927 49.2666 62.9004 49.2309C62.9089 49.2309 63.0042 49.2252 63.0212 49.2252C63.0739 49.2238 63.1279 49.2266 63.1805 49.2309C63.3085 49.2395 63.3839 49.2537 63.5332 49.2852C64.1092 49.4081 64.6624 49.6181 65.2256 49.7852C65.7603 49.9452 66.4045 50.1396 66.9378 49.8781C66.9876 49.8538 67.026 49.8138 67.0544 49.7681C67.255 49.6366 67.437 49.4723 67.6091 49.318C67.9475 49.0152 68.2661 48.6908 68.6074 48.3908C69.3242 47.7579 70.3823 47.2178 71.392 47.2636C71.857 47.285 72.3107 47.4407 72.6705 47.7393C73.0033 48.0165 73.2635 48.3694 73.5337 48.7051C73.8139 49.0537 74.1125 49.3838 74.4837 49.6381C74.9544 49.961 75.5276 50.0181 76.0836 49.9867C76.6013 49.9567 77.1204 49.871 77.6366 49.9724C78.1344 50.071 78.5638 50.3081 78.9791 50.5939C79.3944 50.8796 79.7001 51.2111 79.9263 51.664C80.1339 52.0826 80.2804 52.5312 80.525 52.9327C80.9801 53.6799 81.6684 54.0742 82.452 54.4C82.6269 54.4728 82.8018 54.54 82.9782 54.61C83.1517 54.6786 83.3294 54.7486 83.4702 54.81C83.6366 54.8829 83.8016 54.9615 83.9594 55.05C84.0306 55.09 84.1003 55.1315 84.1685 55.1758C84.2041 55.1986 84.2396 55.2244 84.2752 55.2486C84.3306 55.2872 84.2937 55.2586 84.3463 55.3029C84.4103 55.3572 84.4714 55.4129 84.5297 55.4729C84.5582 55.5029 84.5852 55.533 84.6122 55.5644C84.6122 55.5644 84.6208 55.5758 84.6279 55.583C84.6364 55.5958 84.662 55.633 84.6634 55.633C84.7701 55.793 84.8099 55.8758 84.8568 56.0444C84.9962 56.5473 84.8895 57.1003 84.8142 57.6046C84.7217 58.2175 84.6634 58.8061 84.79 59.4191C84.9052 59.9705 85.137 60.4877 85.319 61.0192C85.4883 61.5135 85.6376 62.0322 85.7016 62.5522C85.7585 63.0251 85.7599 63.5466 85.4982 63.9609Z" fill="#231F20"/>
<path d="M9.48571 62.4677C9.09604 63.5435 8.67793 64.615 8.44186 65.738C8.19156 66.921 8.12045 68.1411 8.11192 69.3483C8.10765 70.0255 8.1233 70.7013 8.13752 71.3771C8.14747 71.8357 8.85855 71.8372 8.84859 71.3771C8.82299 70.1999 8.79455 69.0197 8.87561 67.8453C8.95667 66.6709 9.16288 65.588 9.51842 64.4964C9.72036 63.8778 9.94933 63.2692 10.1712 62.6577C10.2366 62.4762 10.0972 62.2662 9.92231 62.2176C9.72463 62.1633 9.55113 62.2848 9.48429 62.4677H9.48571Z" fill="#F49DC2"/>
<path d="M12.6684 67.1739C12.6414 68.3297 12.5661 69.4898 12.6926 70.6428C12.8192 71.7958 13.2018 72.8287 13.3084 73.946C13.3269 74.1374 13.4592 74.3032 13.6639 74.3032C13.8417 74.3032 14.038 74.1389 14.0195 73.946C13.9128 72.8259 13.526 71.7586 13.4037 70.6428C13.2814 69.527 13.3525 68.3297 13.3795 67.1739C13.3909 66.7138 12.6798 66.7138 12.6684 67.1739Z" fill="#F49DC2"/>
<path d="M16.669 67.2381C17.7086 69.174 18.3599 71.2885 19.3426 73.2515C19.5488 73.663 20.1618 73.3015 19.957 72.8915C18.9743 70.9284 18.3229 68.8139 17.2833 66.878C17.0658 66.4737 16.4514 66.8337 16.669 67.2381Z" fill="#F49DC2"/>
<path d="M17.552 62.9292C19.6781 63.9679 21.261 65.7695 22.7642 67.5511C23.1908 68.0568 23.6132 68.564 24.047 69.0627C24.1735 69.2084 24.421 69.1927 24.5504 69.0627C24.694 68.9184 24.677 68.7026 24.5504 68.5569C22.9832 66.7567 21.5383 64.8208 19.6213 63.3692C19.0851 62.9635 18.5148 62.6063 17.9118 62.312C17.7398 62.2277 17.5279 62.2648 17.4255 62.4406C17.3345 62.5977 17.38 62.8449 17.5535 62.9292H17.552Z" fill="#F49DC2"/>
<path d="M18.2333 58.7616C19.189 58.5501 20.1916 58.7587 21.1075 59.0531C22.0233 59.3474 22.9506 59.786 23.8294 60.2432C24.2348 60.4546 24.5946 59.8388 24.1878 59.626C23.2378 59.1316 22.2637 58.6673 21.2411 58.3458C20.2186 58.0244 19.1094 57.8372 18.0456 58.073C17.599 58.1715 17.7882 58.8602 18.2347 58.7616H18.2333Z" fill="#F49DC2"/>
<path d="M9.16993 58.0473C8.32091 58.7488 7.34958 59.2817 6.60438 60.1075C5.85918 60.9333 5.31592 61.8991 4.75702 62.8492C4.52378 63.2464 5.13815 63.605 5.37138 63.2092C5.90895 62.2948 6.42803 61.3505 7.15048 60.5661C7.87293 59.7817 8.84283 59.2388 9.67479 58.553C9.82269 58.4302 9.80136 58.1744 9.67479 58.0473C9.5283 57.9001 9.32067 57.9244 9.17135 58.0473H9.16993Z" fill="#F49DC2"/>
<path d="M60.1893 57.9172C61.694 56.6928 63.3692 55.6927 65.1754 54.9912C65.7115 54.7826 66.2562 54.5983 66.8066 54.4312C67.2432 54.2983 67.0569 53.6096 66.6174 53.7425C64.6677 54.3326 62.8046 55.1755 61.1208 56.3328C60.6273 56.6714 60.1509 57.0343 59.6859 57.4129C59.5366 57.5343 59.5607 57.7915 59.6859 57.9187C59.8338 58.0672 60.0386 58.0401 60.1893 57.9187V57.9172Z" fill="#F49DC2"/>
<path d="M69.1176 55.9527C66.4667 57.4542 64.0675 59.4116 62.078 61.7275C61.5077 62.3904 60.9715 63.0834 60.4681 63.7992C60.3572 63.9563 60.4397 64.1963 60.5961 64.2878C60.7739 64.3921 60.9715 64.3178 61.0825 64.1592C62.7848 61.7347 64.9166 59.6116 67.3399 57.9157C68.0296 57.4328 68.7436 56.9842 69.476 56.5699C69.8742 56.3441 69.5172 55.7269 69.1176 55.9527Z" fill="#F49DC2"/>
<path d="M68.243 69.9685C68.6483 68.5084 69.1403 67.0754 69.5826 65.6267C70.0093 64.2294 70.2951 62.8007 70.6336 61.3805C70.8227 60.5833 71.0375 59.7932 71.3148 59.0231C71.3802 58.8417 71.2408 58.6317 71.0659 58.5831C70.8682 58.5288 70.6947 58.6503 70.6279 58.8331C70.1344 60.2004 69.8471 61.6291 69.5257 63.0436C69.1944 64.4951 68.7521 65.9067 68.2998 67.324C68.0396 68.1383 67.7836 68.9556 67.5546 69.7799C67.4309 70.2228 68.1178 70.4129 68.2401 69.97L68.243 69.9685Z" fill="#F49DC2"/>
<path d="M73.7737 57.5487C74.7066 60.6547 75.0707 63.8907 75.183 67.1225C75.2143 68.0383 75.2271 68.9555 75.2271 69.8727C75.2271 70.3328 75.9382 70.3328 75.9382 69.8727C75.9382 66.5867 75.7789 63.2835 75.1304 60.0546C74.9484 59.146 74.7251 58.2459 74.4592 57.3586C74.3269 56.92 73.6414 57.1072 73.7737 57.5487Z" fill="#F49DC2"/>
<path d="M76.379 55.6713C76.8156 56.0927 77.3162 56.4356 77.7884 56.8142C78.2605 57.1929 78.663 57.6186 79.0057 58.1215C79.3484 58.6244 79.704 59.1873 80.0311 59.7303C80.3368 60.2374 80.5601 60.7861 80.745 61.3476C80.9654 62.0133 81.1347 62.6948 81.3167 63.372C81.4361 63.8149 82.123 63.6278 82.0022 63.182C81.6722 61.9562 81.3793 60.6946 80.7635 59.5745C80.4606 59.0245 80.1008 58.4944 79.758 57.9686C79.4153 57.4429 79.0142 56.9214 78.5208 56.4985C77.986 56.0399 77.3916 55.6556 76.8824 55.1655C76.5525 54.8469 76.0491 55.3512 76.379 55.6713Z" fill="#F49DC2"/>
<path d="M71.9903 51.3923C71.5082 51.0652 70.9607 50.8566 70.3904 50.7437C69.8202 50.6308 69.257 50.5951 68.6924 50.5137C68.5033 50.4865 68.3098 50.5608 68.2544 50.7637C68.2089 50.9309 68.3113 51.1752 68.5033 51.2038C69.5841 51.3609 70.6948 51.3752 71.6305 52.0095C71.7898 52.1167 72.0245 52.041 72.1169 51.881C72.2193 51.7052 72.1496 51.5009 71.9889 51.3923H71.9903Z" fill="#F49DC2"/>
</g>
<defs>
<clipPath id="clip0_15_6653">
<rect width="86.4407" height="100" fill="white"/>
</clipPath>
</defs>
</svg>
